<?xml version="1.0" standalone="no"?>
<!DOCTYPE svg PUBLIC "-//W3C//DTD SVG 20010904//EN"
 "http://www.w3.org/TR/2001/REC-SVG-20010904/DTD/svg10.dtd">
<svg version="1.0" xmlns="http://www.w3.org/2000/svg"
 width="561.000000pt" height="562.000000pt" viewBox="0 0 561.000000 562.000000"
 preserveAspectRatio="xMidYMid meet">
<metadata>
Created by potrace 1.16, written by Peter Selinger 2001-2019
</metadata>
<g transform="translate(0.000000,562.000000) scale(0.100000,-0.100000)"
fill="#000000" stroke="none">
<path d="M1755 5410 c-11 -5 -41 -9 -67 -9 -26 -1 -50 -5 -53 -11 -3 -5 -14
-10 -24 -10 -45 0 -251 -75 -251 -91 0 -5 -11 -9 -25 -9 -14 0 -25 -3 -25 -8
0 -4 -16 -16 -35 -26 -19 -11 -35 -23 -35 -28 0 -4 -5 -8 -11 -8 -10 0 -82
-50 -87 -61 -1 -3 -16 -21 -32 -39 -17 -19 -30 -40 -30 -47 0 -7 -4 -13 -8
-13 -11 0 -32 -68 -32 -102 0 -31 22 -78 37 -78 6 0 13 -3 15 -7 2 -5 21 -16
43 -27 34 -16 79 -20 318 -27 261 -8 285 -10 405 -39 70 -17 138 -37 152 -44
14 -7 42 -16 63 -20 20 -4 37 -11 37 -16 0 -6 8 -10 18 -10 9 0 28 -9 42 -20
14 -11 31 -20 38 -20 7 0 15 -7 18 -15 4 -8 14 -15 24 -15 21 0 206 46 220 55
20 12 240 38 380 44 l145 6 3 33 c2 18 -1 39 -6 45 -5 7 -13 27 -17 45 -3 17
-11 32 -16 32 -5 0 -9 9 -9 20 0 11 -3 20 -8 20 -4 0 -13 14 -20 30 -16 36
-38 63 -113 138 -59 60 -106 102 -114 102 -2 0 -30 18 -61 40 -32 22 -63 40
-71 40 -7 0 -13 3 -13 8 0 14 -175 92 -209 92 -9 0 -29 7 -45 15 -15 8 -43 15
-62 15 -18 0 -59 7 -91 15 -63 17 -352 20 -388 5z"/>
<path d="M4505 4980 c-3 -5 -20 -10 -36 -10 -35 0 -182 -48 -187 -61 -2 -5
-10 -9 -17 -9 -8 0 -20 -6 -27 -12 -7 -7 -46 -37 -87 -66 -40 -29 -80 -59 -88
-65 -36 -31 -263 -252 -263 -258 0 -3 18 -14 40 -24 22 -10 40 -22 40 -27 0
-4 5 -8 10 -8 11 0 89 -49 105 -66 6 -5 28 -23 50 -39 62 -46 84 -65 154 -137
81 -81 121 -127 121 -139 0 -4 6 -12 13 -16 15 -10 77 -88 77 -98 0 -16 86
-135 98 -135 8 0 26 11 40 24 72 65 97 86 104 86 5 0 8 4 8 10 0 5 15 25 33
43 45 48 107 118 107 123 0 2 20 32 44 67 24 35 53 86 66 113 12 27 29 61 36
76 8 14 14 35 14 46 0 11 5 22 12 24 15 5 25 310 10 341 -5 12 -15 40 -21 62
-20 76 -94 137 -186 154 -74 14 -262 14 -270 1z"/>
<path d="M2785 4408 c-66 -3 -142 -11 -170 -18 -27 -6 -78 -16 -112 -22 -35
-5 -63 -14 -63 -19 0 -5 -11 -9 -24 -9 -13 0 -45 -9 -72 -21 -27 -11 -60 -25
-74 -31 -68 -28 -90 -38 -155 -69 -38 -18 -74 -39 -78 -46 -4 -7 -15 -13 -22
-13 -8 0 -15 -4 -15 -9 0 -5 -8 -12 -19 -16 -10 -3 -28 -13 -39 -23 -53 -45
-63 -52 -69 -52 -3 0 -13 -7 -22 -15 -51 -46 -61 -55 -66 -55 -7 0 -166 -163
-200 -206 -16 -21 -38 -44 -47 -53 -10 -8 -18 -20 -18 -26 0 -6 -13 -25 -29
-42 -16 -18 -35 -46 -42 -62 -8 -17 -17 -31 -20 -31 -4 0 -14 -15 -23 -32 -10
-18 -33 -60 -52 -93 -18 -33 -37 -67 -40 -75 -3 -8 -12 -27 -20 -42 -8 -14
-14 -33 -14 -41 0 -8 -7 -20 -15 -27 -8 -7 -15 -23 -15 -36 0 -13 -4 -24 -10
-24 -5 0 -10 -11 -10 -24 0 -14 -4 -27 -9 -30 -5 -4 -12 -24 -16 -46 -4 -22
-10 -40 -15 -40 -4 0 -11 -22 -15 -50 -4 -27 -10 -50 -14 -50 -4 0 -13 -39
-20 -87 -7 -49 -18 -113 -23 -143 -15 -86 -20 -393 -9 -515 19 -196 32 -289
40 -299 5 -6 14 -44 21 -83 6 -40 16 -75 21 -79 5 -3 9 -14 9 -26 0 -11 6 -34
14 -51 7 -18 20 -54 29 -82 19 -61 36 -110 54 -152 7 -17 13 -38 13 -47 0 -9
5 -16 10 -16 6 0 10 -11 10 -24 0 -36 47 -76 115 -98 113 -37 295 -85 372 -99
29 -5 64 -14 78 -19 15 -6 41 -10 59 -10 18 0 46 -4 62 -9 44 -14 265 -33 389
-34 124 -1 311 17 397 39 32 8 68 14 81 14 13 0 43 6 68 14 24 8 71 22 104 32
33 9 64 21 70 26 5 4 18 8 28 8 10 0 31 6 45 14 15 7 41 19 57 26 65 26 101
43 125 57 14 8 33 17 43 20 9 3 17 9 17 14 0 5 9 9 20 9 11 0 20 5 20 10 0 6
7 10 15 10 8 0 15 5 15 10 0 6 7 10 15 10 8 0 15 5 15 10 0 6 9 10 19 10 11 0
21 3 23 8 3 8 105 82 113 82 3 0 13 8 24 18 10 9 42 37 71 62 70 60 176 167
208 210 15 19 35 42 44 51 10 9 18 19 18 23 0 6 23 36 50 65 8 9 24 33 35 54
11 20 22 37 25 37 3 0 14 20 25 45 11 25 23 45 28 45 4 0 7 5 7 11 0 6 18 47
39 89 22 43 42 93 46 112 4 18 11 38 15 43 7 9 30 86 50 165 10 40 20 96 27
155 2 22 8 66 12 97 14 104 -16 449 -45 515 -8 17 -14 42 -14 55 0 13 -7 33
-15 45 -8 11 -17 39 -21 62 -4 22 -10 41 -15 41 -5 0 -9 9 -9 20 0 11 -4 20
-9 20 -5 0 -12 13 -16 30 -4 16 -10 32 -15 35 -4 3 -23 35 -41 72 -32 64 -123
194 -141 201 -4 2 -8 9 -8 16 0 6 -9 18 -20 26 -11 8 -20 20 -20 27 0 7 -5 13
-11 13 -6 0 -28 17 -48 38 -53 52 -95 87 -99 82 -2 -3 -8 3 -13 13 -6 9 -17
17 -24 17 -8 0 -15 4 -15 8 0 8 -77 62 -127 90 -13 6 -31 16 -40 21 -50 27
-153 71 -166 71 -9 0 -19 5 -22 10 -3 6 -17 10 -31 10 -13 0 -24 4 -24 8 0 5
-26 15 -57 21 -32 7 -90 21 -129 30 -41 11 -119 19 -189 20 -66 1 -122 3 -125
4 -3 1 -59 -1 -125 -5z"/>
<path d="M4726 2978 c-6 -20 -26 -267 -26 -316 0 -23 -6 -68 -14 -100 -8 -31
-22 -88 -31 -127 -16 -67 -27 -99 -46 -137 -14 -28 -10 -84 6 -98 8 -7 15 -18
15 -24 0 -6 10 -21 23 -32 25 -24 62 -110 101 -233 35 -109 52 -281 55 -541 2
-192 11 -280 30 -280 4 0 13 -11 20 -24 7 -13 24 -29 38 -35 29 -13 87 -14
111 -2 9 5 29 14 43 21 28 13 99 73 99 83 0 3 12 20 28 36 45 50 52 59 52 76
0 9 7 18 15 21 8 4 15 15 15 25 0 11 6 22 14 25 8 3 18 20 22 37 3 18 10 37
14 42 4 6 14 29 21 53 6 23 16 42 21 42 4 0 8 16 8 36 0 20 6 50 14 67 17 37
24 98 32 302 6 147 -8 309 -28 321 -4 3 -8 21 -8 40 0 19 -4 34 -10 34 -5 0
-10 12 -10 28 0 15 -7 40 -15 56 -8 15 -15 37 -15 47 0 10 -4 21 -10 24 -5 3
-10 15 -10 26 0 10 -4 19 -9 19 -5 0 -12 13 -16 30 -4 16 -11 32 -16 35 -4 3
-16 23 -26 43 -10 20 -28 47 -40 58 -13 12 -23 26 -23 33 0 6 -7 11 -15 11 -8
0 -15 5 -15 12 0 14 -115 128 -129 128 -6 0 -11 5 -11 10 0 6 -8 14 -17 17
-10 4 -23 12 -30 17 -33 29 -43 36 -50 36 -4 0 -41 16 -80 35 -79 38 -92 41
-97 23z"/>
<path d="M690 2489 c-19 -6 -58 -21 -86 -35 -28 -13 -56 -24 -62 -24 -7 0 -12
-3 -12 -8 0 -4 -15 -15 -32 -25 -40 -21 -118 -92 -118 -107 0 -5 -4 -10 -9
-10 -12 0 -111 -159 -111 -178 0 -8 -6 -26 -14 -40 -19 -36 -46 -179 -46 -246
0 -35 5 -60 15 -70 8 -8 15 -21 15 -29 0 -16 41 -57 58 -57 7 0 12 -4 12 -9 0
-18 112 -33 234 -32 102 0 173 8 321 36 11 2 29 10 39 18 18 14 18 15 -3 82
-11 38 -21 80 -21 95 0 14 -4 30 -9 36 -5 5 -14 50 -21 99 -7 50 -16 115 -20
145 -5 30 -9 118 -9 196 -1 178 -12 192 -121 163z"/>
<path d="M1806 839 c-3 -8 -15 -54 -27 -104 -30 -121 -33 -352 -6 -404 9 -19
17 -38 17 -43 0 -15 52 -58 79 -65 14 -3 29 -11 33 -16 8 -12 245 8 262 22 6
5 34 15 61 22 28 7 52 15 55 18 3 3 27 17 53 31 77 39 85 45 111 73 14 15 30
27 36 27 5 0 10 5 10 11 0 5 16 31 35 56 19 25 35 51 35 58 0 7 7 15 15 19 8
3 15 15 15 26 0 11 4 20 9 20 10 0 38 89 46 151 5 32 3 48 -7 56 -9 8 -111 13
-308 16 -162 3 -320 10 -350 16 -101 21 -169 25 -174 10z"/>
</g>
</svg>
