<?xml version="1.0" standalone="no"?>
<!DOCTYPE svg PUBLIC "-//W3C//DTD SVG 20010904//EN"
 "http://www.w3.org/TR/2001/REC-SVG-20010904/DTD/svg10.dtd">
<svg version="1.0" xmlns="http://www.w3.org/2000/svg"
 width="482.000000pt" height="826.000000pt" viewBox="0 0 482.000000 826.000000"
 preserveAspectRatio="xMidYMid meet">
<metadata>
Created by potrace 1.16, written by Peter Selinger 2001-2019
</metadata>
<g transform="translate(0.000000,826.000000) scale(0.100000,-0.100000)"
fill="#000000" stroke="none">
<path d="M2605 8025 c-22 -19 -44 -35 -50 -35 -5 0 -33 -22 -60 -48 -28 -26
-73 -63 -100 -84 -28 -20 -64 -51 -81 -70 -46 -49 -97 -92 -128 -106 -14 -6
-29 -19 -32 -27 -4 -8 -14 -15 -24 -15 -11 0 -21 -4 -24 -9 -4 -5 -27 -19 -54
-32 -26 -12 -51 -29 -55 -36 -4 -7 -26 -13 -48 -13 -26 0 -42 -5 -45 -15 -5
-12 -27 -15 -114 -15 -83 0 -110 3 -120 15 -7 8 -18 15 -26 15 -7 0 -28 14
-46 30 -18 17 -38 30 -45 30 -18 0 -27 -44 -14 -68 6 -12 11 -46 11 -77 0 -40
4 -57 15 -61 22 -9 22 -192 0 -200 -9 -4 -15 -19 -15 -39 0 -18 -7 -38 -15
-45 -8 -7 -15 -21 -15 -31 0 -11 -9 -27 -20 -36 -11 -10 -20 -22 -20 -29 0 -6
-9 -19 -20 -29 -11 -10 -20 -24 -20 -32 0 -7 -4 -13 -8 -13 -5 0 -48 -38 -96
-85 -48 -47 -93 -85 -100 -85 -7 0 -25 -16 -41 -36 -15 -19 -42 -42 -59 -51
-17 -9 -40 -24 -51 -34 -61 -54 -94 -79 -105 -79 -7 0 -26 -15 -42 -34 -16
-18 -41 -36 -56 -39 -15 -3 -38 -15 -51 -26 -13 -12 -38 -21 -56 -21 -17 0
-37 -6 -44 -12 -9 -10 -65 -13 -211 -13 -168 0 -201 -3 -217 -16 -10 -9 -28
-20 -40 -23 -13 -4 -23 -12 -23 -17 0 -5 -9 -19 -20 -31 -16 -17 -20 -36 -20
-89 0 -45 5 -70 14 -78 8 -7 17 -27 20 -45 4 -19 13 -39 21 -46 8 -7 15 -18
15 -25 0 -7 7 -18 15 -25 9 -7 22 -27 30 -44 9 -17 31 -42 50 -56 19 -14 35
-29 35 -34 0 -5 23 -31 51 -57 44 -43 56 -49 92 -49 28 0 48 6 59 18 9 9 29
26 43 37 15 11 33 26 40 33 8 6 18 12 23 12 6 0 12 7 16 15 3 8 10 15 15 15 5
0 23 14 41 30 20 18 43 30 60 30 15 0 35 9 45 20 11 12 31 20 51 20 23 0 37 6
44 20 8 15 21 20 52 20 26 0 45 6 53 16 6 9 23 17 38 17 15 0 32 6 38 13 7 8
31 14 60 14 27 0 49 5 49 10 0 6 67 10 180 10 113 0 180 -4 180 -10 0 -5 15
-10 34 -10 19 0 37 -4 40 -9 4 -5 24 -12 46 -16 22 -4 40 -10 40 -15 0 -4 17
-10 39 -14 21 -3 44 -13 52 -22 9 -11 22 -14 45 -9 18 3 35 1 39 -5 3 -5 26
-10 49 -10 27 0 48 -6 56 -15 18 -22 73 -19 95 5 13 15 31 20 66 20 26 0 51 5
54 10 3 6 17 10 30 10 13 0 27 4 30 10 5 9 29 20 98 48 15 7 27 16 27 22 0 5
8 10 18 10 9 0 23 9 30 20 7 11 19 20 27 20 7 0 20 9 29 21 15 21 46 23 53 3
2 -7 -3 -19 -12 -27 -8 -9 -15 -29 -15 -45 0 -17 -4 -32 -10 -34 -5 -1 -15
-27 -22 -57 -8 -34 -24 -67 -43 -87 -16 -18 -38 -48 -49 -67 -29 -56 -192
-197 -227 -197 -4 0 -26 -18 -48 -40 -22 -22 -47 -40 -56 -40 -8 0 -31 -16
-51 -35 -19 -19 -41 -35 -50 -35 -18 0 -74 -40 -74 -53 0 -11 -42 -46 -56 -47
-6 0 -25 -16 -43 -35 -17 -19 -38 -35 -46 -35 -8 0 -15 -4 -15 -10 0 -5 -6
-10 -14 -10 -8 0 -34 -16 -58 -36 -63 -52 -348 -333 -348 -344 0 -5 -6 -13
-12 -17 -14 -9 -33 -37 -47 -70 -6 -12 -16 -25 -24 -30 -7 -4 -21 -34 -31 -65
-9 -31 -24 -59 -32 -62 -8 -3 -14 -14 -14 -25 0 -11 -5 -23 -10 -26 -6 -3 -10
-15 -10 -25 0 -10 -6 -25 -13 -32 -23 -25 -39 -66 -33 -85 4 -12 0 -25 -9 -33
-8 -7 -15 -27 -15 -46 0 -18 -4 -36 -10 -39 -5 -3 -10 -23 -10 -44 0 -22 -6
-44 -15 -51 -10 -9 -15 -32 -15 -77 0 -47 -4 -65 -15 -69 -13 -5 -15 -37 -15
-200 0 -183 1 -194 20 -204 16 -8 20 -21 20 -59 0 -31 5 -53 15 -61 8 -7 17
-28 20 -49 3 -20 10 -44 16 -53 5 -10 9 -29 9 -43 0 -14 7 -28 15 -31 8 -4 15
-16 15 -28 0 -11 7 -30 15 -40 8 -11 15 -32 15 -48 0 -15 4 -28 9 -28 5 0 14
-15 21 -34 13 -41 144 -176 169 -176 10 0 24 -7 31 -15 7 -8 27 -17 46 -21 18
-3 38 -12 45 -20 6 -8 17 -14 24 -14 20 0 76 -31 81 -45 3 -7 17 -16 30 -19
28 -7 169 -140 169 -159 0 -7 12 -26 28 -42 15 -16 27 -35 27 -41 0 -7 7 -14
15 -18 8 -3 15 -13 15 -22 0 -9 16 -31 35 -50 19 -18 35 -36 35 -39 0 -3 11
-21 25 -39 14 -18 25 -39 25 -47 0 -8 14 -29 30 -47 17 -18 30 -40 30 -48 0
-8 7 -17 15 -20 8 -4 15 -15 15 -25 0 -10 5 -19 10 -19 6 0 10 -9 10 -20 0
-11 6 -23 14 -26 8 -3 17 -17 21 -32 4 -15 10 -29 14 -32 15 -12 41 -61 41
-80 0 -11 4 -20 9 -20 5 0 14 -12 20 -28 6 -15 15 -34 21 -42 6 -8 17 -31 25
-50 9 -19 19 -42 24 -50 24 -45 31 -62 31 -79 0 -11 5 -23 10 -26 6 -3 10 -14
10 -25 0 -10 7 -20 15 -24 8 -3 15 -16 15 -30 0 -13 7 -26 15 -30 8 -3 15 -16
15 -30 0 -14 7 -31 15 -40 8 -8 15 -28 15 -43 0 -16 7 -38 15 -49 8 -10 15
-33 15 -51 0 -17 7 -38 15 -47 9 -8 15 -33 15 -57 0 -23 7 -50 15 -58 25 -28
16 -450 -11 -472 -8 -6 -14 -22 -14 -34 0 -14 -18 -42 -45 -70 -44 -44 -48
-46 -110 -50 -35 -2 -74 -9 -85 -15 -34 -18 -423 0 -445 21 -5 5 -32 9 -61 9
-34 0 -56 5 -64 15 -7 8 -25 15 -40 15 -21 0 -172 69 -260 119 -8 5 -28 14
-45 21 -16 7 -37 16 -45 21 -8 5 -26 14 -40 20 -14 6 -33 15 -42 20 -10 5 -34
9 -53 9 -29 0 -37 -5 -45 -26 -15 -39 -12 -94 5 -100 8 -4 15 -17 15 -29 0
-13 5 -27 10 -30 17 -10 60 -83 60 -100 0 -8 4 -15 9 -15 5 0 20 -17 32 -37
13 -21 27 -39 31 -41 4 -2 8 -10 8 -19 0 -8 41 -54 92 -101 51 -48 115 -109
142 -135 28 -26 77 -60 109 -75 31 -14 57 -30 57 -34 0 -4 11 -8 25 -8 14 0
28 -7 31 -15 4 -10 20 -15 44 -15 21 0 43 -7 50 -15 9 -11 34 -15 100 -15 66
0 91 -4 100 -15 18 -22 315 -22 324 0 4 12 26 15 105 15 77 0 100 3 104 14 4
11 16 13 39 9 24 -3 38 0 47 11 7 9 24 16 37 16 12 0 26 5 29 10 3 6 17 10 30
10 13 0 26 4 30 9 3 5 18 12 34 16 16 3 32 13 35 21 3 8 15 14 26 14 11 0 23
7 26 15 4 8 14 15 23 15 9 0 34 16 56 36 22 19 55 48 74 62 19 15 48 43 65 61
17 19 41 45 54 57 12 12 22 25 22 29 0 4 23 36 51 71 28 35 48 68 45 73 -3 5
6 20 20 34 14 14 23 30 20 35 -3 5 1 18 9 28 8 10 15 31 15 47 0 15 9 36 20
47 12 12 20 33 20 54 0 18 7 39 15 46 9 8 15 30 15 60 0 30 6 52 15 60 11 9
15 33 15 92 0 61 3 80 15 84 12 5 15 33 15 165 0 166 7 203 42 212 11 3 18 12
15 19 -2 7 0 21 5 31 11 21 -14 57 -39 57 -11 0 -13 79 -13 444 0 244 3 464 6
490 7 45 26 62 37 32 3 -8 14 -12 25 -9 10 2 26 -3 35 -11 8 -9 22 -16 31 -16
8 0 18 -4 21 -10 3 -5 15 -10 26 -10 10 0 19 -4 19 -10 0 -5 8 -10 18 -10 10
0 28 -9 40 -20 12 -11 25 -20 30 -20 5 0 17 -9 27 -20 10 -11 22 -20 27 -20 5
0 34 -25 65 -55 56 -54 76 -64 88 -45 3 6 19 10 34 10 16 0 34 7 41 15 7 8 19
15 26 15 8 0 14 3 14 8 0 4 10 18 23 32 12 14 29 41 36 60 8 19 25 45 38 58
12 13 23 29 23 38 0 18 21 57 38 67 6 4 12 17 12 27 0 11 5 20 10 20 6 0 10 9
10 19 0 11 5 23 11 26 5 4 15 17 20 28 5 12 18 36 28 52 11 17 20 42 20 56 1
15 8 29 16 33 8 3 15 18 15 34 0 15 5 33 12 40 14 14 38 80 38 108 0 12 7 27
15 34 9 7 13 21 9 35 -3 13 1 28 10 38 9 9 16 32 16 55 0 23 6 45 15 52 9 8
15 30 15 60 0 33 6 55 21 73 19 26 20 37 17 330 -3 273 -5 305 -20 321 -14 13
-18 34 -18 92 0 43 -4 74 -10 74 -5 0 -10 22 -10 49 0 28 -4 53 -10 56 -5 3
-10 19 -10 34 0 15 -5 32 -12 39 -6 6 -11 25 -10 41 0 17 -4 33 -9 36 -5 4 -9
17 -9 29 0 13 -7 29 -15 36 -9 7 -15 29 -15 52 0 25 -5 41 -15 44 -8 4 -15 14
-15 24 0 20 -27 77 -41 85 -5 4 -9 15 -9 26 0 10 -4 19 -10 19 -5 0 -10 7 -10
15 0 9 -8 19 -17 22 -10 4 -22 12 -26 20 -4 7 -14 13 -21 13 -8 0 -19 7 -26
15 -7 8 -29 15 -50 15 -24 0 -40 -5 -44 -15 -3 -8 -17 -15 -30 -15 -14 0 -29
-6 -33 -14 -10 -17 -109 -96 -121 -96 -5 0 -15 -7 -22 -15 -7 -8 -23 -15 -36
-15 -13 0 -24 -4 -24 -10 0 -5 -11 -10 -24 -10 -13 0 -29 -7 -36 -15 -17 -20
-145 -21 -153 -1 -3 7 -19 16 -35 19 -30 6 -30 7 -37 92 -4 47 -6 166 -3 264
l4 178 30 39 c17 21 33 46 36 55 4 9 22 24 42 33 20 9 36 21 36 26 0 4 19 11
42 15 24 4 48 15 55 24 12 16 62 23 208 25 56 1 69 4 67 16 -2 8 -11 20 -20
27 -9 7 -21 16 -27 21 -5 4 -18 11 -27 15 -10 3 -18 11 -18 17 0 5 -8 10 -18
10 -10 0 -27 10 -38 23 -11 12 -42 40 -69 62 -77 63 -165 151 -165 164 0 6 -7
14 -15 17 -8 4 -15 12 -15 19 0 7 -7 18 -15 25 -8 7 -15 22 -15 33 0 11 -8 29
-17 39 -14 16 -17 36 -15 106 1 52 7 88 13 91 6 2 19 12 27 22 9 11 24 19 33
19 8 0 29 13 45 30 16 16 36 30 45 30 9 0 22 7 29 15 7 8 19 15 26 15 8 0 22
9 31 20 10 11 29 20 44 20 29 0 55 23 45 39 -4 6 -33 13 -66 17 -33 4 -65 13
-71 20 -6 8 -26 14 -44 14 -19 0 -39 8 -50 20 -10 11 -22 20 -27 20 -16 0
-118 84 -118 97 0 7 -4 13 -9 13 -12 0 -41 58 -41 82 0 10 -7 21 -15 24 -12 5
-15 24 -15 84 0 57 4 81 15 90 9 7 15 29 15 50 0 21 5 40 11 42 6 2 12 19 13
37 1 19 10 37 19 43 9 5 17 16 17 24 0 22 30 64 46 64 8 0 14 6 14 13 0 18 24
67 33 67 4 0 7 6 7 14 0 8 9 18 20 21 22 7 27 41 8 48 -7 2 -21 -3 -31 -11
-15 -14 -59 -17 -270 -20 -224 -4 -254 -2 -266 12 -8 9 -29 16 -51 16 -21 0
-43 6 -49 14 -6 7 -24 16 -40 19 -16 3 -35 12 -43 19 -19 18 -107 78 -115 78
-14 0 -153 155 -153 170 0 10 -7 23 -15 30 -8 7 -15 19 -15 27 0 7 -7 16 -16
20 -11 4 -14 14 -10 33 3 16 -1 35 -9 46 -8 11 -15 33 -15 50 0 27 -15 54 -29
54 -4 0 -24 -16 -46 -35z m-512 -1040 c9 -4 17 -11 17 -16 0 -5 8 -18 18 -28
38 -42 42 -52 42 -94 0 -56 -34 -127 -60 -127 -11 0 -24 -9 -30 -20 -9 -16
-21 -20 -63 -20 -49 0 -56 3 -105 48 -51 47 -52 49 -52 105 0 46 4 58 20 67
11 6 20 15 20 20 0 14 38 50 53 50 6 0 21 7 32 16 19 14 70 14 108 -1z"/>
</g>
</svg>
