<svg xmlns="http://www.w3.org/2000/svg" version="1.1" width="990.000000" height="564.000000" viewBox="0 0 990.000000 564.000000">
<g transform="translate(0.000000,564.000000) scale(0.100000,-0.100000)"
fill="#000000" stroke="none">
<path d="M1815 5428 c-396 -50 -658 -162 -866 -368 -186 -185 -286 -404 -296
-650 -6 -141 2 -186 81 -485 95 -361 105 -404 136 -540 38 -175 49 -221 60
-265 9 -35 42 -193 120 -573 36 -180 39 -201 26 -225 -54 -101 -205 -180 -383
-202 -185 -22 -308 -89 -396 -212 -181 -254 -90 -640 184 -777 97 -48 99 -47
99 59 0 117 21 201 80 326 81 168 237 314 395 368 99 34 114 29 151 -52 67
-146 68 -163 7 -182 -90 -30 -205 -123 -264 -213 -59 -91 -84 -175 -83 -282 2
-223 105 -392 300 -489 103 -51 159 -61 319 -59 172 2 502 20 533 29 20 6 23
11 17 33 -4 14 -9 82 -12 151 -4 108 -1 134 16 189 40 121 102 179 218 200 44
9 194 -2 215 -15 5 -3 -14 -33 -42 -66 -62 -74 -83 -113 -104 -199 -48 -194
28 -412 185 -532 50 -38 146 -82 211 -97 70 -16 260 -9 366 14 100 22 214 60
291 98 l63 31 102 -23 c55 -12 112 -26 126 -30 44 -15 363 -74 590 -110 84
-13 479 -57 625 -69 160 -14 935 -14 1111 -1 71 5 206 14 299 20 94 6 217 15
275 20 200 18 425 41 500 51 41 6 111 14 155 19 167 19 441 57 540 76 114 21
288 65 300 75 5 5 15 9 22 9 25 0 167 72 228 115 107 76 194 184 244 305 13
30 30 63 39 72 8 10 65 48 126 85 61 36 147 93 191 126 114 85 318 295 403
415 39 56 72 104 72 106 0 3 12 22 26 43 48 71 143 278 183 398 79 242 108
445 98 704 -11 286 -51 476 -167 791 -48 131 -147 342 -248 525 -188 342 -250
414 -403 465 -248 84 -514 -70 -570 -331 -25 -118 -1 -210 98 -375 75 -125
150 -295 173 -392 19 -80 22 -111 17 -225 -7 -176 -35 -268 -123 -393 -46 -65
-116 -134 -137 -134 -6 1 -34 33 -62 72 -27 39 -57 79 -65 88 -8 10 -31 38
-50 62 -55 69 -239 250 -316 311 -130 102 -344 230 -463 276 -251 98 -378 132
-631 173 -131 20 -179 22 -505 23 -220 0 -411 -5 -490 -13 -194 -19 -514 -60
-650 -83 -66 -11 -145 -24 -175 -29 -30 -4 -131 -23 -225 -40 -499 -92 -557
-98 -661 -59 -109 41 -212 169 -249 310 -19 70 -19 232 0 339 20 115 19 229
-4 341 -26 125 -45 180 -94 264 -210 365 -546 560 -1059 615 -116 12 -724 11
-823 -2z m-406 -756 c41 -19 88 -82 97 -129 21 -111 -101 -231 -209 -207 -154
33 -206 195 -98 303 60 60 129 71 210 33z m1792 -4 c41 -23 86 -86 95 -136 19
-102 -67 -193 -183 -195 -44 0 -62 5 -95 29 -65 46 -83 77 -82 142 0 68 21
111 69 148 62 47 125 51 196 12z m-868 -207 c52 -23 96 -64 132 -122 67 -106
133 -183 197 -230 113 -82 158 -162 158 -279 0 -85 -61 -175 -151 -225 -48
-27 -63 -30 -139 -30 -69 0 -93 5 -127 23 -58 31 -107 75 -140 127 -15 25 -36
45 -45 45 -9 0 -30 -19 -47 -42 -71 -103 -147 -149 -256 -156 -62 -4 -80 -1
-126 20 -75 34 -111 68 -141 130 -34 71 -40 109 -27 171 21 97 53 143 149 215
35 26 94 92 160 178 85 111 114 142 154 162 88 46 169 50 249 13z"/>
</g>
</svg>
