<?xml version="1.0" encoding="UTF-8"?>
<svg xmlns="http://www.w3.org/2000/svg" viewBox="0 0 498 535" width="24" height="24">
<g transform="translate(0.000000,535.000000) scale(0.100000,-0.100000)" fill="#000000" stroke="none">
<path d="M167 5324 c-30 -9 -62 -30 -87 -55 -76 -79 -70 136 -70 -2464 0
-2531 -3 -2385 54 -2459 14 -19 49 -46 78 -60 l52 -26 1283 0 c706 0 1283 3
1283 6 0 3 -18 36 -40 72 -130 220 -194 456 -193 717 2 371 132 687 395 961
200 207 441 340 728 401 92 19 388 25 508 10 l62 -8 0 581 c0 627 0 622 -53
652 -17 10 -185 14 -752 18 -578 4 -735 8 -756 18 -56 30 -54 -7 -59 824 l-5
768 -28 27 -27 28 -1163 2 c-1001 1 -1169 0 -1210 -13z M2959 5211 l-29 -29 0
-555 0 -555 26 -31 c14 -17 42 -35 62 -41 25 -8 211 -10 569 -8 l531 3 26 24
c30 28 41 75 27 113 -10 27 -1056 1074 -1094 1095 -40 22 -86 16 -118 -16z
M3755 2089 c-89 -13 -218 -55 -315 -104 -285 -144 -484 -406 -550 -725 -28
-137 -24 -339 10 -470 77 -298 283 -546 565 -681 339 -162 725 -134 1039 75
91 61 231 201 290 289 229 348 231 804 4 1149 -226 344 -632 526 -1043 467z
m348 -203 c42 -17 83 -66 97 -114 5 -20 10 -126 10 -234 l0 -198 213 0 c204 0
216 -1 257 -23 73 -38 84 -73 88 -260 3 -145 2 -162 -18 -202 -13 -27 -36 -53
-58 -67 -35 -22 -48 -23 -259 -26 l-223 -4 0 -206 c0 -259 -13 -295 -113 -337
-43 -18 -308 -22 -354 -4 -42 15 -92 68 -103 109 -5 19 -10 126 -10 237 l0
202 -222 3 c-247 3 -265 7 -310 70 -21 30 -23 47 -28 178 -8 212 1 250 74 304
25 20 43 21 257 24 l229 3 0 213 c0 203 1 215 23 257 15 27 38 52 63 66 36 21
52 23 197 23 111 0 167 -4 190 -14z M3750 1780 c-19 -19 -20 -33 -20 -280 l0
-260 -249 0 c-137 0 -261 -4 -274 -9 -37 -14 -45 -53 -39 -198 4 -115 7 -135
24 -150 18 -16 47 -18 279 -21 l259 -3 0 -259 0 -259 26 -20 c24 -19 40 -21
164 -21 124 0 140 2 164 21 l26 20 0 260 0 259 254 0 c329 0 306 -14 306 186
0 141 -1 146 -25 169 l-24 25 -256 0 -255 0 0 254 c0 241 -1 255 -21 280 l-20
26 -150 0 c-136 0 -151 -2 -169 -20z"/>
</g>
</svg>