<svg xmlns="http://www.w3.org/2000/svg" version="1.1" width="787.000000" height="672.000000" viewBox="0 0 787.000000 672.000000">
<g transform="translate(0.000000,672.000000) scale(0.100000,-0.100000)"
fill="#000000" stroke="none">
<path d="M2175 6514 c-66 -9 -174 -38 -250 -66 -75 -28 -226 -112 -233 -130
-2 -4 -8 -8 -14 -8 -11 0 -152 -140 -213 -212 -22 -25 -60 -76 -85 -112 -25
-36 -48 -65 -52 -66 -4 0 -14 -7 -23 -16 -31 -32 -259 -99 -455 -134 -187 -34
-232 -58 -289 -156 -21 -35 -23 -49 -22 -189 1 -82 6 -168 12 -190 6 -22 13
-51 16 -65 2 -14 11 -38 18 -55 7 -16 16 -42 20 -57 4 -15 13 -32 21 -39 8 -6
14 -17 14 -23 0 -31 183 -246 210 -246 3 0 21 -13 40 -30 18 -16 42 -32 52
-36 10 -3 18 -10 18 -15 0 -5 4 -9 10 -9 8 0 57 -28 135 -78 11 -6 29 -16 40
-21 21 -10 143 -100 191 -141 68 -59 121 -159 134 -247 8 -62 -4 -207 -20
-235 -5 -9 -13 -36 -16 -60 -4 -24 -11 -51 -16 -61 -9 -17 -53 -179 -65 -237
-2 -14 -11 -45 -18 -70 -7 -25 -16 -66 -20 -92 -3 -26 -10 -50 -16 -53 -5 -4
-9 -19 -9 -35 0 -16 -5 -41 -12 -57 -12 -31 -21 -87 -39 -238 -16 -146 -6
-634 16 -745 19 -99 43 -188 55 -211 5 -9 12 -34 16 -54 4 -21 13 -50 20 -64
8 -14 14 -31 14 -36 0 -6 9 -28 20 -50 22 -43 24 -86 9 -155 -6 -25 -14 -63
-18 -85 -9 -43 -37 -118 -64 -175 -20 -41 -91 -120 -108 -120 -7 0 -20 -6 -28
-14 -17 -14 -121 -39 -236 -55 -192 -28 -376 -64 -406 -81 -9 -5 -34 -12 -55
-16 -22 -4 -48 -13 -59 -20 -11 -8 -26 -14 -34 -14 -26 0 -119 -69 -150 -112
-52 -70 -39 -123 38 -157 50 -21 56 -21 658 -22 363 0 638 4 683 10 198 28
368 118 478 255 14 18 19 17 137 -39 93 -44 215 -90 320 -121 33 -9 65 -20 70
-24 6 -4 33 -12 60 -18 28 -6 73 -17 100 -23 28 -7 75 -15 105 -19 30 -4 82
-13 115 -18 33 -6 107 -16 165 -22 86 -8 106 -8 118 4 11 10 11 19 3 34 -6 11
-20 58 -31 104 -12 45 -25 99 -30 118 -5 19 -18 73 -29 120 -11 47 -27 117
-36 155 -9 39 -19 81 -21 95 -11 61 -36 189 -44 228 -6 23 -10 58 -10 77 0 20
-4 43 -9 53 -11 22 -41 189 -41 231 0 18 5 41 10 52 12 21 52 26 68 6 20 -24
52 -160 72 -307 6 -41 17 -102 25 -135 7 -33 16 -78 20 -100 13 -92 24 -153
35 -200 6 -27 18 -84 27 -125 17 -85 51 -215 63 -245 4 -11 22 -63 38 -115 71
-222 203 -405 370 -514 121 -78 290 -138 447 -156 144 -16 1541 -9 1594 8 19
6 47 26 62 44 26 30 27 38 22 93 -8 74 -31 120 -91 182 -68 70 -91 86 -202
144 -60 31 -303 145 -340 159 -19 7 -47 22 -62 32 -14 10 -33 18 -42 18 -9 0
-16 5 -16 10 0 6 -6 10 -13 10 -7 0 -40 14 -75 30 -64 32 -79 56 -39 64 163
31 336 73 433 104 33 11 88 27 124 37 36 9 81 23 100 30 76 27 107 37 160 51
30 8 59 19 65 25 5 5 18 9 30 9 11 0 32 6 47 14 15 8 41 17 59 21 19 4 40 11
49 15 8 5 53 23 100 40 84 31 180 73 210 90 8 5 65 34 125 65 134 68 218 115
225 125 3 4 14 10 26 14 11 3 29 14 40 24 10 9 33 24 49 32 17 8 32 17 35 20
13 13 70 50 77 50 4 0 22 13 38 28 17 15 44 37 61 47 63 39 150 103 183 134
18 17 79 73 135 123 55 50 108 101 116 113 8 12 25 32 38 46 44 45 112 157
112 182 0 14 4 28 9 32 20 12 24 93 6 139 -28 74 -52 89 -148 94 -61 3 -92 0
-121 -12 -21 -9 -47 -16 -58 -16 -11 0 -32 -6 -46 -14 -48 -26 -144 -66 -158
-66 -21 0 -56 77 -65 145 -5 33 -12 80 -15 105 -4 25 -13 54 -20 65 -6 11 -15
35 -19 53 -4 17 -10 32 -15 32 -5 0 -17 13 -26 29 -24 41 -83 72 -118 63 -30
-8 -116 -88 -116 -108 0 -7 -4 -14 -9 -16 -10 -4 -58 -106 -67 -145 -4 -16
-10 -32 -14 -38 -4 -5 -18 -41 -30 -80 -23 -72 -44 -128 -60 -156 -5 -9 -12
-33 -15 -53 -4 -20 -11 -36 -15 -36 -5 0 -11 -13 -15 -30 -8 -36 -42 -109 -62
-132 -11 -12 -24 -15 -51 -11 -21 3 -39 9 -42 13 -3 4 -44 21 -91 38 -48 17
-107 40 -133 51 -25 12 -66 30 -91 41 -25 11 -49 20 -55 20 -5 0 -10 5 -10 10
0 6 -5 10 -12 10 -6 0 -91 39 -187 86 -300 146 -422 208 -598 305 -28 16 -73
41 -100 55 -26 15 -63 34 -80 43 -18 8 -33 19 -33 23 0 4 -5 8 -12 8 -10 0
-110 55 -167 92 -14 10 -38 24 -53 33 -16 9 -28 20 -28 25 0 6 -5 10 -11 10
-12 0 -170 114 -229 165 -19 16 -75 71 -126 120 -246 243 -328 417 -390 830
-27 172 -34 227 -44 328 -5 54 -11 101 -14 105 -3 5 -7 46 -11 92 -3 47 -10
119 -15 160 -11 82 -27 227 -41 360 -5 47 -13 112 -19 145 -5 33 -13 85 -18
115 -17 106 -66 252 -113 339 -29 52 -66 110 -79 121 -3 3 -17 21 -31 40 -75
99 -215 219 -334 286 -85 48 -122 65 -205 92 -215 69 -190 66 -515 68 -165 1
-313 0 -330 -2z m2282 -4616 c12 -17 27 -68 48 -158 20 -88 81 -220 130 -285
52 -68 45 -123 -14 -110 -33 7 -91 58 -91 80 0 7 -7 19 -16 26 -9 7 -27 38
-41 69 -13 30 -31 69 -39 85 -24 50 -47 146 -52 214 -3 54 -1 67 14 78 23 16
49 17 61 1z"/>
</g>
</svg>
