<?xml version="1.0" standalone="no"?>
<!DOCTYPE svg PUBLIC "-//W3C//DTD SVG 20010904//EN"
 "http://www.w3.org/TR/2001/REC-SVG-20010904/DTD/svg10.dtd">
<svg version="1.0" xmlns="http://www.w3.org/2000/svg"
 width="779.000000pt" height="658.000000pt" viewBox="0 0 779.000000 658.000000"
 preserveAspectRatio="xMidYMid meet">
<metadata>
Created by potrace 1.16, written by Peter Selinger 2001-2019
</metadata>
<g transform="translate(0.000000,658.000000) scale(0.100000,-0.100000)"
fill="#000000" stroke="none">
<path d="M3315 6371 c-37 -16 -118 -96 -176 -174 -49 -65 -148 -227 -251 -407
-71 -124 -140 -277 -173 -385 -47 -150 -91 -244 -171 -365 -116 -175 -347
-414 -615 -635 -13 -11 -90 -74 -169 -140 -80 -67 -206 -170 -280 -230 -74
-60 -137 -111 -140 -114 -3 -4 -32 -28 -65 -56 -33 -27 -62 -52 -65 -55 -3 -3
-59 -53 -125 -110 -493 -430 -784 -769 -866 -1009 -39 -111 -16 -231 46 -247
51 -13 161 4 325 49 521 142 955 166 1580 86 567 -72 835 -185 1111 -466 127
-130 166 -155 339 -213 164 -55 165 -58 164 -345 0 -251 -15 -356 -69 -522
-98 -294 -268 -505 -511 -630 -166 -86 -353 -131 -581 -140 -140 -5 -182 -14
-135 -26 135 -38 341 -43 482 -13 271 58 490 197 667 423 203 261 309 562 343
983 14 170 17 184 45 213 14 13 67 39 117 57 169 60 213 89 392 258 65 62 149
132 186 157 222 148 498 222 1050 282 208 23 771 26 920 5 147 -21 414 -78
546 -118 66 -20 153 -38 195 -41 73 -5 77 -5 108 23 116 103 11 361 -278 684
-286 320 -684 676 -1384 1237 -145 117 -225 185 -316 269 -31 28 -70 64 -88
78 -45 38 -149 164 -225 276 -79 114 -174 309 -217 442 -37 116 -99 264 -179
426 -51 103 -84 158 -180 300 -41 60 -152 163 -197 183 -32 14 -50 17 -68 10
-87 -33 -75 -158 38 -381 80 -160 105 -233 105 -310 0 -115 -57 -195 -164
-230 -44 -14 -174 -10 -373 11 -103 11 -145 11 -270 -2 -81 -7 -191 -14 -244
-14 -89 0 -99 2 -145 30 -63 40 -95 95 -102 181 -6 82 12 148 84 299 72 152
93 214 100 300 6 65 5 72 -19 98 -27 28 -62 34 -102 18z"/>
</g>
</svg>
