<svg xmlns="http://www.w3.org/2000/svg" version="1.1" width="864.000000" height="424.000000" viewBox="0 0 864.000000 424.000000">
<g transform="translate(0.000000,424.000000) scale(0.100000,-0.100000)"
fill="#000000" stroke="none">
<path d="M3720 4022 c-36 -29 -31 -91 15 -222 138 -391 197 -637 197 -820 0
-182 -43 -288 -136 -329 -66 -29 -374 -92 -586 -121 -47 -6 -114 -15 -150 -20
-436 -58 -932 -65 -1485 -19 -185 15 -203 22 -227 84 -10 28 -23 59 -28 70 -5
11 -21 49 -35 84 -111 270 -321 582 -528 784 -133 130 -232 187 -326 187 -49
0 -57 -3 -87 -36 -59 -62 -57 -71 73 -514 13 -47 33 -116 43 -155 10 -38 25
-92 33 -120 36 -122 88 -329 108 -434 18 -97 21 -135 16 -260 -10 -260 -73
-449 -305 -915 -97 -195 -113 -233 -108 -261 5 -27 12 -34 39 -39 83 -15 348
112 537 258 160 124 388 336 460 428 l21 27 67 -32 c37 -18 69 -35 70 -39 2
-5 8 -8 13 -8 5 0 74 -32 153 -70 79 -38 147 -70 150 -70 4 0 43 -17 89 -39
45 -21 114 -51 152 -66 39 -15 84 -33 100 -40 17 -7 68 -28 115 -45 47 -18 94
-36 105 -41 69 -30 579 -195 635 -206 14 -2 34 -8 45 -13 11 -5 31 -11 45 -14
14 -3 52 -11 85 -20 248 -61 434 -101 515 -110 110 -14 160 -27 160 -43 0 -13
-201 -221 -260 -268 -14 -11 -73 -58 -133 -103 -113 -88 -142 -125 -131 -167
12 -49 118 -72 384 -82 143 -5 350 11 481 38 67 14 125 26 164 34 66 15 224
63 305 94 212 82 426 195 583 308 l88 63 83 0 c45 0 121 5 167 10 46 6 125 15
174 21 215 25 540 86 775 146 199 51 233 59 275 69 17 4 35 10 40 14 6 4 33
13 60 20 28 7 54 17 59 21 6 5 20 9 32 9 13 0 26 5 29 10 3 6 16 10 29 10 12
0 26 4 31 9 6 5 30 16 55 24 51 17 125 44 155 57 11 5 49 21 85 36 36 14 84
35 107 45 23 10 45 19 48 19 7 0 304 148 360 179 144 82 257 157 375 252 261
208 316 348 202 518 -99 148 -423 344 -817 492 -596 225 -1206 328 -1879 317
l-276 -4 -63 75 c-246 300 -466 484 -815 682 -57 33 -105 59 -107 59 -2 0 -32
13 -68 30 -167 77 -435 161 -561 176 -42 5 -55 3 -76 -14z"/>
</g>
</svg>
