<?xml version="1.0" encoding="UTF-8"?>
<svg xmlns="http://www.w3.org/2000/svg" viewBox="0 0 588 734" width="24" height="24">
  <g transform="translate(0,734) scale(0.1,-0.1)" fill="#000000" stroke="none">
        <path d="M2812 6999 c-127 -19 -283 -90 -413 -185 -92 -69 -111 -73 -261 -61
-106 9 -143 8 -227 -6 -282 -46 -495 -207 -638 -482 -23 -44 -52 -90 -65 -102
-13 -12 -64 -39 -114 -61 -231 -99 -357 -210 -449 -397 -60 -120 -74 -182 -85
-363 -11 -169 -13 -176 -88 -269 -171 -212 -236 -458 -186 -700 34 -165 89
-240 410 -553 310 -302 798 -703 926 -759 52 -24 178 -45 190 -33 5 5 10 24
13 43 8 63 66 241 101 310 54 107 95 167 179 257 180 192 396 312 625 347 180
28 426 12 558 -36 31 -11 68 -24 82 -28 14 -5 50 -21 80 -36 183 -93 373 -281
484 -479 46 -82 106 -253 111 -316 2 -25 4 -49 4 -54 1 -4 36 -7 79 -5 102 5
147 28 342 175 348 262 725 604 993 902 109 121 154 263 144 462 -3 63 -13
142 -22 175 -25 89 -87 211 -150 290 -101 129 -104 137 -110 266 -13 263 -51
384 -173 542 -80 105 -231 208 -404 277 -69 27 -101 61 -159 169 -57 107 -152
227 -231 291 -87 70 -224 135 -328 156 -68 13 -120 16 -262 12 -200 -6 -189
-9 -318 86 -80 59 -202 119 -300 146 -88 24 -248 33 -338 19z"/>
    <path d="M2754 3705 c-296 -65 -551 -306 -636 -602 -20 -67 -23 -101 -23 -238
1 -153 2 -164 33 -255 91 -273 298 -472 577 -556 79 -24 107 -27 230 -27 113
0 155 4 220 22 433 117 704 547 621 983 -64 334 -329 604 -658 672 -93 19
-278 20 -364 1z m361 -140 c85 -22 211 -87 275 -142 172 -147 260 -333 260
-547 0 -125 -21 -215 -75 -323 -123 -244 -366 -393 -642 -393 -177 0 -345 67
-476 190 -154 144 -228 316 -228 529 1 347 248 637 599 701 64 12 214 4 287
-15z"/>
    <path d="M2660 3373 c-87 -49 -189 -152 -229 -231 -39 -77 -38 -116 1 -145 45
-33 76 -16 118 67 44 86 114 157 191 196 85 43 98 91 37 134 -32 23 -45 20
-118 -21z"/>
    <path d="M1504 2811 c-464 -242 -1003 -581 -1140 -716 -97 -97 -114 -156 -70
-250 59 -128 263 -246 531 -309 229 -55 241 -61 319 -170 169 -237 416 -326
858 -309 l156 6 119 -56 c229 -108 403 -155 609 -164 242 -11 474 44 717 169
l82 43 230 2 c320 3 439 23 585 99 86 45 154 105 240 214 38 49 82 96 98 104
32 16 114 40 197 56 169 34 379 129 470 212 92 84 118 150 95 238 -17 67 -121
162 -335 306 -259 174 -724 448 -940 554 l-100 49 -75 -12 -75 -13 -3 -34
c-22 -296 -137 -555 -337 -756 -215 -218 -483 -326 -805 -326 -346 0 -641 143
-876 424 -144 172 -231 384 -241 584 l-6 112 -56 6 c-30 4 -64 9 -76 11 -12 3
-76 -24 -171 -74z"/>
    <path d="M325 1570 c16 -55 80 -169 133 -239 102 -134 249 -232 453 -302 l94
-32 120 -122 c169 -172 294 -249 488 -300 127 -33 257 -46 422 -43 l140 3 100
-46 c213 -98 378 -138 610 -146 261 -9 465 32 698 139 l112 52 190 2 c255 4
371 23 523 87 128 54 217 119 342 249 l116 119 109 40 c214 78 354 173 453
308 52 69 140 236 130 246 -2 2 -24 -10 -48 -27 -108 -73 -241 -124 -458 -178
l-133 -33 -47 -56 c-141 -169 -274 -270 -425 -322 -131 -45 -245 -59 -488 -59
l-216 0 -114 -54 c-126 -60 -296 -117 -428 -143 -130 -27 -413 -24 -546 5
-139 30 -270 75 -403 138 l-113 53 -212 -1 c-240 -1 -354 14 -497 64 -158 55
-281 145 -397 290 -29 37 -64 73 -76 80 -12 6 -80 26 -152 44 -198 48 -353
112 -464 191 -23 17 -24 17 -16 -7z"/>
  </g>
</svg>