<?xml version="1.0" encoding="UTF-8"?>
<svg xmlns="http://www.w3.org/2000/svg" viewBox="0 0 1024 1024" width="24" height="24">
  <g transform="translate(0,1024) scale(0.1,-0.1)" fill="#000000" stroke="none">
        <path d="M3285 7783 c-400 -54 -720 -341 -827 -741 -15 -56 -22 -121 -25 -240
l-6 -162 329 2 328 3 84 185 c126 277 423 933 429 948 4 9 -27 12 -138 11 -79
-1 -157 -4 -174 -6z"/>
    <path d="M3793 7773 c-12 -35 -162 -372 -273 -613 -125 -274 -230 -508 -230
-515 0 -3 293 -5 650 -5 l650 0 -2 573 -3 572 -393 3 c-367 2 -393 1 -399 -15z"/>
    <path d="M4770 7215 l0 -575 350 0 350 0 0 575 0 575 -350 0 -350 0 0 -575z"/>
    <path d="M5658 7783 c-2 -5 -2 -263 0 -575 l2 -568 646 0 645 0 -7 23 c-4 12
-92 209 -196 437 -104 228 -217 477 -250 553 l-61 137 -388 0 c-213 0 -389 -3
-391 -7z"/>
    <path d="M6642 7779 c3 -8 42 -93 86 -189 45 -96 160 -348 256 -560 l175 -385
327 -3 327 -2 -6 167 c-6 179 -18 244 -68 367 -64 158 -185 317 -318 418 -83
63 -242 141 -346 169 -102 27 -442 41 -433 18z"/>
    <path d="M2470 6441 c0 -8 466 -654 656 -908 l84 -113 1910 0 1909 0 44 58
c89 116 688 944 694 958 4 12 -337 14 -2646 14 -1543 0 -2651 -4 -2651 -9z"/>
    <path d="M2432 3718 l3 -1273 425 0 425 0 3 1273 2 1272 -430 0 -430 0 2
-1272z"/>
    <path d="M3479 4573 c-1 -230 -2 -803 -3 -1273 l-1 -855 555 0 555 0 0 1270 0
1270 -552 3 -553 2 -1 -417z"/>
    <path d="M4772 3718 l3 -1273 345 0 345 0 3 1273 2 1272 -350 0 -350 0 2
-1272z"/>
    <path d="M5660 3715 l0 -1275 549 0 c491 0 549 2 555 16 8 21 8 2279 -1 2422
l-6 112 -549 0 -548 0 0 -1275z"/>
    <path d="M6952 3718 l3 -1273 425 0 425 0 3 1273 2 1272 -430 0 -430 0 2
-1272z"/>
  </g>
</svg>