<?xml version="1.0" standalone="no"?>
<!DOCTYPE svg PUBLIC "-//W3C//DTD SVG 20010904//EN"
 "http://www.w3.org/TR/2001/REC-SVG-20010904/DTD/svg10.dtd">
<svg version="1.0" xmlns="http://www.w3.org/2000/svg"
 width="624.000000pt" height="524.000000pt" viewBox="0 0 624.000000 524.000000"
 preserveAspectRatio="xMidYMid meet">
<metadata>
Created by potrace 1.16, written by Peter Selinger 2001-2019
</metadata>
<g transform="translate(0.000000,524.000000) scale(0.100000,-0.100000)"
fill="#000000" stroke="none">
<path d="M2720 5034 c-282 -22 -315 -30 -364 -82 -23 -25 -31 -47 -41 -111 -8
-47 -10 -95 -5 -118 4 -21 13 -72 21 -113 7 -41 21 -97 32 -125 10 -27 31 -84
46 -125 15 -41 32 -85 39 -97 7 -12 12 -28 12 -37 0 -8 -53 -46 -122 -87 -68
-40 -132 -80 -143 -90 -11 -9 -25 -18 -31 -20 -11 -4 -88 -67 -144 -119 -112
-104 -166 -158 -207 -208 -25 -31 -52 -61 -58 -67 -6 -5 -43 -57 -81 -115 -38
-58 -72 -107 -75 -110 -3 -3 -21 -34 -40 -70 -19 -36 -36 -67 -39 -70 -7 -6
-49 -94 -79 -165 -36 -85 -73 -198 -78 -238 -3 -21 -12 -41 -20 -44 -8 -3 -51
13 -96 37 -45 23 -136 70 -202 104 -467 241 -503 258 -584 264 -56 4 -74 1
-111 -18 -73 -37 -98 -60 -120 -112 -21 -49 -21 -57 -20 -736 0 -378 3 -712 7
-742 11 -99 77 -177 176 -209 37 -13 104 -8 137 10 8 4 51 24 95 45 166 76
505 241 575 279 25 14 50 25 57 25 7 0 13 4 13 8 0 5 16 16 36 25 47 23 58 13
84 -72 70 -228 249 -555 379 -692 9 -10 31 -35 49 -56 64 -79 245 -249 342
-323 25 -19 47 -38 48 -42 2 -5 9 -8 15 -8 6 0 19 -7 29 -17 10 -9 27 -21 37
-27 11 -6 48 -27 83 -47 167 -95 284 -147 483 -212 350 -115 730 -134 1145
-57 58 11 130 27 160 36 30 9 69 20 85 24 35 10 111 37 140 49 11 5 61 26 110
47 50 21 97 44 106 51 8 7 20 13 26 13 5 0 32 14 59 32 27 17 74 47 104 67 30
19 64 43 74 53 11 10 23 18 28 18 4 0 16 7 26 15 9 9 44 37 77 64 60 47 216
199 265 257 79 93 198 259 222 309 5 11 20 38 33 60 31 50 95 183 130 270 25
62 75 214 75 229 0 19 23 26 84 26 29 0 76 7 104 15 43 13 55 22 75 58 43 74
52 150 52 422 0 246 -1 251 -24 290 -47 77 -62 85 -170 85 l-97 0 -23 78 c-13
42 -30 97 -38 122 -8 25 -18 59 -23 75 -17 58 -75 200 -87 213 -6 6 -15 22
-19 35 -4 12 -22 46 -40 75 -19 29 -34 56 -34 60 0 4 -18 33 -40 65 -22 31
-40 61 -40 65 0 4 -8 15 -17 24 -10 9 -23 23 -28 30 -6 7 -26 33 -44 58 -63
83 -295 306 -391 376 -127 94 -355 226 -460 268 -25 10 -58 24 -75 31 -58 25
-191 63 -315 89 -69 15 -143 31 -165 36 -22 5 -61 12 -87 15 l-47 6 -78 115
c-43 64 -83 125 -90 137 -20 36 -181 218 -221 249 -90 72 -91 72 -367 74 -137
0 -270 0 -295 -2z m1958 -1640 c107 -29 161 -65 233 -154 49 -60 59 -81 80
-168 23 -92 24 -137 3 -210 -25 -87 -49 -127 -117 -196 -59 -59 -122 -98 -206
-125 -48 -16 -169 -14 -227 4 -147 43 -276 191 -305 348 -13 75 9 214 46 288
88 174 302 266 493 213z m-1553 -552 c32 -11 90 -34 140 -57 17 -7 53 -23 81
-34 28 -11 73 -29 100 -41 27 -12 67 -30 89 -40 195 -85 232 -114 242 -189 12
-89 -63 -157 -157 -142 -25 4 -54 12 -65 18 -44 24 -134 63 -145 63 -5 0 -18
4 -28 9 -16 9 -140 63 -187 81 -11 5 -40 17 -65 28 -94 41 -113 45 -179 43
-45 -1 -105 -61 -121 -119 -8 -31 -10 -178 -8 -500 3 -409 5 -460 20 -488 39
-72 121 -107 197 -83 20 6 77 30 126 54 148 70 225 105 233 105 5 0 22 6 38
14 16 8 47 21 69 31 22 9 53 23 68 31 66 33 162 5 187 -56 25 -60 14 -116 -32
-170 -15 -17 -169 -94 -268 -135 -36 -14 -74 -30 -85 -35 -11 -5 -31 -14 -45
-20 -14 -5 -32 -14 -40 -20 -21 -13 -98 -45 -145 -60 -22 -7 -50 -16 -63 -21
-40 -16 -157 -10 -223 11 -102 31 -220 134 -265 229 -42 87 -44 117 -44 646
-1 415 2 518 13 550 28 78 68 150 100 182 54 54 63 61 108 83 24 12 53 27 64
33 45 24 213 24 290 -1z"/>
<path d="M4523 3123 c-33 -6 -91 -69 -104 -112 -16 -54 -5 -101 33 -140 39
-40 66 -51 122 -51 48 0 96 27 130 73 29 39 29 125 0 164 -42 56 -108 80 -181
66z"/>
</g>
</svg>
