<?xml version="1.0" encoding="UTF-8"?>
<svg xmlns="http://www.w3.org/2000/svg" viewBox="0 0 447 385" width="24" height="24">
  <g transform="translate(0,385) scale(0.1,-0.1)" fill="#000000" stroke="none">
        <path d="M3822 3654 c-144 -26 -218 -58 -332 -142 -74 -54 -290 -265 -290
-282 0 -5 25 -37 55 -71 33 -37 59 -78 67 -103 6 -22 14 -115 17 -206 l6 -165
57 1 c84 2 233 78 358 182 52 43 106 92 119 108 77 91 178 202 270 296 89 91
104 111 103 138 -1 42 -45 114 -106 176 -82 82 -161 98 -324 68z m57 -122 c23
-11 40 -29 53 -59 17 -39 17 -45 4 -72 -17 -31 -70 -63 -135 -81 -60 -16 -68
-3 -22 36 75 64 64 104 -28 104 -38 0 -73 -8 -108 -25 -34 -15 -55 -20 -59
-13 -16 25 84 113 147 128 42 10 103 3 148 -18z"/>
    <path d="M1933 3203 c-17 -2 -37 -10 -43 -18 -18 -22 6 -92 49 -137 36 -40 39
-41 127 -48 127 -11 698 -23 723 -15 30 9 28 67 -5 133 -30 60 -11 54 -265 77
-157 13 -503 18 -586 8z"/>
    <path d="M1662 3139 c-82 -21 -227 -80 -284 -116 -21 -13 -40 -23 -43 -23 -13
0 -206 -134 -244 -169 -37 -35 -40 -40 -32 -69 15 -52 102 -209 136 -246 17
-19 45 -38 61 -42 34 -9 341 12 396 27 54 14 76 51 141 232 78 217 78 214 25
316 -57 111 -64 114 -156 90z"/>
    <path d="M2911 3126 c-11 -13 -9 -31 9 -108 32 -131 38 -351 16 -487 -52 -307
-148 -478 -440 -780 -73 -75 -247 -211 -270 -211 -3 0 -36 -19 -73 -42 -38
-23 -110 -61 -160 -85 -151 -71 -217 -92 -413 -133 -410 -87 -833 -56 -1173
86 -154 64 -162 65 -183 20 -44 -90 53 -204 228 -270 328 -124 780 -139 1233
-41 279 60 421 103 570 175 87 42 230 129 245 150 3 3 59 47 125 97 66 49 126
97 134 106 35 43 121 -13 121 -79 0 -71 -146 -310 -275 -450 -5 -6 -55 -60
-110 -120 -55 -60 -149 -159 -209 -222 -175 -180 -197 -228 -124 -267 34 -18
42 -18 130 -6 119 17 365 79 492 125 238 87 411 202 606 402 133 137 189 212
260 350 63 123 84 222 78 369 -6 117 -28 186 -85 256 -54 67 -113 103 -233
145 -99 34 -206 89 -260 132 l-23 19 26 164 c34 212 41 320 28 449 -17 171
-34 205 -117 245 -53 25 -136 31 -153 11z"/>
    <path d="M2045 2905 c-5 -2 -22 -6 -37 -9 -15 -4 -38 -18 -52 -33 -42 -45
-136 -314 -136 -388 1 -45 32 -106 108 -208 38 -51 120 -162 182 -247 155
-210 211 -280 226 -280 17 0 176 170 245 263 156 209 234 404 259 650 16 149
8 204 -28 219 -15 6 -148 14 -297 19 -148 4 -313 10 -365 12 -52 2 -99 3 -105
2z"/>
    <path d="M864 2648 c-102 -92 -183 -182 -241 -268 -52 -77 -125 -219 -121
-237 4 -24 55 -32 199 -32 185 -1 219 15 318 151 59 81 91 146 91 182 0 19
-22 70 -55 131 -54 98 -84 135 -110 135 -7 0 -44 -28 -81 -62z"/>
    <path d="M1370 2385 c-159 -21 -184 -35 -259 -144 -112 -165 -115 -172 -107
-259 9 -106 134 -577 168 -631 11 -18 22 -21 76 -21 121 0 424 61 572 116 86
32 245 108 338 162 49 28 62 41 62 60 0 14 -32 69 -77 130 -42 59 -115 163
-162 232 -182 268 -232 327 -304 358 -35 15 -182 14 -307 -3z"/>
    <path d="M435 2004 c-26 -27 -52 -94 -96 -249 -50 -178 -50 -195 -1 -235 51
-42 160 -94 262 -123 164 -48 460 -85 460 -58 0 4 -38 149 -85 322 -65 237
-91 318 -106 332 -18 15 -44 17 -189 17 -92 0 -181 3 -197 6 -21 4 -35 1 -48
-12z"/>
    <path d="M600 903 c-29 -37 -56 -102 -69 -165 -9 -42 -8 -71 5 -143 8 -50 24
-139 33 -198 20 -123 36 -151 101 -184 34 -18 61 -23 117 -23 110 0 194 41
323 156 149 133 197 224 207 398 7 122 4 126 -107 126 -116 0 -318 18 -443 40
-142 25 -142 25 -167 -7z"/>
  </g>
</svg>