<?xml version="1.0" encoding="UTF-8"?>
<svg xmlns="http://www.w3.org/2000/svg" viewBox="0 0 1024 1024" width="24" height="24">
  <g transform="translate(0,1024) scale(0.1,-0.1)" fill="#000000" stroke="none">
        <path d="M5190 6743 c-435 -42 -715 -117 -1067 -284 -68 -31 -123 -59 -123
-61 0 -2 125 -3 277 -3 287 -1 451 -11 683 -46 133 -19 460 -82 492 -94 11 -5
72 55 224 219 115 124 210 230 212 235 9 27 -512 53 -698 34z"/>
    <path d="M4020 6208 c-339 -32 -598 -187 -975 -584 -159 -168 -232 -229 -395
-331 -126 -78 -152 -101 -169 -152 -22 -66 -23 -65 159 -156 94 -47 170 -89
170 -94 0 -6 -55 -43 -122 -84 -186 -111 -198 -120 -198 -142 0 -33 47 -92 98
-122 40 -24 58 -28 122 -28 l75 0 95 -74 c180 -140 382 -259 556 -326 l71 -27
41 21 c74 38 237 168 320 255 239 253 355 571 308 844 -30 172 -62 236 -284
563 -57 84 -102 159 -100 167 2 9 34 29 72 46 l69 30 18 -24 c239 -326 280
-391 335 -521 67 -159 94 -331 75 -485 -42 -345 -221 -650 -529 -898 -51 -41
-69 -62 -60 -67 7 -4 72 -15 143 -25 203 -29 723 -27 975 4 475 59 826 139
1225 278 531 186 884 406 989 614 136 273 -48 523 -579 785 -399 197 -882 362
-1315 449 -413 82 -870 115 -1190 84z m712 -572 c36 -8 99 -30 140 -49 84 -38
486 -263 507 -282 12 -11 -6 -46 -114 -222 -265 -431 -314 -497 -397 -539 -97
-49 -238 -67 -350 -43 -93 20 -92 17 -50 110 l37 80 34 -6 c72 -14 169 -6 228
17 l58 23 102 160 c193 300 218 344 202 359 -21 20 -285 159 -365 192 -57 23
-83 28 -149 28 -44 -1 -88 -3 -98 -5 -15 -3 -24 11 -48 75 -16 44 -27 82 -24
84 11 11 114 30 165 31 30 0 85 -6 122 -13z m-1227 -100 c194 -90 216 -363 38
-484 -181 -122 -415 -9 -431 207 -8 124 49 229 152 277 71 33 171 33 241 0z"/>
    <path d="M3337 5369 c-23 -13 -47 -62 -47 -94 0 -40 50 -85 93 -85 54 0 97 41
97 92 0 73 -81 123 -143 87z"/>
    <path d="M8355 6164 c-468 -102 -846 -303 -1147 -610 l-67 -69 50 -65 c95
-121 133 -224 132 -360 0 -145 -56 -285 -160 -399 l-55 -61 28 -38 c47 -63
205 -214 296 -282 246 -185 538 -318 867 -396 58 -14 137 -28 175 -31 l69 -6
-30 44 c-157 230 -753 1120 -753 1124 0 8 680 1036 727 1098 23 31 43 62 43
67 0 15 -55 10 -175 -16z"/>
    <path d="M1805 6103 c-46 -24 -66 -45 -86 -88 -47 -101 -1 -216 103 -260 49
-20 94 -19 143 4 147 66 155 267 15 342 -43 23 -133 24 -175 2z"/>
    <path d="M2128 5614 c-32 -10 -58 -27 -82 -56 -124 -144 20 -367 198 -308 177
58 181 303 7 365 -52 18 -62 18 -123 -1z"/>
    <path d="M5040 3834 c-138 -19 -414 -44 -495 -45 -39 -1 -81 -4 -94 -8 -23 -6
-22 -8 25 -47 201 -168 541 -327 819 -383 125 -25 278 -44 329 -39 l39 3 -134
151 c-74 83 -180 203 -237 267 -116 131 -95 123 -252 101z"/>
  </g>
</svg>