<?xml version="1.0" standalone="no"?>
<!DOCTYPE svg PUBLIC "-//W3C//DTD SVG 20010904//EN"
 "http://www.w3.org/TR/2001/REC-SVG-20010904/DTD/svg10.dtd">
<svg version="1.0" xmlns="http://www.w3.org/2000/svg"
 width="759.000000pt" height="626.000000pt" viewBox="0 0 759.000000 626.000000"
 preserveAspectRatio="xMidYMid meet">
<metadata>
Created by potrace 1.16, written by Peter Selinger 2001-2019
</metadata>
<g transform="translate(0.000000,626.000000) scale(0.100000,-0.100000)"
fill="#000000" stroke="none">
<path d="M726 6052 c-2 -4 26 -39 63 -77 36 -39 91 -99 121 -135 30 -36 57
-67 60 -70 3 -3 34 -39 70 -80 78 -90 127 -145 200 -224 63 -68 66 -71 255
-271 77 -81 141 -153 143 -160 5 -20 -137 -28 -386 -22 -185 4 -232 9 -322 30
-216 52 -388 132 -524 244 -16 13 -34 23 -41 21 -7 -2 -48 -36 -91 -77 l-77
-74 29 -24 c49 -40 185 -133 195 -133 5 0 9 -4 9 -8 0 -11 197 -104 275 -130
297 -100 619 -117 1040 -56 55 8 109 14 120 14 11 0 40 -20 65 -43 64 -62 240
-211 345 -293 150 -118 290 -209 509 -332 276 -156 569 -264 836 -307 140 -22
434 -20 575 4 495 86 932 338 1146 662 93 141 121 217 134 365 9 106 -5 176
-60 289 -52 109 -129 197 -229 264 -70 46 -120 70 -231 110 -60 21 -283 60
-465 81 -468 54 -442 50 -680 90 -202 34 -337 60 -465 90 -126 30 -356 94
-390 109 -11 5 -65 25 -119 46 l-99 38 -141 -12 c-426 -35 -750 -40 -1116 -16
-313 21 -431 35 -640 75 -123 23 -108 22 -114 12z m1686 -302 c63 -18 120 -69
145 -130 40 -98 24 -188 -47 -258 -52 -52 -87 -66 -165 -66 -78 0 -112 13
-163 65 -103 105 -90 265 30 358 48 37 132 49 200 31z"/>
<path d="M5739 5155 c-3 -2 -1 -44 5 -92 26 -245 -84 -543 -281 -765 -105
-117 -236 -235 -338 -303 -33 -22 -62 -43 -65 -46 -18 -21 -277 -157 -342
-180 -21 -7 -38 -18 -38 -24 0 -14 161 -105 235 -134 28 -10 71 -25 98 -31 26
-7 47 -18 47 -26 0 -7 -21 -47 -46 -89 -86 -142 -248 -290 -424 -387 -38 -21
-72 -49 -82 -66 -48 -81 5 -177 95 -174 80 4 291 147 433 295 112 117 162 186
229 317 21 41 42 78 47 81 5 4 60 9 121 13 107 7 139 12 267 38 214 43 461
136 615 231 238 147 465 404 514 582 19 71 14 127 -20 194 -104 207 -487 431
-939 547 -95 24 -123 28 -131 19z"/>
<path d="M6985 4199 c-30 -62 -97 -171 -115 -189 -3 -3 -30 -34 -60 -70 -30
-36 -77 -85 -104 -110 -27 -25 -61 -56 -75 -69 -82 -75 -253 -176 -416 -246
-22 -10 -53 -23 -70 -30 -160 -70 -514 -155 -641 -155 -29 0 -56 -5 -59 -10
-7 -11 36 -86 127 -222 32 -48 58 -92 58 -98 0 -16 -102 -77 -224 -135 -134
-63 -225 -97 -330 -125 -109 -29 -155 -68 -156 -133 0 -64 54 -117 119 -117
32 0 306 88 357 115 16 8 33 15 37 15 12 0 326 156 362 180 60 39 69 40 172
19 133 -26 388 -35 578 -20 151 13 366 43 440 62 163 43 249 80 301 130 41 39
82 124 96 197 13 69 5 255 -16 367 -40 211 -83 326 -199 535 -24 44 -88 128
-121 159 l-25 23 -36 -73z"/>
<path d="M7210 2700 c-321 -110 -780 -156 -1164 -115 -76 8 -143 12 -148 8
-11 -6 -3 -188 13 -288 6 -44 5 -63 -4 -72 -20 -19 -243 -54 -382 -59 -71 -3
-143 -7 -160 -10 -103 -15 -137 -160 -51 -214 63 -39 322 -22 570 37 166 39
156 39 201 0 85 -73 245 -159 369 -198 136 -44 198 -53 346 -54 139 0 147 1
202 28 99 49 182 163 234 324 31 98 39 130 74 328 37 199 38 257 8 285 -26 24
-37 24 -108 0z"/>
<path d="M5885 1800 c-75 -30 -325 -426 -415 -659 -55 -141 -57 -244 -8 -339
42 -83 147 -155 248 -171 234 -37 649 182 920 485 106 118 179 225 213 312 27
69 28 69 -80 76 -54 4 -127 12 -163 17 -79 13 -252 62 -317 90 -99 42 -121 54
-229 126 -110 72 -130 80 -169 63z"/>
<path d="M4115 1496 c-141 -67 -199 -214 -143 -363 29 -78 103 -151 178 -176
30 -10 64 -22 75 -27 11 -4 54 -18 95 -30 137 -40 290 -92 290 -99 0 -3 -22
-14 -49 -24 -68 -24 -125 -78 -162 -153 -29 -58 -31 -70 -27 -138 7 -115 69
-206 176 -258 37 -18 63 -22 122 -22 78 1 130 18 595 199 66 26 135 52 153 58
17 6 32 15 32 21 0 6 -21 26 -46 45 -102 77 -174 191 -196 311 -14 72 0 172
38 288 13 40 24 77 24 82 0 13 -20 21 -165 65 -66 20 -176 54 -245 75 -69 22
-183 57 -255 79 -71 21 -168 51 -214 65 -112 34 -206 35 -276 2z"/>
</g>
</svg>
