<?xml version="1.0" encoding="UTF-8"?>
<svg xmlns="http://www.w3.org/2000/svg" viewBox="0 0 1024 1024" width="24" height="24">
<g transform="translate(0.000000,1024.000000) scale(0.100000,-0.100000)" fill="#000000" stroke="none">
<path d="M7235 8201 c-183 -52 -343 -217 -396 -406 -10 -37 -14 -122 -14 -335
l0 -285 568 -3 568 -2 -3 297 c-4 279 -5 302 -27 362 -65 183 -220 329 -397
375 -81 21 -222 20 -299 -3z M6206 6701 l-349 -349 21 -28 c11 -16 100 -108
197 -204 97 -96 183 -187 191 -202 34 -65 3 -157 -63 -184 -74 -32 -87 -23
-323 212 l-216 214 -84 -85 -84 -84 24 -28 c14 -16 64 -69 112 -118 47 -50 90
-103 93 -118 23 -92 -63 -185 -150 -163 -15 4 -81 58 -147 122 l-121 116 -83
-83 c-46 -46 -84 -88 -84 -94 0 -6 88 -98 196 -205 107 -107 202 -207 210
-222 31 -59 8 -144 -48 -174 -13 -8 -45 -13 -72 -14 l-50 0 -211 210 c-116
116 -215 210 -221 210 -12 0 -164 -152 -164 -165 0 -6 45 -55 101 -110 113
-113 129 -137 129 -196 0 -35 -6 -48 -39 -80 -32 -33 -45 -39 -80 -39 -59 0
-83 16 -196 129 -55 56 -104 101 -110 101 -6 0 -48 -38 -93 -83 l-83 -84 204
-209 c112 -115 209 -219 215 -231 28 -53 4 -130 -51 -163 -36 -22 -92 -25
-122 -7 -12 7 -110 103 -219 215 -110 111 -204 202 -210 202 -6 0 -50 -38 -96
-85 l-85 -85 112 -113 c62 -61 117 -125 122 -140 33 -88 -28 -177 -122 -177
-44 0 -87 32 -201 149 -49 50 -93 90 -97 89 -4 -2 -44 -38 -89 -82 l-82 -78
39 -42 c21 -22 115 -120 210 -216 107 -110 174 -185 178 -203 25 -100 -63
-192 -159 -166 -25 7 -84 61 -228 207 -106 108 -202 203 -211 211 -17 13 -26
7 -102 -69 l-85 -84 110 -111 c62 -63 116 -128 125 -149 46 -109 -70 -216
-173 -162 -15 8 -74 62 -132 120 -57 58 -109 106 -115 106 -5 -1 -48 -37 -95
-80 l-84 -80 45 -48 c25 -26 117 -120 205 -210 87 -90 165 -175 173 -189 39
-75 -25 -183 -110 -183 -22 0 -50 5 -62 11 -12 6 -115 106 -229 222 l-207 212
-87 -87 -88 -88 120 -122 c99 -100 123 -130 128 -161 10 -54 -21 -118 -67
-140 -76 -36 -107 -21 -249 120 l-117 116 -56 -47 c-63 -54 -85 -90 -85 -138
0 -29 32 -64 338 -370 223 -223 346 -339 365 -344 15 -3 39 -3 55 0 18 5 573
553 1775 1754 l1747 1747 -2 763 -3 762 -349 -349z M6822 6773 l3 -128 568 -3
567 -2 0 130 0 130 -570 0 -571 0 3 -127z M7108 6373 l-288 -3 0 -1553 0
-1552 63 -140 c35 -77 75 -162 88 -190 l24 -50 400 0 400 0 82 180 82 180 1
1563 0 1562 -217 0 c-120 0 -247 2 -283 3 -36 2 -194 2 -352 0z M7212 2411 c6
-37 173 -391 183 -388 14 5 187 386 180 397 -4 6 -80 10 -186 10 -172 0 -180
-1 -177 -19z"/>
</g>
</svg>