<svg xmlns="http://www.w3.org/2000/svg" version="1.1" width="532.000000" height="517.000000" viewBox="0 0 532.000000 517.000000">
<g transform="translate(0.000000,517.000000) scale(0.100000,-0.100000)"
fill="#000000" stroke="none">
<path d="M2565 4957 c-11 -7 -23 -16 -26 -21 -4 -5 -11 -6 -17 -2 -6 3 -15 -2
-21 -11 -6 -10 -11 -14 -11 -9 0 11 -60 -53 -60 -65 0 -5 -4 -9 -10 -9 -5 0
-10 -6 -10 -14 0 -7 -7 -19 -15 -26 -8 -7 -15 -21 -15 -30 0 -10 -5 -20 -12
-22 -6 -2 -15 -35 -19 -73 -5 -38 -13 -73 -19 -79 -5 -5 -10 -28 -10 -50 -1
-23 -7 -68 -15 -101 -8 -33 -15 -77 -15 -97 0 -21 -4 -38 -10 -38 -5 0 -10
-20 -10 -44 0 -24 -7 -57 -15 -72 -8 -16 -15 -40 -15 -54 0 -15 -4 -30 -9 -35
-5 -6 -12 -39 -15 -75 -4 -35 -11 -69 -15 -75 -5 -5 -12 -39 -16 -75 -4 -36
-12 -70 -17 -77 -5 -6 -12 -37 -15 -67 -3 -31 -9 -56 -13 -56 -4 0 -11 -25
-15 -55 -3 -30 -10 -55 -14 -55 -5 0 -14 -27 -21 -60 -7 -33 -16 -60 -19 -60
-4 0 -13 -16 -21 -35 -8 -19 -17 -35 -22 -35 -4 0 -8 -6 -8 -14 0 -8 -9 -18
-20 -21 -11 -3 -20 -10 -20 -15 0 -24 -226 -20 -480 10 -47 6 -170 17 -275 25
-104 8 -262 22 -350 30 -328 30 -344 30 -429 4 -42 -13 -76 -27 -76 -31 0 -5
-9 -8 -20 -8 -10 0 -24 -9 -30 -20 -6 -11 -15 -18 -21 -15 -5 4 -9 2 -9 -3 0
-5 -11 -20 -24 -33 -77 -78 -88 -212 -24 -284 10 -11 31 -34 46 -51 33 -37
151 -124 169 -124 7 0 13 -4 13 -10 0 -5 6 -10 13 -10 7 0 22 -8 33 -19 11
-10 30 -22 42 -25 12 -4 22 -12 22 -17 0 -5 9 -9 20 -9 11 0 20 -4 20 -9 0 -8
26 -19 40 -17 3 0 25 -13 50 -30 25 -17 60 -37 78 -45 17 -8 32 -17 32 -21 0
-5 9 -8 20 -8 11 0 20 -4 20 -10 0 -5 7 -10 15 -10 8 0 15 -4 15 -8 0 -4 20
-14 45 -21 25 -7 45 -17 45 -22 0 -5 7 -9 15 -9 8 0 15 -3 15 -8 0 -8 91 -52
109 -52 6 0 11 -4 11 -10 0 -5 11 -12 25 -16 14 -3 25 -9 25 -14 0 -4 17 -14
38 -23 35 -15 92 -46 102 -57 3 -3 24 -14 47 -25 24 -11 43 -24 43 -28 0 -5 4
-5 10 -2 5 3 10 1 10 -4 0 -6 7 -11 15 -11 8 0 15 -4 15 -10 0 -5 9 -10 20
-10 11 0 20 -4 20 -8 0 -5 18 -21 40 -38 22 -16 40 -35 40 -43 0 -8 3 -12 6
-8 4 3 15 -10 25 -31 20 -38 26 -132 9 -132 -5 0 -10 -11 -10 -25 0 -14 -11
-48 -25 -77 -14 -28 -25 -60 -25 -70 0 -11 -4 -17 -9 -13 -6 3 -13 -10 -17
-29 -3 -20 -12 -40 -20 -47 -7 -6 -16 -26 -20 -45 -3 -19 -10 -34 -15 -34 -5
0 -9 -9 -9 -20 0 -11 -4 -20 -10 -20 -5 0 -10 -10 -10 -23 0 -13 -6 -29 -12
-36 -7 -6 -13 -15 -14 -19 -3 -24 -17 -62 -24 -62 -4 0 -11 -16 -14 -35 -4
-19 -11 -35 -16 -35 -4 0 -11 -13 -15 -30 -4 -16 -11 -32 -16 -35 -5 -4 -9
-13 -9 -21 0 -8 -9 -34 -20 -56 -11 -23 -20 -47 -20 -54 0 -6 -7 -17 -15 -24
-8 -7 -15 -23 -15 -36 0 -12 -5 -26 -10 -29 -6 -3 -10 -17 -10 -31 0 -14 -7
-27 -15 -30 -9 -4 -15 -19 -15 -36 0 -16 -7 -36 -15 -44 -8 -9 -15 -26 -15
-38 0 -13 -7 -29 -15 -36 -8 -7 -15 -25 -15 -41 0 -16 -4 -29 -10 -29 -5 0
-10 -9 -10 -20 0 -11 -4 -28 -9 -38 -36 -71 -68 -269 -56 -351 9 -64 25 -113
44 -133 9 -9 21 -23 28 -30 48 -52 104 -65 224 -51 51 6 95 16 97 22 2 6 10
11 18 11 8 0 14 5 14 11 0 5 5 7 10 4 6 -3 10 -1 10 4 0 6 7 11 15 11 8 0 15
7 15 16 0 8 5 12 10 9 6 -3 13 1 16 9 3 9 11 16 16 16 5 0 27 17 47 38 77 75
119 112 130 112 6 0 11 7 11 15 0 8 7 15 15 15 8 0 15 4 15 8 0 5 18 21 40 38
22 16 40 35 40 42 0 6 6 12 14 12 7 0 22 11 32 25 10 14 22 25 27 25 4 0 34
25 65 55 31 30 63 55 69 55 7 0 12 5 10 11 -1 6 7 16 17 22 11 7 43 35 71 62
28 28 66 61 84 75 18 14 46 37 61 53 16 15 33 27 39 27 6 0 11 7 11 15 0 8 4
15 10 15 9 0 18 6 72 53 12 9 27 17 35 17 7 0 13 7 13 15 0 8 5 15 10 15 6 0
30 9 52 20 51 24 131 26 184 4 22 -9 41 -19 44 -23 3 -3 22 -15 43 -25 20 -11
37 -23 37 -27 0 -5 12 -15 28 -23 15 -8 38 -24 52 -36 14 -12 35 -30 48 -41
12 -10 24 -19 27 -19 4 0 27 -20 149 -135 33 -30 64 -55 68 -55 5 0 6 -4 3
-10 -3 -5 -1 -10 5 -10 7 0 27 -16 46 -35 18 -19 38 -35 42 -35 5 0 18 -11 28
-25 10 -14 22 -25 26 -25 4 0 30 -22 59 -50 29 -27 56 -50 61 -50 4 0 8 -7 8
-15 0 -8 6 -15 14 -15 8 0 16 -3 18 -7 2 -5 28 -28 58 -53 30 -25 59 -50 63
-57 4 -7 14 -13 20 -13 7 0 19 -9 27 -20 8 -11 20 -20 28 -20 7 0 15 -6 18
-14 3 -8 19 -20 35 -26 16 -7 29 -16 29 -21 0 -5 26 -21 58 -36 31 -15 60 -31
63 -36 10 -14 172 -14 176 1 3 6 8 10 13 7 4 -3 28 14 52 38 60 58 82 129 81
262 -1 59 -8 125 -18 160 -9 33 -22 84 -28 113 -7 30 -15 51 -19 47 -3 -3 -9
13 -13 36 -4 24 -13 48 -20 55 -7 7 -15 31 -19 54 -4 25 -11 38 -17 34 -6 -3
-9 0 -8 7 4 23 -13 89 -21 84 -4 -3 -11 12 -15 32 -4 20 -13 46 -21 57 -8 11
-14 27 -14 34 0 8 -7 30 -16 50 -9 21 -22 52 -30 70 -8 18 -14 39 -14 47 0 8
-4 15 -8 15 -5 0 -16 19 -26 42 -9 24 -21 51 -27 60 -5 10 -9 25 -9 33 0 8 -4
15 -10 15 -5 0 -10 7 -10 17 0 22 -32 93 -42 93 -4 0 -8 7 -8 16 0 9 -11 38
-25 66 -14 27 -25 56 -25 64 0 8 -4 14 -8 14 -5 0 -14 18 -21 40 -6 22 -16 40
-21 40 -6 0 -10 13 -10 29 0 16 -7 36 -15 45 -17 17 -22 136 -5 136 6 0 10 7
10 15 0 23 43 73 100 115 18 14 38 30 45 36 6 6 22 15 35 19 13 4 30 14 38 21
7 8 20 14 28 14 8 0 14 5 14 10 0 6 6 10 14 10 7 0 19 7 26 15 7 8 21 15 32
15 10 0 21 7 24 15 4 8 16 15 29 15 13 0 25 7 29 15 3 8 13 15 22 15 9 0 33
10 53 22 67 42 96 59 114 64 9 4 17 10 17 15 0 5 9 9 20 9 11 0 20 5 20 10 0
6 6 10 13 10 8 0 24 9 37 20 13 11 31 20 42 20 10 0 18 5 18 10 0 6 9 10 20
10 11 0 20 4 20 8 0 5 27 21 60 36 33 15 76 39 95 52 20 13 40 24 45 24 6 0
10 4 10 9 0 5 14 12 30 16 17 4 30 13 30 21 0 8 6 14 13 13 23 -3 32 1 61 26
17 14 40 28 53 31 12 4 20 10 17 15 -3 5 -1 9 3 9 16 0 73 59 73 74 0 9 7 16
15 16 8 0 15 5 15 10 0 6 9 30 20 52 25 51 26 115 3 165 -10 21 -20 40 -24 43
-3 3 -18 22 -33 42 -16 21 -32 35 -37 32 -5 -3 -9 -1 -9 5 0 6 -26 23 -57 38
-53 25 -68 27 -178 27 -105 0 -547 -27 -630 -38 -16 -3 -77 -9 -135 -15 -58
-6 -143 -16 -190 -22 -47 -5 -141 -14 -210 -19 -69 -5 -135 -12 -147 -16 -73
-21 -168 53 -188 146 -4 19 -11 40 -15 45 -4 6 -11 30 -15 55 -4 25 -11 47
-16 51 -5 3 -12 27 -15 55 -3 27 -12 63 -19 79 -7 17 -15 48 -16 70 -2 22 -7
43 -12 46 -4 3 -12 30 -16 60 -4 30 -13 64 -19 76 -7 12 -12 37 -12 55 -1 18
-7 44 -15 58 -8 14 -14 44 -15 67 0 23 -4 44 -9 47 -4 3 -11 33 -15 66 -4 33
-11 60 -16 60 -6 0 -10 21 -10 48 0 26 -7 60 -15 76 -8 15 -15 46 -15 67 0 21
-4 40 -9 43 -5 3 -14 30 -20 58 -19 84 -33 128 -44 128 -5 0 -7 6 -4 14 3 8
-1 20 -9 26 -8 7 -14 19 -14 26 0 22 -100 115 -131 121 -16 3 -29 9 -29 14 0
13 -152 10 -175 -4z m182 -829 c36 -33 53 -71 53 -117 0 -50 -11 -79 -43 -113
-23 -25 -33 -28 -92 -28 -104 0 -155 44 -155 135 0 75 33 126 94 147 39 13
118 0 143 -24z m-24 -504 c9 -3 17 -10 17 -15 0 -5 7 -9 15 -9 8 0 15 -7 15
-16 0 -8 7 -22 15 -30 20 -21 19 -89 -2 -134 -37 -78 -121 -109 -194 -73 -54
27 -74 56 -84 124 -18 121 86 194 218 153z m18 -521 c16 -15 29 -35 29 -45 0
-10 5 -18 10 -18 15 0 12 -94 -4 -124 -7 -15 -26 -38 -42 -51 -24 -21 -39 -25
-91 -25 -36 0 -63 4 -63 10 0 6 -6 10 -13 10 -7 0 -22 10 -33 23 -55 64 -50
157 11 223 38 41 148 39 196 -3z m-1663 -27 c15 -8 34 -24 42 -36 8 -13 21
-28 28 -36 6 -7 12 -35 12 -62 0 -62 -45 -132 -85 -132 -14 0 -25 -4 -25 -10
0 -19 -73 -10 -115 15 -90 52 -100 171 -21 251 26 27 121 32 164 10z m3295 -7
c64 -34 90 -92 75 -165 -23 -108 -157 -150 -240 -76 -41 37 -59 79 -52 121 10
64 36 102 84 123 25 11 110 9 133 -3z m-504 -136 c17 -10 31 -21 31 -25 0 -5
6 -8 13 -8 21 -1 47 -68 47 -123 0 -48 -4 -56 -37 -89 -47 -45 -96 -60 -152
-45 -23 6 -41 15 -41 19 0 4 -7 8 -15 8 -8 0 -15 4 -15 9 0 5 -8 17 -17 27
-21 20 -33 154 -14 154 6 0 11 6 11 13 0 18 28 40 75 59 53 21 77 22 114 1z
m-2269 -23 c11 -11 17 -20 13 -20 -5 0 0 -7 10 -14 27 -21 34 -104 11 -155
-10 -22 -21 -41 -25 -41 -4 0 -14 -7 -23 -15 -27 -27 -99 -30 -148 -6 -56 28
-80 62 -86 123 -5 53 9 92 43 118 52 40 169 46 205 10z m451 -150 c29 -24 40
-35 57 -54 16 -20 16 -121 -1 -138 -7 -7 -16 -20 -19 -29 -11 -30 -76 -52
-136 -47 -31 3 -58 10 -60 16 -2 7 -9 12 -15 12 -41 1 -72 120 -43 164 9 14
16 32 16 41 0 9 5 13 10 10 6 -3 10 -2 10 4 0 39 140 55 181 21z m1357 3 c4
-5 17 -15 30 -22 25 -13 52 -70 52 -109 0 -49 -23 -103 -52 -120 -15 -9 -28
-20 -28 -24 0 -15 -110 -8 -142 8 -57 29 -77 63 -78 126 0 31 5 60 10 63 6 3
10 13 10 21 0 21 22 42 54 50 14 3 26 11 26 16 0 13 109 5 118 -9z m-664 -133
c5 -5 18 -10 28 -10 10 0 26 -9 35 -20 10 -11 21 -20 25 -20 5 0 16 -8 26 -18
52 -52 73 -235 32 -282 -11 -13 -20 -29 -20 -36 0 -37 -111 -103 -188 -112
-47 -5 -165 25 -156 39 3 5 -4 9 -15 9 -12 0 -21 6 -21 13 0 7 -9 18 -20 25
-11 7 -20 21 -20 33 0 11 -4 18 -8 15 -4 -2 -16 23 -26 56 -16 55 -17 73 -3
150 2 9 8 22 14 30 6 7 14 23 17 36 4 12 14 22 22 22 8 0 14 7 14 15 0 8 5 15
10 15 6 0 19 9 30 20 35 35 194 50 224 20z m326 -597 c13 -13 28 -23 31 -23
13 0 39 -69 39 -104 0 -104 -119 -177 -217 -133 -39 17 -57 37 -76 84 -32 82
23 188 107 204 46 8 87 -1 116 -28z m-625 -46 c31 -36 35 -47 35 -97 0 -42 -5
-61 -20 -78 -11 -12 -20 -25 -20 -30 0 -5 -20 -19 -45 -32 -32 -16 -53 -21
-76 -16 -105 21 -172 143 -122 224 40 64 79 81 169 73 37 -2 50 -10 79 -44z
m912 -318 c6 -6 22 -17 35 -23 12 -6 24 -20 26 -31 3 -10 11 -25 19 -34 11
-11 14 -27 9 -64 -6 -57 -36 -107 -74 -125 -31 -14 -142 -16 -142 -2 0 6 -6
10 -12 10 -48 2 -89 108 -69 177 9 31 56 85 83 96 25 10 114 7 125 -4z m-1292
-28 c3 -5 19 -12 35 -16 17 -4 30 -13 30 -21 0 -8 5 -14 11 -14 11 0 42 -64
45 -95 3 -23 -30 -101 -51 -122 -23 -22 -87 -41 -125 -35 -34 5 -110 68 -110
92 0 6 -5 8 -12 4 -18 -11 -2 128 17 142 8 6 15 16 15 22 0 6 16 16 35 23 19
7 35 17 35 21 0 11 68 10 75 -1z m1626 -408 c21 -16 39 -35 39 -45 0 -9 4 -18
10 -20 15 -5 17 -111 2 -116 -6 -2 -12 -8 -12 -13 0 -31 -79 -79 -130 -79 -83
0 -150 67 -150 151 0 42 31 106 57 118 13 6 23 15 23 21 0 6 26 10 61 10 50 0
68 -5 100 -27z m-1920 -7 c19 -8 47 -26 63 -41 25 -23 29 -36 34 -97 4 -55 2
-74 -10 -82 -8 -6 -17 -18 -20 -27 -8 -21 -86 -59 -119 -59 -37 0 -94 31 -121
65 -19 24 -23 40 -22 92 2 76 30 128 74 138 16 4 32 11 35 16 9 13 48 11 86
-5z"/>
</g>
</svg>
