<?xml version="1.0" encoding="UTF-8"?>
<svg xmlns="http://www.w3.org/2000/svg" viewBox="0 0 433 399" width="24" height="24">
  <g transform="translate(0,399) scale(0.1,-0.1)" fill="#000000" stroke="none">
        <path d="M3706 3768 c-3 -7 -10 -31 -17 -53 -20 -68 -69 -160 -115 -219 -85
-108 -219 -186 -429 -251 -387 -118 -477 -155 -624 -252 -147 -98 -266 -234
-326 -370 -10 -24 -20 -43 -23 -43 -2 0 -21 13 -41 28 -91 72 -225 128 -377
159 -67 13 -135 17 -279 17 -177 0 -207 -3 -440 -43 -224 -39 -262 -43 -370
-39 -170 6 -279 48 -407 155 -22 18 -44 33 -48 33 -12 0 15 -107 46 -185 60
-149 193 -308 340 -406 208 -139 432 -216 855 -293 348 -63 511 -114 636 -196
150 -98 182 -171 183 -412 0 -161 -28 -326 -80 -478 -22 -63 -41 -119 -43
-123 -5 -20 320 -130 465 -158 128 -24 264 -22 354 5 l52 16 -5 48 c-24 245
-135 584 -302 921 -39 79 -71 156 -71 171 0 54 40 156 91 234 67 101 184 219
374 376 215 177 327 282 417 390 141 169 219 318 254 488 24 114 15 292 -20
399 -26 81 -42 107 -50 81z"/>
    <path d="M1580 736 c-41 -12 -118 -41 -171 -64 -268 -115 -475 -152 -868 -152
-234 -1 -234 -1 -53 -64 182 -63 298 -81 527 -80 158 0 226 5 325 22 163 29
315 29 430 2 46 -12 182 -50 300 -86 476 -142 659 -145 1042 -15 135 46 226
60 453 70 157 7 230 15 290 30 85 23 204 75 244 108 l25 20 -65 -9 c-35 -6
-127 -10 -204 -11 -164 0 -255 17 -462 87 l-132 44 -81 -48 c-197 -118 -412
-139 -692 -66 -53 14 -208 66 -345 115 -352 127 -425 139 -563 97z"/>
  </g>
</svg>