<?xml version="1.0" standalone="no"?>
<!DOCTYPE svg PUBLIC "-//W3C//DTD SVG 20010904//EN"
 "http://www.w3.org/TR/2001/REC-SVG-20010904/DTD/svg10.dtd">
<svg version="1.0" xmlns="http://www.w3.org/2000/svg"
 width="619.000000pt" height="465.000000pt" viewBox="0 0 619.000000 465.000000"
 preserveAspectRatio="xMidYMid meet">
<metadata>
Created by potrace 1.16, written by Peter Selinger 2001-2019
</metadata>
<g transform="translate(0.000000,465.000000) scale(0.100000,-0.100000)"
fill="#000000" stroke="none">
<path d="M1563 4436 c-29 -6 -58 -17 -65 -23 -6 -7 -18 -13 -25 -13 -19 0
-114 -83 -117 -103 -1 -7 -7 -22 -14 -34 -7 -12 -12 -44 -12 -72 0 -27 -4 -52
-9 -55 -5 -4 -12 -25 -16 -49 -9 -56 -35 -137 -52 -162 -7 -11 -13 -32 -13
-47 0 -15 -4 -29 -9 -33 -5 -3 -12 -19 -16 -35 -4 -17 -10 -30 -15 -30 -5 0
-12 -14 -15 -32 -4 -18 -15 -44 -24 -58 -32 -48 -42 -65 -47 -82 -4 -10 -10
-18 -15 -18 -5 0 -9 -5 -9 -11 0 -12 -80 -133 -92 -137 -4 -2 -8 -10 -8 -18 0
-8 -4 -14 -10 -14 -24 0 -50 -84 -50 -164 0 -118 30 -207 92 -268 26 -27 54
-48 62 -48 8 0 19 -7 23 -15 5 -9 43 -22 91 -31 115 -23 175 -9 232 53 22 24
40 46 40 49 0 5 40 65 50 74 3 3 23 40 45 83 21 42 42 77 46 77 4 0 10 12 13
28 6 24 46 114 67 152 5 8 12 22 15 30 20 52 50 116 57 118 4 2 7 10 7 19 0 8
7 31 16 51 9 21 25 55 34 77 10 22 26 65 36 95 9 30 21 63 25 72 5 10 9 28 9
40 0 13 7 36 15 51 32 62 43 347 14 347 -5 0 -9 6 -9 13 0 12 -34 47 -46 47
-2 0 -14 9 -26 20 -12 11 -28 20 -35 20 -7 0 -13 4 -13 9 0 9 -62 24 -140 34
-19 3 -58 0 -87 -7z"/>
<path d="M2283 4437 c-29 -5 -53 -13 -53 -18 0 -4 -16 -11 -35 -15 -19 -3 -35
-9 -35 -13 0 -3 -15 -14 -33 -24 -55 -30 -67 -61 -67 -179 0 -57 -4 -108 -10
-114 -5 -5 -13 -39 -16 -74 -4 -36 -10 -69 -14 -75 -4 -5 -11 -34 -15 -62 -4
-29 -10 -53 -14 -53 -4 0 -15 -26 -26 -57 -10 -32 -24 -69 -31 -83 -6 -14 -20
-45 -29 -70 -9 -25 -23 -57 -31 -72 -8 -14 -14 -33 -14 -41 0 -9 -20 -55 -45
-104 -25 -48 -45 -94 -45 -102 0 -8 -6 -22 -14 -30 -7 -9 -33 -52 -56 -96 -24
-44 -46 -82 -49 -85 -3 -3 -17 -25 -30 -50 -32 -62 -78 -123 -130 -176 l-44
-44 7 -63 c8 -68 35 -189 45 -197 3 -3 15 -24 26 -46 51 -103 145 -170 271
-193 186 -34 334 19 424 152 14 20 28 37 33 37 4 0 7 7 7 15 0 9 7 18 15 21 8
4 15 12 15 20 0 8 5 14 10 14 6 0 10 6 10 13 0 12 9 26 50 74 5 7 10 19 10 28
0 8 5 15 10 15 6 0 10 6 10 14 0 8 6 21 13 28 7 7 30 45 52 83 21 39 41 72 44
75 4 3 12 16 19 30 7 14 24 43 37 65 14 22 29 51 35 65 5 14 14 32 19 40 13
20 119 235 138 280 9 19 24 52 34 72 11 20 19 44 19 52 0 9 4 16 8 16 5 0 15
19 21 43 7 23 22 60 32 81 10 22 19 48 19 58 0 10 5 18 10 18 6 0 10 11 10 24
0 14 5 28 10 31 6 3 10 16 10 29 0 12 7 31 15 42 8 10 15 28 15 40 0 11 9 47
21 80 24 70 32 225 12 245 -7 7 -13 19 -13 27 0 7 -7 20 -15 28 -8 8 -20 23
-27 32 -18 23 -97 67 -183 102 -115 47 -344 70 -462 47z"/>
<path d="M935 4402 c-39 -14 -107 -66 -116 -90 -5 -13 -9 -49 -9 -80 0 -35
-10 -87 -27 -137 -24 -74 -33 -96 -62 -165 -16 -36 -34 -64 -48 -73 -7 -4 -13
-12 -13 -18 0 -5 -10 -21 -22 -34 -52 -55 -53 -57 -52 -140 0 -68 5 -89 30
-138 29 -59 73 -97 112 -97 11 0 22 -5 24 -12 5 -15 82 7 104 29 7 7 17 13 23
13 6 0 11 6 11 14 0 8 3 16 8 18 15 7 72 87 72 102 0 9 5 16 11 16 5 0 16 15
24 34 8 19 18 37 23 40 5 3 14 23 22 45 7 23 17 41 22 41 4 0 8 5 8 12 0 6 9
30 19 52 81 174 116 308 109 422 -4 55 -9 75 -26 92 -12 12 -25 22 -28 22 -4
0 -12 8 -19 17 -9 13 -32 17 -96 19 -46 2 -93 0 -104 -4z"/>
<path d="M267 4346 c-4 -9 -12 -16 -19 -16 -7 0 -22 -18 -32 -41 -19 -39 -19
-41 -1 -95 10 -30 21 -54 24 -54 4 0 15 -16 25 -35 11 -19 23 -35 28 -35 4 0
8 -6 8 -12 0 -7 23 -38 50 -67 28 -30 50 -59 50 -63 0 -4 19 -21 42 -38 45
-33 88 -39 112 -15 8 8 18 15 23 15 4 0 23 31 41 68 18 37 37 74 41 82 26 49
41 92 51 144 8 49 7 62 -5 76 -8 9 -15 22 -15 28 0 7 -5 12 -11 12 -7 0 -17 7
-23 15 -17 23 -99 37 -247 42 -117 4 -137 2 -142 -11z"/>
<path d="M3670 4223 c-186 -10 -325 -24 -334 -33 -5 -5 -32 -10 -58 -10 -26 0
-48 -4 -48 -10 0 -5 -15 -10 -33 -10 -35 0 -82 -34 -72 -51 4 -5 3 -14 -1 -21
-8 -13 -9 -18 -22 -115 -4 -35 -13 -68 -20 -75 -7 -7 -12 -25 -12 -40 0 -16
-9 -48 -20 -70 -11 -23 -20 -49 -20 -58 0 -9 -9 -35 -20 -58 -11 -23 -23 -57
-27 -74 -3 -18 -19 -57 -35 -86 -15 -30 -28 -60 -28 -68 0 -8 -4 -14 -10 -14
-5 0 -10 -7 -10 -15 0 -8 -16 -50 -37 -92 -20 -43 -47 -102 -61 -131 -13 -29
-28 -55 -32 -57 -4 -3 -11 -17 -15 -32 -3 -16 -17 -42 -31 -60 -13 -17 -24
-39 -24 -47 0 -9 -3 -16 -7 -16 -5 0 -19 -24 -33 -53 -14 -28 -27 -54 -31 -57
-3 -3 -13 -21 -22 -40 -26 -51 -143 -241 -154 -249 -5 -3 -20 -25 -33 -48 -13
-24 -27 -43 -32 -43 -4 0 -8 -5 -8 -11 0 -6 -11 -25 -26 -44 -24 -31 -24 -34
-6 -39 10 -4 35 0 55 9 20 8 50 15 66 15 16 0 33 5 36 10 3 6 13 10 22 10 9 0
49 16 89 35 40 19 75 35 79 35 3 0 30 11 58 24 29 13 63 27 77 31 13 4 30 14
38 21 7 8 20 14 28 14 8 0 14 5 14 10 0 6 6 10 14 10 7 0 19 7 26 15 7 8 21
15 31 15 9 0 24 6 31 13 7 7 29 22 48 33 19 10 39 25 43 32 4 6 15 12 22 12 8
0 15 4 15 10 0 5 11 12 25 16 14 3 25 10 25 14 0 4 15 13 33 21 17 7 36 19 40
26 4 7 17 13 27 13 11 0 20 4 20 9 0 5 11 12 25 15 14 4 25 11 25 16 0 6 8 10
18 10 10 0 27 7 38 15 10 8 27 15 37 15 9 0 17 4 17 8 0 5 19 15 43 21 23 7
47 17 52 21 19 16 120 50 147 50 15 0 30 5 33 10 3 6 19 10 35 10 16 0 41 5
57 11 69 27 675 52 717 30 12 -7 32 -13 46 -14 42 -5 153 -63 196 -104 22 -21
60 -65 85 -98 62 -83 75 -95 108 -95 36 0 43 18 42 97 0 49 -15 98 -52 165 -5
10 -9 24 -9 32 0 8 -6 16 -12 19 -7 2 -19 25 -27 51 -7 25 -17 46 -22 46 -5 0
-9 12 -9 26 0 14 -7 32 -15 40 -8 9 -15 24 -15 33 0 10 -7 24 -15 31 -8 7 -15
20 -15 30 0 10 -6 23 -14 29 -8 7 -18 26 -21 42 -4 16 -11 29 -16 29 -5 0 -9
7 -9 15 0 9 -9 35 -20 57 -11 23 -20 49 -20 59 0 9 -7 22 -15 29 -8 7 -17 27
-21 46 -3 19 -10 34 -14 34 -4 0 -11 11 -14 25 -4 14 -11 25 -16 25 -6 0 -10
9 -10 20 0 11 -4 20 -9 20 -5 0 -13 9 -16 21 -4 12 -14 29 -23 39 -33 36 -42
49 -42 60 0 5 -4 10 -10 10 -5 0 -10 5 -10 10 0 6 -8 18 -17 28 -37 39 -63 73
-63 83 0 5 -3 8 -8 6 -4 -3 -22 10 -40 28 -18 18 -45 39 -60 46 -15 8 -29 16
-32 20 -3 3 -23 13 -45 23 -22 9 -48 21 -57 26 -31 17 -151 39 -268 50 -110 9
-158 10 -280 3z"/>
<path d="M4298 2974 c-2 -1 -55 -8 -118 -14 -63 -6 -127 -15 -141 -21 -15 -6
-51 -14 -80 -19 -136 -23 -225 -41 -241 -50 -10 -6 -25 -10 -33 -10 -19 0
-116 -30 -130 -40 -5 -4 -23 -10 -40 -14 -39 -10 -225 -100 -292 -143 -29 -18
-57 -33 -63 -33 -5 0 -10 -4 -10 -8 0 -5 -16 -14 -35 -22 -19 -8 -35 -17 -35
-22 0 -4 -7 -8 -15 -8 -8 0 -15 -4 -15 -9 0 -5 -8 -11 -17 -14 -10 -4 -54 -27
-98 -52 -44 -25 -106 -58 -137 -73 -38 -18 -58 -33 -58 -44 0 -10 5 -18 10
-18 6 0 10 -9 10 -20 0 -11 5 -20 10 -20 6 0 24 -13 40 -30 16 -16 32 -30 36
-30 5 0 81 -56 94 -70 5 -5 91 -47 125 -60 11 -5 40 -17 65 -28 66 -28 106
-39 270 -69 172 -33 537 -17 614 26 17 10 44 21 60 25 15 4 35 14 43 21 8 8
23 15 32 15 10 0 24 7 31 15 7 8 21 15 31 15 11 0 19 4 19 10 0 5 16 12 35 16
19 3 35 10 35 15 0 5 9 9 19 9 11 0 23 5 26 10 4 6 10 8 14 6 4 -3 17 4 29 14
12 11 28 20 35 20 8 0 20 7 27 15 7 8 19 15 26 15 13 0 38 17 76 53 10 9 23
17 28 17 6 0 10 5 10 10 0 6 7 13 16 17 24 9 111 99 142 146 15 23 30 44 33
47 15 12 26 102 18 147 -9 48 -50 109 -99 148 -13 11 -32 27 -40 35 -36 34
-107 58 -205 68 -103 10 -151 12 -157 6z"/>
<path d="M5150 2729 c-48 -19 -70 -49 -70 -95 0 -25 6 -47 15 -54 8 -7 15 -19
15 -26 0 -8 7 -14 15 -14 9 0 18 -7 21 -15 4 -8 13 -15 20 -15 8 0 17 -7 20
-15 4 -8 12 -15 20 -15 8 0 19 -9 26 -20 7 -11 21 -20 30 -20 10 0 18 -4 18
-10 0 -5 7 -10 15 -10 8 0 15 -4 15 -10 0 -5 4 -10 10 -10 9 0 33 -18 64 -46
6 -5 19 -13 29 -17 9 -3 17 -11 17 -17 0 -5 6 -10 14 -10 8 0 21 -6 28 -13 20
-21 79 -47 103 -47 32 0 77 25 92 52 18 34 16 113 -5 153 -18 32 -115 135
-128 135 -3 0 -23 13 -43 28 -20 16 -52 35 -71 44 -19 9 -55 25 -80 36 -33 15
-159 47 -164 41 -1 0 -12 -5 -26 -10z"/>
<path d="M4911 2563 c-8 -21 -22 -46 -32 -56 -11 -10 -19 -24 -19 -32 0 -8 -7
-18 -16 -23 -9 -5 -14 -18 -12 -33 2 -18 12 -26 39 -33 41 -10 89 -1 89 16 0
6 7 16 16 23 25 17 23 114 -2 148 -27 37 -48 34 -63 -10z"/>
<path d="M5092 2360 c-46 -11 -82 -59 -77 -105 4 -41 17 -85 25 -85 5 0 12
-11 17 -23 8 -24 56 -85 123 -156 19 -20 60 -65 90 -99 30 -34 62 -62 71 -62
9 0 19 -7 23 -15 3 -8 17 -15 31 -15 34 0 105 37 111 58 3 9 9 24 13 32 10 18
-13 140 -27 149 -5 3 -12 23 -16 44 -4 20 -10 37 -15 37 -4 0 -15 15 -24 34
-28 60 -103 141 -158 173 -31 18 -126 45 -147 42 -4 -1 -22 -5 -40 -9z"/>
<path d="M4713 2288 c-18 -11 -33 -24 -33 -29 0 -5 -4 -9 -10 -9 -5 0 -32 -16
-59 -35 -26 -19 -52 -35 -55 -35 -4 0 -15 -8 -24 -17 -12 -12 -13 -18 -4 -21
7 -2 10 -7 7 -12 -6 -10 61 -54 109 -70 68 -22 159 4 204 58 28 35 7 114 -46
168 -27 29 -46 29 -89 2z"/>
<path d="M2515 2276 c-22 -8 -80 -21 -130 -31 -103 -19 -125 -36 -125 -94 1
-42 38 -91 69 -91 11 0 23 -4 26 -10 10 -16 85 -12 101 5 9 8 24 15 35 15 10
0 19 5 19 10 0 6 8 14 18 17 17 7 36 22 100 81 19 17 39 32 44 32 17 0 7 28
-18 54 -31 30 -74 34 -139 12z"/>
<path d="M5727 2201 c-59 -62 -71 -97 -42 -121 8 -7 15 -23 15 -35 0 -12 7
-28 14 -35 8 -6 22 -34 31 -61 9 -27 20 -51 25 -54 4 -3 11 -26 15 -52 4 -27
11 -56 17 -66 5 -10 13 -39 18 -65 4 -26 15 -73 24 -105 9 -32 16 -72 16 -90
1 -43 25 -130 37 -134 17 -6 63 45 63 70 0 12 6 29 13 35 8 9 13 62 15 172 3
131 0 177 -17 265 -12 58 -26 114 -31 123 -5 9 -17 36 -26 60 -10 23 -21 42
-26 42 -4 0 -8 6 -8 13 0 16 -70 97 -84 97 -6 0 -37 -27 -69 -59z"/>
<path d="M1960 2171 c-46 -6 -53 -18 -28 -48 26 -32 158 1 166 41 3 13 -5 16
-45 14 -26 0 -68 -4 -93 -7z"/>
<path d="M1735 2082 c-33 -7 -89 -35 -106 -54 -9 -10 -21 -18 -28 -18 -6 0
-11 -4 -11 -10 0 -9 -43 -70 -85 -122 -8 -10 -17 -29 -21 -43 -3 -14 -10 -25
-14 -25 -4 0 -10 -14 -14 -31 -3 -17 -14 -47 -23 -67 -11 -24 -17 -62 -18
-114 0 -72 2 -80 27 -103 22 -20 37 -25 81 -25 40 0 56 4 61 15 3 8 12 15 21
15 8 0 15 4 15 10 0 10 10 24 63 82 15 18 27 36 27 42 0 6 12 22 25 35 14 13
25 27 25 31 0 5 14 24 30 42 17 18 30 38 30 45 0 6 6 18 13 25 7 7 25 38 40
67 42 84 34 152 -21 180 -34 17 -91 28 -117 23z"/>
<path d="M2780 2081 c-8 -4 -37 -19 -63 -32 -52 -26 -127 -94 -127 -116 0 -7
-3 -13 -8 -13 -7 0 -22 -27 -58 -105 -27 -58 -28 -293 -1 -319 9 -10 17 -21
17 -25 0 -23 181 -44 194 -22 3 4 29 11 57 14 28 4 62 13 75 22 13 8 30 15 39
15 8 0 15 5 15 10 0 6 9 10 19 10 32 0 103 82 123 141 19 58 24 174 9 184 -6
3 -13 26 -17 50 -3 25 -10 45 -15 45 -5 0 -9 6 -9 14 0 20 -57 65 -129 104
-60 32 -92 38 -121 23z"/>
<path d="M4267 2040 c-16 -5 -35 -14 -43 -21 -8 -6 -14 -8 -14 -5 0 4 -7 1
-15 -6 -28 -26 -40 -34 -57 -41 -10 -3 -18 -13 -18 -22 0 -8 -6 -15 -13 -15
-6 0 -19 -15 -26 -32 -8 -18 -21 -38 -30 -44 -10 -8 -16 -37 -19 -97 -4 -79
-2 -90 22 -130 14 -25 32 -47 41 -51 8 -3 15 -11 15 -18 0 -18 192 -108 229
-108 17 0 32 -4 35 -9 17 -27 177 -1 213 34 14 15 33 113 33 177 0 59 -28 188
-41 188 -5 0 -9 8 -9 18 0 27 -106 139 -152 162 -49 23 -113 32 -151 20z"/>
<path d="M2142 1979 c-42 -8 -100 -44 -102 -64 0 -5 -12 -21 -25 -34 -14 -13
-25 -29 -25 -37 0 -8 -4 -14 -10 -14 -5 0 -13 -12 -16 -27 -4 -16 -12 -35 -18
-43 -11 -14 -34 -78 -70 -199 -9 -29 -16 -86 -16 -127 0 -78 14 -104 68 -125
47 -18 152 -6 152 17 0 8 7 14 15 14 8 0 15 5 15 12 0 6 11 26 25 44 14 18 25
37 25 42 0 5 7 15 15 22 8 7 17 27 21 46 3 19 10 34 14 34 4 0 11 16 14 35 4
19 10 35 15 35 4 0 14 19 21 43 8 23 22 59 32 79 28 58 34 142 13 175 -43 65
-88 85 -163 72z"/>
<path d="M4864 1983 c-12 -2 -32 -15 -45 -29 -21 -23 -24 -35 -24 -109 1 -45
5 -89 11 -96 6 -8 17 -34 24 -59 7 -25 19 -52 26 -60 7 -8 16 -27 19 -42 4
-16 11 -28 16 -28 5 0 9 -9 9 -21 0 -11 8 -33 18 -47 11 -15 29 -48 42 -73 12
-26 35 -62 51 -80 28 -33 30 -34 105 -33 100 1 128 20 132 90 4 52 -14 178
-29 206 -5 10 -9 28 -9 42 0 13 -6 29 -14 35 -7 6 -16 29 -20 51 -3 22 -11 40
-16 40 -6 0 -10 8 -10 19 0 10 -7 24 -15 31 -8 7 -15 17 -15 22 0 23 -77 111
-118 136 -21 11 -92 14 -138 5z"/>
<path d="M5588 1743 c-10 -2 -18 -8 -18 -13 0 -5 -27 -19 -60 -31 -59 -21 -60
-22 -60 -60 0 -21 4 -40 9 -43 5 -3 14 -42 21 -86 7 -44 15 -80 19 -80 9 0 31
-190 38 -325 4 -81 1 -131 -11 -189 -16 -76 -22 -196 -10 -196 9 0 74 70 74
80 0 5 6 13 13 17 19 13 47 63 92 168 13 29 28 121 41 240 6 62 -21 295 -36
305 -5 3 -11 23 -15 45 -7 41 -34 116 -46 125 -4 3 -8 14 -10 24 -4 21 -15 26
-41 19z"/>
<path d="M1312 1354 c-5 -11 -13 -39 -17 -64 -4 -25 -11 -50 -16 -56 -23 -28
-19 -387 6 -499 11 -52 58 -200 65 -205 3 -3 14 -22 23 -42 10 -21 22 -38 27
-38 6 0 10 -6 10 -12 1 -14 66 -88 78 -88 4 0 4 35 0 78 -10 110 -29 372 -29
407 0 17 5 82 12 145 6 63 13 142 16 175 3 33 9 64 14 70 5 5 9 31 9 57 0 45
-1 48 -27 48 -14 0 -34 7 -43 15 -10 9 -40 18 -68 22 -42 5 -51 3 -60 -13z"/>
<path d="M4073 1353 c-18 -9 -33 -20 -33 -25 0 -4 -7 -8 -15 -8 -8 0 -15 -4
-15 -10 0 -5 -7 -10 -15 -10 -8 0 -15 -7 -15 -15 0 -8 -6 -15 -13 -15 -8 0
-20 -11 -27 -25 -7 -14 -17 -25 -22 -25 -4 0 -8 -6 -8 -13 0 -8 -11 -27 -25
-43 -14 -16 -25 -37 -25 -47 0 -10 -4 -16 -9 -13 -5 3 -18 -27 -30 -67 -12
-39 -29 -95 -37 -122 -17 -56 -15 -269 3 -314 10 -24 10 -24 33 17 13 23 27
42 31 42 4 0 10 8 13 18 11 31 126 162 144 162 7 0 22 9 34 20 17 15 36 20 83
20 71 0 99 -18 109 -72 7 -36 -8 -133 -23 -152 -5 -6 -12 -26 -16 -44 -3 -17
-11 -32 -16 -32 -5 0 -9 -6 -9 -14 0 -7 -6 -19 -14 -25 -8 -7 -18 -26 -21 -42
-4 -16 -11 -29 -16 -29 -5 0 -9 -7 -9 -15 0 -9 -7 -30 -16 -47 -15 -29 -15
-32 1 -44 12 -9 25 -9 48 -2 18 5 50 14 72 19 44 10 108 40 113 52 2 4 9 7 16
7 7 0 21 9 31 20 10 11 22 20 27 20 5 0 15 6 23 13 7 7 26 24 41 38 30 25 67
69 94 109 8 12 21 28 28 36 6 7 12 17 12 22 0 5 7 15 15 22 8 7 15 20 15 29 1
9 9 34 20 56 11 22 19 52 20 67 0 15 5 30 10 33 27 16 -2 265 -30 265 -5 0
-10 10 -14 23 -3 12 -19 38 -35 56 l-30 34 -137 8 c-142 9 -173 15 -261 55
-60 28 -58 28 -100 7z"/>
<path d="M2925 1353 c-11 -3 -24 -9 -29 -14 -6 -5 -24 -9 -41 -9 -16 0 -46 -5
-65 -10 -19 -6 -83 -15 -142 -19 -103 -8 -138 -21 -138 -49 0 -6 -7 -12 -15
-16 -8 -3 -15 -13 -15 -21 0 -9 -4 -14 -9 -11 -4 3 -17 -23 -27 -57 -22 -72
-26 -268 -6 -275 7 -2 12 -13 12 -25 1 -12 9 -40 20 -62 11 -22 19 -46 20 -52
0 -7 5 -13 10 -13 6 0 10 -5 10 -11 0 -11 50 -82 63 -87 4 -2 7 -8 7 -12 0
-13 57 -70 70 -70 5 0 10 -6 10 -13 0 -8 11 -20 25 -27 14 -7 25 -17 25 -22 0
-4 6 -8 14 -8 8 0 21 -6 28 -12 21 -21 75 -48 92 -48 9 0 16 -4 16 -9 0 -5 23
-12 50 -16 28 -4 50 -11 50 -16 0 -5 16 -9 35 -9 30 0 35 3 35 23 0 13 -9 42
-20 65 -11 22 -20 45 -20 50 0 6 -7 12 -15 16 -8 3 -15 14 -15 25 0 10 -7 21
-15 25 -8 3 -15 12 -15 20 0 8 -3 16 -7 18 -10 4 -39 64 -53 111 -11 34 -6 95
9 107 3 3 11 14 17 24 17 32 81 49 133 36 45 -11 103 -49 134 -88 10 -12 25
-29 33 -36 8 -8 14 -19 14 -25 0 -6 4 -11 10 -11 5 0 16 -15 25 -33 16 -35 61
-87 74 -87 5 0 11 10 15 23 9 35 7 295 -3 301 -4 3 -11 24 -15 46 -3 22 -11
40 -16 40 -6 0 -10 6 -10 12 0 17 -60 138 -80 161 -117 138 -204 189 -285 170z"/>
<path d="M5240 1184 c-19 -7 -53 -13 -75 -14 -22 0 -51 -6 -64 -13 -23 -11
-24 -16 -22 -97 3 -129 -18 -388 -34 -427 -8 -20 -15 -46 -15 -58 0 -13 -7
-36 -15 -51 -8 -16 -15 -38 -15 -49 -1 -11 -7 -31 -15 -45 -8 -14 -14 -35 -15
-48 0 -12 -7 -25 -15 -28 -8 -4 -15 -13 -15 -21 0 -16 -29 -75 -40 -83 -11 -7
-16 -35 -7 -38 21 -6 47 0 61 13 8 8 19 15 24 15 5 0 22 13 38 30 16 16 35 30
42 30 6 0 12 4 12 9 0 4 10 19 23 33 31 35 60 71 74 94 38 60 93 201 93 237 0
9 4 17 8 17 9 0 25 87 43 225 15 118 -2 288 -28 284 -5 -1 -24 -7 -43 -15z"/>
<path d="M1814 1165 c-10 -41 2 -396 14 -404 5 -3 15 -33 22 -66 7 -33 16 -64
20 -70 4 -5 10 -27 14 -47 4 -21 11 -38 16 -38 6 0 10 -7 10 -16 0 -8 14 -35
30 -59 17 -24 30 -46 30 -49 0 -11 115 -136 124 -136 3 0 17 -11 32 -25 68
-63 115 -60 85 5 -9 19 -19 36 -23 38 -5 2 -8 12 -8 23 0 10 -4 19 -9 19 -5 0
-12 12 -15 27 -4 16 -13 42 -21 58 -21 45 -65 197 -65 226 0 14 -4 29 -10 35
-12 12 -40 290 -40 395 l0 79 -48 0 c-26 0 -52 4 -57 9 -6 5 -29 12 -52 16
-40 6 -43 5 -49 -20z"/>
</g>
</svg>
