<?xml version="1.0" encoding="UTF-8"?>
<svg xmlns="http://www.w3.org/2000/svg" viewBox="0 0 551 579" width="24" height="24">
  <g transform="translate(0,579) scale(0.1,-0.1)" fill="#000000" stroke="none">
        <path d="M3035 5504 c-52 -26 -65 -56 -91 -207 -51 -298 -99 -383 -218 -380
-49 1 -238 46 -265 62 -8 5 -7 20 5 54 20 58 13 105 -23 147 -75 89 -192 77
-250 -25 -35 -61 -83 -200 -104 -300 -23 -105 -28 -313 -9 -415 26 -148 30
-130 -41 -173 -51 -30 -74 -37 -115 -37 -140 0 -320 158 -592 519 -120 159
-145 181 -212 181 -43 0 -107 -35 -124 -68 -44 -87 -27 -133 126 -338 244
-325 446 -509 633 -575 84 -29 212 -36 294 -15 58 15 124 45 188 86 21 14 26
12 74 -35 149 -144 197 -303 219 -725 5 -107 10 -539 9 -960 0 -688 -1 -763
-15 -745 -9 11 -49 83 -91 160 -89 167 -207 348 -406 624 -81 112 -147 209
-147 216 0 6 17 21 38 33 237 133 361 404 350 764 l-3 118 -37 37 c-33 32 -44
37 -95 40 -113 8 -162 -56 -163 -208 0 -187 -49 -348 -129 -428 -33 -33 -126
-91 -146 -91 -8 0 -72 132 -109 224 -66 163 -80 246 -81 482 -1 191 -3 214
-21 244 -28 48 -69 68 -165 84 -169 28 -341 81 -528 163 -110 49 -131 55 -174
50 -39 -3 -56 -11 -85 -40 -30 -30 -36 -44 -39 -89 -6 -83 16 -113 123 -170
49 -26 145 -70 214 -97 108 -42 168 -60 335 -100 l30 -7 7 -129 c3 -72 16
-176 27 -232 12 -55 21 -110 21 -121 0 -30 -94 -110 -138 -118 -115 -22 -261
80 -434 304 -44 56 -93 109 -108 117 -42 22 -107 19 -148 -7 -36 -22 -72 -85
-72 -128 0 -80 179 -306 349 -442 130 -104 241 -148 376 -148 93 0 167 19 243
61 29 16 57 27 61 25 5 -3 28 -38 51 -78 58 -99 179 -275 346 -503 313 -430
435 -647 561 -997 42 -116 54 -138 92 -175 l45 -43 -87 0 c-169 0 -370 55
-567 156 -190 97 -285 168 -366 278 -55 72 -60 126 -18 176 35 41 68 57 155
75 82 18 120 41 143 89 46 97 -11 209 -114 223 -80 11 -253 -46 -339 -111 -19
-14 -38 -23 -43 -18 -4 4 -27 85 -52 181 -25 95 -52 184 -61 197 -36 55 -136
73 -197 36 -78 -48 -85 -115 -34 -314 46 -175 96 -319 157 -447 27 -57 49
-107 49 -112 0 -14 -117 -10 -179 6 -120 31 -231 93 -347 193 -98 85 -111 92
-165 92 -56 0 -103 -31 -128 -84 -50 -102 -14 -160 199 -318 164 -122 316
-183 507 -202 71 -8 212 8 274 29 l43 15 33 -32 c18 -17 33 -35 33 -39 0 -4
-24 -24 -52 -45 -106 -76 -163 -131 -244 -232 -99 -125 -116 -169 -90 -237 25
-65 65 -90 145 -90 l64 0 51 60 c133 157 248 256 382 331 l51 28 74 -33 c231
-103 443 -154 655 -155 l132 -1 4 -131 c4 -106 8 -137 24 -164 31 -54 68 -75
129 -75 58 0 91 18 129 69 20 27 21 41 24 489 2 348 6 463 15 469 7 4 24 8 38
8 15 0 49 19 83 45 76 59 141 95 266 149 l104 45 70 -40 c252 -143 495 -220
749 -238 205 -14 562 17 643 55 99 47 100 204 2 264 -39 24 -71 25 -209 6
-258 -35 -475 -29 -665 19 -89 23 -212 71 -203 79 8 7 375 139 450 161 177 53
388 72 627 55 151 -10 166 -10 199 7 52 25 76 63 81 125 3 44 0 59 -20 87 -38
57 -71 70 -204 81 -156 13 -362 13 -477 0 -51 -6 -101 -12 -111 -13 -26 -3
-57 77 -57 150 -1 74 25 114 147 221 120 107 186 192 256 328 l52 102 46 4
c100 10 284 110 376 205 87 89 154 243 140 318 -15 78 -110 136 -188 115 -58
-16 -84 -45 -114 -123 -19 -51 -39 -84 -71 -114 -68 -67 -71 -64 -48 67 23
136 35 302 35 486 0 161 -1 173 -23 205 -61 93 -200 91 -257 -3 -17 -29 -20
-51 -20 -178 0 -261 -28 -479 -85 -668 -34 -112 -119 -309 -149 -346 l-23 -30
-14 40 c-7 21 -13 71 -13 109 0 60 6 82 38 154 32 70 37 90 32 124 -20 120
-165 179 -248 101 -38 -36 -82 -123 -102 -200 -38 -148 -30 -274 31 -455 l35
-106 -36 -48 c-51 -66 -74 -113 -92 -192 -20 -85 -14 -205 15 -287 12 -33 18
-63 13 -68 -4 -4 -89 -37 -188 -72 -374 -133 -734 -281 -867 -356 l-54 -30 -6
121 c-11 187 -9 293 5 307 7 7 20 12 30 12 29 0 263 195 414 345 353 350 500
661 601 1274 26 154 29 164 53 173 14 6 62 28 108 50 135 64 185 122 533 612
50 70 98 144 106 163 43 103 -58 220 -171 199 -52 -10 -83 -46 -267 -303 -185
-260 -254 -350 -278 -362 -15 -8 -16 16 -17 292 0 216 -5 333 -16 409 -18 125
-37 158 -103 184 -77 29 -148 5 -189 -66 -18 -31 -19 -40 -6 -221 13 -184 9
-632 -6 -688 -7 -23 -10 -23 -73 -17 -138 14 -215 62 -246 156 -17 51 -55 97
-93 111 -65 25 -152 -1 -188 -56 -47 -72 6 -234 113 -346 91 -95 204 -141 406
-165 l48 -5 -7 -37 c-25 -154 -80 -397 -110 -492 -89 -283 -260 -525 -549
-774 -77 -67 -90 -75 -96 -59 -4 10 -8 167 -8 348 -1 308 -13 616 -27 724 l-6
47 98 42 c115 50 124 56 153 102 45 74 18 171 -59 211 -49 26 -91 24 -170 -11
-92 -40 -104 -39 -124 13 -26 68 -88 155 -189 264 -92 99 -95 104 -117 185
-14 50 -25 124 -28 187 -5 99 -4 104 14 97 11 -4 64 -19 119 -34 83 -21 122
-26 230 -26 158 0 215 18 300 96 90 82 160 249 201 481 24 139 24 219 -2 254
-50 68 -131 92 -199 57z"/>
  </g>
</svg>