<?xml version="1.0" encoding="UTF-8"?>
<svg xmlns="http://www.w3.org/2000/svg" viewBox="0 0 1024 1024" width="24" height="24">
  <g transform="translate(0,1024) scale(0.1,-0.1)" fill="#000000" stroke="none">
        <path d="M4394 8650 c-58 -29 -72 -48 -84 -110 -17 -90 -12 -608 10 -935 11
-165 20 -333 20 -372 0 -88 -5 -90 -107 -37 -142 73 -295 213 -391 356 -50 74
-212 344 -212 353 0 3 -18 34 -40 70 -22 36 -40 68 -40 71 0 19 -64 93 -90
104 -113 47 -356 -96 -376 -221 -6 -35 6 -61 96 -224 18 -33 44 -80 57 -104
13 -24 40 -68 59 -98 18 -29 34 -56 34 -59 0 -9 120 -183 167 -241 123 -154
224 -252 368 -361 100 -75 262 -158 414 -212 66 -23 126 -49 134 -59 20 -24
32 -76 62 -271 15 -96 35 -228 45 -293 21 -127 15 -167 -22 -167 -11 0 -72 24
-136 54 -64 30 -140 62 -169 71 -49 16 -53 16 -90 -1 -61 -29 -82 -58 -136
-184 -27 -63 -37 -102 -37 -144 1 -69 24 -95 140 -158 173 -93 257 -155 386
-283 107 -106 193 -231 208 -301 17 -81 57 -987 47 -1071 0 -7 -12 -13 -26
-13 -72 0 -301 326 -351 500 -32 108 -54 255 -52 340 3 138 -35 171 -207 178
-165 7 -249 -18 -276 -81 -22 -51 6 -338 48 -502 86 -337 307 -672 578 -876
70 -53 198 -138 237 -158 55 -28 59 -51 56 -373 l-3 -293 -86 -3 c-70 -2 -89
0 -105 15 -28 25 -94 114 -213 286 -57 81 -127 182 -157 225 -29 42 -79 115
-111 162 -32 46 -62 89 -66 95 -19 24 -250 376 -376 575 -278 435 -391 637
-393 702 0 24 15 58 59 128 33 52 73 120 90 150 124 230 202 615 204 1002 1
173 -4 190 -58 225 -34 23 -261 32 -319 13 -45 -15 -91 -59 -98 -92 -3 -13 -7
-111 -10 -218 -8 -274 -36 -455 -89 -582 -12 -29 -22 -38 -40 -38 -30 0 -40
12 -62 70 -9 25 -20 54 -25 65 -48 120 -120 386 -161 590 -39 196 -51 320 -56
575 -5 275 12 485 56 705 30 143 28 170 -11 206 -49 45 -109 69 -207 86 -80
13 -95 13 -143 -1 -71 -20 -90 -54 -118 -211 -73 -413 -80 -847 -21 -1300 59
-447 211 -919 462 -1432 49 -101 92 -196 95 -213 6 -26 4 -30 -15 -30 -45 0
-238 104 -307 165 -7 6 -31 26 -55 45 -124 99 -338 354 -492 586 -61 91 -76
104 -127 111 -34 5 -53 -1 -117 -33 -92 -47 -194 -142 -212 -197 -18 -53 -7
-77 95 -215 104 -141 229 -306 263 -347 51 -62 309 -312 366 -355 33 -25 69
-53 79 -62 11 -10 26 -18 33 -18 7 0 13 -4 13 -9 0 -5 8 -11 18 -15 34 -11
182 -105 182 -115 -1 -39 -87 -50 -450 -57 -310 -7 -316 -8 -346 -65 -13 -26
-15 -59 -12 -189 3 -153 4 -159 28 -185 14 -15 36 -31 50 -37 35 -13 571 -12
700 1 187 21 370 59 530 111 115 38 189 65 197 73 3 4 23 7 44 7 45 0 67 -24
175 -193 38 -60 94 -144 124 -187 30 -43 102 -149 160 -235 58 -86 137 -200
176 -254 40 -54 75 -107 78 -118 7 -21 -15 -53 -36 -53 -29 0 -180 -85 -239
-133 -149 -124 -240 -296 -269 -509 -14 -104 2 -233 31 -248 11 -6 571 -10
1518 -10 l1500 0 12 43 c18 67 12 241 -11 325 -22 78 -74 190 -120 257 -64 94
-222 226 -297 249 -33 10 -29 50 9 100 36 46 254 308 283 340 6 6 55 65 110
131 213 258 236 285 253 294 9 4 125 11 257 14 439 11 672 65 1000 229 413
206 707 584 816 1048 32 136 49 276 49 412 0 123 -1 127 -27 159 -42 50 -76
59 -220 59 -102 0 -135 -4 -162 -18 -62 -31 -70 -53 -81 -207 -17 -236 -67
-433 -150 -592 -43 -82 -130 -201 -187 -254 -110 -106 -273 -201 -441 -257
-94 -32 -280 -72 -333 -72 -38 0 -69 31 -62 62 5 20 117 199 231 369 17 27 32
51 32 53 0 3 18 32 40 65 22 33 40 63 40 67 0 4 6 15 14 23 8 9 23 32 34 51
11 19 43 75 71 123 71 123 138 246 269 498 121 234 311 720 374 959 30 112 68
327 68 381 0 43 -4 51 -40 82 -50 43 -131 67 -248 73 -72 5 -93 2 -121 -13
-39 -20 -69 -65 -70 -104 -2 -54 -85 -396 -111 -454 -4 -11 -20 -56 -35 -100
-30 -89 -105 -282 -142 -365 -103 -226 -265 -548 -296 -587 -5 -7 -20 -13 -32
-13 -12 0 -27 6 -33 13 -11 14 -61 326 -92 577 -11 91 -25 208 -32 260 -17
137 -16 271 2 306 61 121 222 274 432 411 116 75 135 120 98 226 -29 82 -84
163 -138 204 -73 55 -115 46 -277 -61 -70 -46 -128 -60 -138 -33 -2 6 -2 172
0 367 5 338 4 357 -15 390 -12 21 -37 43 -65 58 -40 20 -61 22 -169 23 -133 0
-163 -7 -205 -46 -26 -23 -27 -31 -34 -152 -4 -70 -8 -328 -9 -573 -3 -474 -5
-500 -51 -500 -11 0 -54 18 -95 40 -112 59 -166 53 -231 -28 -89 -110 -142
-280 -103 -327 7 -9 61 -53 119 -97 172 -132 332 -303 389 -413 26 -52 40
-128 107 -598 58 -403 89 -713 78 -782 -3 -22 -12 -53 -20 -68 -27 -54 -209
-296 -398 -531 -66 -82 -131 -163 -145 -181 -34 -44 -99 -122 -136 -164 -17
-20 -42 -49 -55 -65 -13 -16 -29 -34 -34 -40 -6 -6 -116 -135 -246 -286 -130
-151 -258 -299 -286 -328 l-50 -53 -89 3 -89 3 -3 425 c-1 234 0 439 3 457 11
61 148 177 339 287 53 31 98 56 101 56 2 0 32 13 67 29 134 62 243 87 448 106
l145 13 31 36 c42 49 54 102 54 241 0 134 -12 168 -65 191 -41 17 -191 19
-262 4 -27 -6 -82 -12 -123 -13 -95 -3 -96 4 -37 126 51 106 67 141 96 217 93
245 164 782 111 846 -33 38 -81 49 -225 49 -151 -1 -183 -9 -223 -59 -16 -21
-20 -47 -25 -158 -15 -325 -100 -594 -269 -848 -70 -105 -125 -170 -144 -170
-24 0 -31 37 -43 250 -11 187 -30 406 -63 722 l-12 116 26 39 c23 34 142 179
159 193 9 7 170 228 201 275 198 303 340 588 413 827 14 45 32 106 41 133 27
90 64 277 85 430 17 120 22 221 26 505 5 413 4 420 -67 460 -41 23 -55 25
-160 25 -105 0 -120 -3 -171 -28 -88 -43 -88 -41 -88 -389 -1 -401 -22 -595
-91 -853 -63 -234 -166 -469 -297 -676 -124 -198 -166 -239 -192 -190 -10 18
-60 321 -81 486 -5 39 -16 122 -24 185 -67 481 -86 762 -86 1271 0 464 3 441
-73 481 -35 19 -62 23 -167 26 -111 3 -130 1 -166 -18z"/>
  </g>
</svg>