<svg xmlns="http://www.w3.org/2000/svg" version="1.1" width="808.000000" height="794.000000" viewBox="0 0 808.000000 794.000000">
<g transform="translate(0.000000,794.000000) scale(0.100000,-0.100000)"
fill="#000000" stroke="none">
<path d="M3875 7729 c-101 -5 -176 -13 -204 -23 -24 -9 -56 -16 -72 -16 -15 0
-30 -4 -34 -9 -3 -6 -26 -13 -50 -17 -25 -3 -45 -10 -45 -15 0 -5 -7 -9 -15
-9 -9 0 -45 -13 -80 -30 -35 -16 -69 -30 -75 -30 -6 0 -18 -7 -26 -15 -9 -8
-24 -15 -35 -15 -10 0 -19 -5 -19 -11 0 -5 -13 -15 -30 -20 -16 -6 -30 -15
-30 -20 0 -5 -6 -9 -14 -9 -8 0 -16 -4 -18 -8 -1 -4 -24 -20 -50 -35 -27 -15
-48 -32 -48 -37 0 -6 -5 -10 -11 -10 -6 0 -16 -6 -24 -12 -26 -26 -55 -48 -62
-48 -15 0 -177 -175 -217 -235 -12 -17 -27 -37 -34 -45 -40 -47 -72 -95 -72
-106 0 -8 -4 -14 -9 -14 -11 0 -41 -56 -41 -77 0 -7 -3 -13 -8 -13 -9 0 -52
-93 -52 -115 0 -9 -4 -14 -9 -11 -5 3 -16 -21 -25 -54 -9 -33 -21 -62 -26 -65
-6 -4 -10 -17 -10 -31 0 -13 -4 -32 -9 -42 -13 -23 -28 -87 -37 -147 -3 -27
-10 -54 -14 -60 -4 -5 -13 -71 -20 -146 -10 -110 -10 -163 0 -270 7 -74 16
-138 20 -144 4 -5 10 -41 14 -80 4 -38 11 -74 17 -81 5 -6 13 -31 18 -55 5
-24 19 -71 30 -103 21 -60 110 -247 121 -256 4 -3 17 -24 30 -47 13 -24 27
-43 32 -43 4 0 8 -7 8 -15 0 -9 7 -18 15 -21 8 -4 15 -10 15 -15 0 -11 13 -28
53 -70 15 -15 27 -32 27 -36 0 -5 8 -16 18 -25 9 -8 35 -37 57 -62 22 -26 45
-53 50 -59 12 -13 55 -103 55 -113 0 -3 6 -20 14 -37 29 -66 37 -190 20 -305
-9 -59 -20 -111 -25 -117 -5 -5 -9 -16 -9 -25 0 -20 -42 -103 -57 -113 -7 -4
-13 -13 -13 -20 0 -6 -26 -49 -57 -95 -32 -46 -62 -92 -68 -101 -5 -9 -25 -32
-42 -51 -18 -19 -33 -38 -33 -42 0 -9 -37 -48 -45 -48 -8 0 -55 -51 -55 -60 0
-6 -5 -10 -10 -10 -6 0 -27 -18 -49 -40 -21 -22 -41 -40 -45 -40 -6 0 -44 -30
-72 -57 -7 -7 -17 -13 -23 -13 -6 0 -11 -4 -11 -10 0 -5 -5 -10 -12 -10 -6 0
-19 -6 -27 -14 -19 -16 -76 -49 -146 -84 -27 -13 -62 -30 -77 -38 -14 -8 -33
-14 -42 -14 -9 0 -16 -3 -16 -8 0 -4 -21 -13 -47 -20 -27 -7 -64 -17 -83 -23
-103 -31 -384 -37 -495 -10 -108 26 -141 35 -165 48 -14 7 -30 13 -36 13 -5 0
-29 9 -52 20 -22 11 -46 20 -52 20 -5 0 -10 4 -10 9 0 5 -13 14 -30 21 -16 7
-30 16 -30 21 0 5 -5 9 -11 9 -12 0 -99 71 -134 110 -73 79 -95 106 -95 118 0
6 -5 12 -10 12 -6 0 -16 12 -23 27 -6 15 -20 36 -29 45 -10 10 -18 24 -18 31
0 14 -96 107 -110 107 -4 0 -21 7 -36 15 -32 16 -169 21 -178 6 -3 -4 -20 -11
-37 -15 -30 -6 -43 -17 -97 -80 -36 -42 -45 -74 -44 -159 0 -72 14 -134 33
-147 9 -7 59 -79 59 -86 0 -3 4 -10 10 -17 5 -7 38 -48 72 -92 69 -89 217
-241 263 -270 17 -11 34 -25 38 -32 4 -7 12 -13 18 -13 5 0 21 -11 35 -25 14
-14 31 -25 39 -25 8 0 15 -4 15 -10 0 -5 7 -10 15 -10 8 0 15 -4 15 -9 0 -5 8
-11 18 -15 9 -3 24 -9 32 -14 37 -23 103 -52 117 -52 8 0 21 -7 29 -15 9 -8
24 -15 33 -15 10 0 38 -7 62 -16 68 -24 224 -55 334 -66 187 -18 477 4 630 47
33 10 78 21 100 27 22 5 50 16 62 24 12 8 29 14 38 14 8 0 23 4 33 9 81 41
191 91 201 91 6 0 11 4 11 9 0 5 8 11 18 15 20 6 50 25 70 44 7 6 20 12 27 12
8 0 18 6 22 13 11 17 73 50 80 43 7 -7 -5 -32 -64 -134 -24 -41 -43 -76 -43
-78 0 -3 -11 -20 -25 -38 -14 -18 -25 -40 -25 -48 0 -9 -7 -18 -15 -22 -8 -3
-15 -12 -15 -21 0 -8 -4 -15 -10 -15 -5 0 -10 -9 -10 -20 0 -11 -4 -20 -10
-20 -5 0 -10 -7 -10 -15 0 -9 -7 -18 -15 -21 -8 -4 -15 -12 -15 -20 0 -13 -16
-37 -47 -69 -7 -8 -13 -19 -13 -25 0 -6 -11 -23 -25 -38 -14 -15 -25 -31 -25
-35 0 -5 -6 -15 -12 -22 -30 -33 -38 -45 -38 -54 0 -5 -7 -11 -15 -15 -8 -3
-15 -12 -15 -21 0 -8 -4 -15 -10 -15 -5 0 -10 -5 -10 -10 0 -6 -13 -24 -30
-40 -17 -16 -30 -32 -30 -35 0 -3 -11 -16 -25 -29 -14 -13 -25 -28 -25 -35 0
-6 -4 -11 -9 -11 -5 0 -44 -34 -88 -75 -43 -41 -90 -81 -105 -88 -16 -6 -28
-18 -28 -24 0 -7 -7 -13 -15 -13 -8 0 -15 -4 -15 -10 0 -5 -7 -10 -15 -10 -8
0 -15 -3 -15 -8 0 -8 3 -6 -143 -80 -58 -28 -112 -52 -121 -52 -9 0 -16 -4
-16 -10 0 -5 -12 -10 -27 -10 -16 0 -37 -7 -47 -15 -11 -8 -32 -15 -47 -15
-15 0 -29 -4 -31 -9 -1 -6 -46 -15 -98 -20 -52 -6 -129 -15 -170 -21 -41 -5
-124 -9 -183 -10 -95 0 -113 -3 -155 -25 -54 -28 -92 -59 -92 -74 0 -5 -6 -14
-13 -18 -16 -10 -37 -91 -37 -143 0 -44 21 -120 32 -120 5 0 8 -6 8 -13 0 -17
53 -77 68 -77 7 0 12 -4 12 -9 0 -5 21 -16 47 -25 56 -19 370 -23 498 -5 91
12 220 37 250 49 11 4 67 22 125 41 58 19 107 37 108 42 2 4 10 7 18 7 13 0
187 82 239 113 11 7 46 27 78 45 31 19 57 38 57 43 0 5 7 9 15 9 8 0 15 4 15
8 0 4 14 16 30 26 17 9 43 29 58 43 15 14 44 39 66 57 61 49 207 196 256 256
25 30 48 56 53 58 4 2 7 10 7 17 0 8 9 19 20 25 11 6 20 15 20 21 0 14 61 101
78 112 6 4 12 15 12 23 0 8 8 24 18 35 11 10 25 32 33 47 7 15 27 45 43 66 17
22 39 55 49 75 11 20 22 38 26 41 3 3 17 25 30 50 14 25 27 47 30 50 10 8 31
43 46 78 9 17 19 32 23 32 4 0 16 20 27 45 11 25 23 45 26 45 4 0 12 12 18 28
14 31 46 90 82 147 13 22 33 57 44 78 11 20 23 37 27 37 12 0 10 -68 -2 -75
-5 -3 -10 -19 -10 -34 0 -15 -6 -41 -14 -57 -8 -16 -17 -53 -21 -81 -4 -29
-10 -53 -14 -53 -4 0 -12 -21 -18 -47 -18 -78 -64 -246 -73 -268 -5 -11 -11
-33 -13 -50 -3 -16 -9 -43 -15 -60 -14 -40 -34 -122 -40 -162 -2 -18 -8 -31
-12 -28 -4 3 -13 -19 -18 -48 -15 -77 -45 -191 -52 -197 -3 -3 -14 -34 -25
-70 -10 -36 -21 -69 -25 -75 -3 -5 -13 -30 -20 -55 -7 -25 -20 -52 -27 -61 -7
-8 -13 -25 -13 -36 0 -11 -6 -26 -14 -32 -8 -7 -17 -27 -20 -46 -4 -19 -11
-35 -16 -35 -6 0 -10 -7 -10 -15 0 -8 -4 -15 -10 -15 -5 0 -10 -9 -10 -20 0
-11 -4 -20 -10 -20 -5 0 -10 -9 -10 -20 0 -11 -4 -20 -9 -20 -5 0 -11 -8 -15
-17 -8 -25 -29 -57 -43 -66 -7 -4 -13 -14 -13 -22 0 -7 -4 -15 -8 -17 -4 -1
-19 -21 -32 -43 -29 -47 -37 -57 -115 -143 -79 -87 -100 -108 -165 -162 -29
-25 -60 -53 -69 -63 -8 -9 -20 -17 -26 -17 -6 0 -20 -8 -31 -18 -10 -10 -39
-29 -64 -44 -46 -27 -94 -64 -139 -108 -27 -26 -61 -125 -61 -177 0 -69 48
-175 91 -200 16 -10 29 -20 29 -24 0 -8 65 -27 109 -32 38 -4 122 8 166 25 33
13 88 49 93 61 2 4 10 7 17 7 8 0 20 6 27 13 7 6 25 18 40 26 15 8 36 21 45
30 10 9 36 29 58 46 22 16 55 43 74 60 85 76 156 143 185 174 17 19 39 41 49
50 9 8 17 21 17 28 0 7 7 13 15 13 8 0 15 5 15 11 0 7 16 31 35 55 19 23 35
47 35 53 0 6 5 11 10 11 6 0 10 7 10 15 0 8 5 15 10 15 6 0 18 17 28 38 9 20
23 41 30 45 6 4 12 13 12 19 0 6 7 19 16 29 17 19 68 110 85 152 6 15 14 27
19 27 4 0 10 10 13 22 8 38 31 92 45 106 6 7 12 20 12 29 0 8 7 27 15 41 22
42 52 113 66 159 6 24 16 43 20 43 4 0 11 20 15 45 3 25 10 45 15 45 5 0 9 11
9 24 0 13 7 37 15 52 8 16 15 39 15 51 0 12 4 24 9 27 5 3 12 26 15 50 4 25
13 58 21 73 7 15 16 48 20 73 4 25 10 47 14 50 8 6 49 159 61 225 5 28 14 59
19 70 11 21 44 149 68 255 8 36 18 67 24 68 5 2 9 17 9 33 0 16 4 37 9 47 6 9
13 38 16 65 3 26 10 47 16 47 5 0 9 13 9 30 0 16 6 49 14 72 8 24 18 61 21 83
4 22 10 51 15 65 4 14 13 45 21 70 7 25 16 49 20 54 8 9 29 -56 29 -91 0 -12
4 -24 9 -28 5 -3 13 -30 16 -60 4 -30 11 -55 16 -55 4 0 11 -27 15 -60 4 -33
10 -60 14 -60 4 0 10 -21 14 -46 3 -26 10 -52 15 -58 5 -6 11 -24 14 -41 2
-16 14 -66 26 -109 11 -44 21 -88 21 -98 0 -10 4 -26 9 -36 6 -9 17 -44 26
-77 9 -33 21 -73 27 -90 5 -16 14 -52 19 -78 4 -27 12 -54 17 -60 5 -7 12 -31
16 -55 3 -24 10 -51 15 -60 11 -22 31 -107 31 -132 0 -11 5 -20 10 -20 6 0 10
-7 10 -16 0 -14 15 -67 40 -139 18 -52 39 -123 45 -152 4 -18 11 -35 16 -38 5
-4 9 -17 9 -30 0 -13 4 -26 9 -29 5 -4 12 -24 16 -46 4 -22 10 -38 15 -35 4 3
11 -12 15 -33 4 -20 10 -39 14 -42 4 -3 20 -36 36 -75 16 -38 36 -81 46 -95 9
-14 20 -36 24 -50 9 -31 52 -109 71 -131 8 -8 14 -20 14 -25 0 -6 8 -19 18
-30 9 -10 24 -32 32 -49 8 -16 17 -32 20 -35 3 -3 31 -40 63 -82 32 -43 62
-78 67 -78 6 0 10 -9 10 -20 0 -11 7 -20 15 -20 8 0 15 -5 15 -11 0 -5 52 -62
115 -125 63 -63 115 -111 115 -107 0 4 12 -6 28 -22 29 -32 125 -105 137 -105
4 0 29 -16 55 -35 26 -19 51 -35 55 -35 3 0 21 -11 38 -24 61 -45 174 -59 272
-34 56 14 136 98 153 161 14 57 16 153 2 162 -5 3 -10 18 -10 31 0 29 -94 129
-145 154 -16 8 -32 17 -35 21 -3 3 -23 16 -45 29 -22 13 -44 30 -48 37 -5 7
-12 11 -18 8 -5 -4 -12 1 -15 9 -3 9 -10 16 -14 16 -13 0 -190 163 -190 175 0
2 -23 27 -50 57 -28 29 -72 85 -98 123 -26 39 -50 72 -54 73 -5 2 -8 13 -8 25
0 11 -3 17 -7 14 -4 -4 -13 5 -20 20 -7 16 -22 42 -32 58 -11 17 -20 37 -20
46 -1 9 -8 19 -16 23 -8 3 -15 11 -15 19 0 7 -9 30 -20 52 -11 22 -20 47 -20
57 0 10 -4 18 -10 18 -5 0 -14 19 -21 43 -6 23 -14 44 -18 47 -4 3 -13 30 -20
60 -8 30 -18 62 -22 70 -4 8 -15 42 -24 75 -9 33 -21 68 -26 77 -5 10 -9 27
-9 39 0 11 -6 35 -14 52 -13 32 -24 69 -51 177 -7 30 -18 71 -24 90 -20 69
-38 125 -43 140 -7 16 -26 105 -35 158 -3 18 -9 35 -14 38 -5 3 -9 18 -9 33 0
15 -7 41 -15 58 -8 17 -18 58 -21 91 -4 34 -10 59 -14 57 -7 -5 -13 19 -23 90
-2 17 -2 22 0 13 2 -10 11 -18 18 -18 8 0 17 -9 20 -20 3 -11 10 -20 14 -20 4
0 13 -16 21 -35 8 -19 16 -35 19 -35 4 0 13 -14 20 -32 8 -18 27 -50 41 -73
15 -22 36 -56 46 -75 10 -19 25 -39 32 -43 6 -4 12 -16 12 -25 0 -9 11 -30 25
-46 14 -16 25 -35 25 -42 0 -7 4 -14 8 -16 5 -1 26 -32 48 -68 21 -36 42 -67
45 -70 8 -6 35 -57 50 -92 6 -16 14 -28 18 -28 4 0 16 -16 27 -35 10 -19 22
-35 26 -35 5 0 8 -5 8 -10 0 -9 106 -159 120 -170 4 -3 11 -12 16 -21 10 -19
71 -95 97 -121 9 -10 17 -20 17 -21 0 -10 109 -117 119 -117 6 0 11 -7 11 -15
0 -8 4 -15 9 -15 6 0 21 -10 34 -22 100 -92 181 -158 194 -158 6 0 18 -9 27
-19 10 -11 33 -27 52 -36 19 -9 34 -20 34 -25 0 -6 9 -10 20 -10 11 0 20 -4
20 -8 0 -7 55 -37 173 -93 22 -11 45 -19 53 -19 8 0 14 -4 14 -10 0 -5 8 -10
19 -10 10 0 32 -7 47 -15 16 -8 37 -15 46 -15 9 0 20 -4 23 -10 3 -5 19 -10
34 -10 15 0 31 -4 36 -9 11 -10 105 -31 170 -38 22 -2 49 -8 60 -13 20 -9 99
-15 331 -26 91 -5 142 -3 170 5 73 23 128 53 156 85 35 40 68 127 68 179 0 48
-27 126 -52 151 -10 10 -18 20 -18 24 0 11 -85 62 -122 74 -18 6 -112 14 -208
18 -194 9 -305 22 -365 44 -22 8 -68 22 -102 32 -35 11 -63 22 -63 27 0 4 -9
7 -20 7 -11 0 -20 5 -20 10 0 6 -9 10 -19 10 -11 0 -23 5 -26 10 -3 6 -15 10
-26 10 -10 0 -19 5 -19 10 0 6 -6 10 -14 10 -8 0 -21 6 -28 12 -7 7 -26 20
-43 28 -16 8 -48 29 -71 47 -23 18 -44 33 -47 33 -5 0 -33 23 -145 124 -30 26
-78 76 -105 110 -28 33 -54 63 -57 66 -15 13 -80 109 -80 118 0 6 -4 12 -10
14 -14 5 -90 110 -90 125 0 7 -5 13 -10 13 -6 0 -14 8 -17 18 -4 9 -24 44 -46
77 -22 33 -51 81 -64 108 -14 26 -29 47 -34 47 -5 0 -9 7 -9 16 0 8 -11 30
-25 48 -14 18 -25 38 -25 44 0 6 -6 17 -12 24 -23 24 -68 122 -60 130 11 11
62 -14 62 -29 0 -7 3 -12 8 -11 4 2 39 -19 79 -45 40 -26 77 -47 82 -47 6 0
11 -4 11 -10 0 -5 9 -10 20 -10 11 0 20 -4 20 -9 0 -5 11 -12 25 -15 14 -4 25
-11 25 -16 0 -6 10 -10 23 -10 12 0 37 -9 55 -20 18 -11 40 -20 50 -20 10 0
26 -6 37 -14 11 -7 38 -16 60 -20 22 -4 45 -12 52 -18 7 -5 38 -14 70 -19 32
-5 81 -14 108 -20 161 -32 327 -40 480 -23 123 13 314 48 350 64 11 5 49 19
84 31 35 12 75 28 90 35 14 8 33 14 42 14 9 0 19 7 23 15 3 8 15 15 26 15 11
0 23 7 26 15 4 8 15 15 25 15 10 0 19 3 19 8 0 4 12 13 28 19 15 7 41 26 59
43 18 16 36 30 40 30 4 0 22 14 40 30 18 17 34 30 37 30 10 0 156 149 156 159
0 6 7 11 15 11 8 0 15 6 15 13 0 7 8 20 18 29 9 9 26 29 37 43 11 15 26 33 33
40 6 8 12 17 12 21 0 4 11 21 24 38 13 17 27 42 31 56 4 14 12 28 17 31 25 16
34 219 8 219 -4 0 -10 10 -14 23 -5 20 -47 69 -93 107 -49 40 -232 50 -268 14
-7 -8 -21 -14 -29 -14 -9 0 -16 -7 -16 -15 0 -8 -6 -15 -13 -15 -12 0 -47 -34
-47 -47 0 -3 -6 -14 -14 -22 -13 -15 -39 -59 -71 -118 -7 -13 -15 -20 -18 -16
-4 3 -7 1 -7 -7 0 -20 -178 -190 -216 -206 -19 -8 -34 -19 -34 -24 0 -6 -9
-10 -20 -10 -11 0 -20 -4 -20 -8 0 -5 -19 -17 -42 -27 -24 -10 -62 -27 -85
-37 -23 -10 -49 -18 -57 -18 -8 0 -18 -4 -21 -10 -3 -5 -19 -10 -34 -10 -15 0
-33 -6 -39 -13 -10 -9 -69 -12 -225 -12 -217 0 -289 10 -384 51 -17 8 -35 14
-40 14 -5 0 -28 9 -51 20 -22 11 -48 20 -56 20 -8 0 -16 4 -18 8 -1 4 -32 23
-68 41 -36 18 -86 49 -113 67 -26 19 -52 34 -57 34 -6 0 -13 7 -16 15 -4 8
-10 15 -14 15 -15 0 -144 123 -215 205 -27 32 -59 68 -70 81 -11 12 -29 35
-40 50 -11 15 -26 33 -32 40 -7 7 -13 16 -13 19 0 4 -10 21 -22 38 -30 42 -57
88 -64 110 -4 9 -10 17 -15 17 -5 0 -9 6 -9 13 0 7 -9 30 -20 52 -33 64 -45
142 -44 280 1 96 6 140 18 169 9 21 16 47 16 57 0 11 5 19 10 19 6 0 10 9 10
19 0 11 6 26 13 33 8 7 16 19 18 25 2 7 25 36 51 65 103 116 268 341 268 366
0 7 4 12 9 12 5 0 15 17 22 38 6 20 20 48 30 61 11 13 19 31 19 40 0 9 7 29
15 44 8 15 17 43 21 63 3 19 10 37 15 40 5 3 9 14 9 25 0 10 4 19 9 19 5 0 11
21 14 48 4 26 11 70 17 97 28 129 39 444 19 565 -31 192 -50 280 -60 280 -5 0
-9 8 -9 19 0 19 -28 98 -60 166 -10 22 -22 51 -26 65 -3 14 -10 27 -14 30 -3
3 -17 25 -29 50 -32 65 -84 146 -115 180 -14 16 -26 32 -26 36 0 3 -12 18 -27
34 -16 15 -37 41 -48 56 -33 48 -172 177 -240 224 -27 19 -56 41 -63 48 -7 6
-17 12 -22 12 -5 0 -15 6 -22 13 -25 23 -77 57 -87 57 -9 0 -90 42 -116 60 -5
3 -32 15 -60 25 -27 10 -54 21 -60 26 -5 4 -27 10 -48 14 -20 4 -40 11 -43 16
-3 5 -18 9 -35 9 -16 0 -37 4 -47 9 -71 37 -320 54 -587 40z"/>
</g>
</svg>
