<svg xmlns="http://www.w3.org/2000/svg" version="1.1" width="983.000000" height="548.000000" viewBox="0 0 983.000000 548.000000">
<g transform="translate(0.000000,548.000000) scale(0.100000,-0.100000)"
fill="#000000" stroke="none">
<path d="M3945 5264 c-155 -33 -228 -117 -196 -225 12 -40 63 -98 116 -134 46
-30 185 -172 242 -245 170 -220 291 -505 332 -787 14 -93 14 -303 0 -378 -12
-66 -14 -69 -169 -235 -58 -63 -124 -135 -146 -160 -21 -25 -41 -47 -44 -50
-3 -3 -35 -39 -70 -80 -36 -41 -69 -80 -75 -86 -165 -189 -411 -434 -560 -559
-33 -27 -62 -52 -65 -56 -3 -3 -72 -56 -155 -117 -82 -62 -155 -116 -162 -122
-7 -5 -15 -10 -18 -10 -3 0 -31 -17 -63 -39 -168 -113 -532 -285 -634 -299
-38 -5 -51 10 -29 33 14 15 72 191 93 285 14 59 22 137 25 255 5 148 3 184
-17 280 -27 140 -59 235 -120 360 -54 112 -103 182 -188 268 -56 58 -89 83
-98 74 -3 -3 0 -51 6 -107 15 -148 13 -292 -6 -364 -25 -96 -65 -156 -171
-253 -191 -174 -249 -237 -284 -309 -32 -65 -34 -74 -34 -180 l0 -111 -80 -7
c-60 -4 -94 -13 -142 -37 -103 -51 -155 -123 -239 -330 -89 -220 -163 -325
-258 -368 -81 -35 -276 -74 -484 -95 -24 -2 -46 -7 -48 -9 -5 -5 70 -54 121
-79 128 -65 254 -99 435 -117 139 -15 319 4 485 50 52 15 155 48 180 59 33 13
208 100 230 113 26 16 163 108 185 125 15 11 36 6 141 -32 135 -49 367 -126
524 -174 55 -16 125 -38 155 -47 30 -9 100 -28 155 -41 55 -13 116 -28 135
-34 435 -117 1034 -190 1556 -190 525 0 1090 63 1539 171 50 12 105 24 123 26
18 3 35 9 38 14 3 5 16 9 29 9 13 0 34 4 47 9 13 5 50 17 83 26 88 25 110 32
215 64 52 16 98 27 102 25 4 -3 8 -33 8 -67 0 -71 22 -269 45 -401 44 -266
121 -371 270 -370 40 1 73 7 100 21 57 30 160 114 233 191 109 116 252 297
252 320 0 6 4 12 8 14 11 4 92 148 134 238 92 196 167 508 168 697 l0 51 73
53 c250 181 527 428 746 664 219 236 262 286 367 425 83 110 217 308 253 373
180 323 247 541 282 914 20 214 -7 302 -114 370 -75 48 -245 66 -397 42 -76
-11 -91 -7 -205 67 -30 18 -56 34 -59 34 -3 0 -29 11 -58 24 -138 62 -379 131
-545 156 -125 19 -357 40 -443 40 -77 0 -327 -19 -470 -35 -320 -36 -838 -172
-1143 -301 -44 -18 -84 -31 -89 -28 -5 4 -58 43 -117 88 -94 71 -171 123 -279
187 -128 76 -345 184 -467 234 -49 20 -99 40 -110 45 -115 51 -422 129 -646
164 -194 30 -417 34 -534 10z m4183 -1201 l74 -17 -5 -33 c-3 -17 -25 -58 -48
-90 -117 -162 -248 -255 -407 -288 -74 -16 -120 -12 -172 15 -79 40 -99 102
-60 188 21 46 115 152 136 152 7 0 14 3 16 8 5 11 97 51 153 67 72 19 226 19
313 -2z"/>
</g>
</svg>
