<?xml version="1.0" encoding="UTF-8"?>
<svg xmlns="http://www.w3.org/2000/svg" viewBox="0 0 567 535" width="24" height="24">
<g transform="translate(0.000000,535.000000) scale(0.100000,-0.100000)" fill="#000000" stroke="none">
<path d="M2740 5331 c-54 -17 -120 -58 -235 -146 -148 -113 -516 -391 -1120
-844 -253 -190 -464 -350 -470 -354 -13 -10 -47 -36 -439 -330 -324 -244 -384
-295 -416 -358 -26 -50 -38 -130 -29 -189 11 -73 17 -89 57 -149 63 -95 178
-149 291 -138 108 12 74 -11 844 568 121 90 231 173 247 184 15 11 79 58 141
105 63 47 188 140 279 208 91 68 173 130 182 137 15 12 373 282 667 502 46 35
90 63 96 63 7 0 81 -52 166 -116 252 -188 369 -276 729 -544 14 -10 102 -76
195 -146 294 -221 528 -396 590 -441 33 -24 68 -51 78 -59 111 -91 554 -413
594 -431 76 -35 172 -41 247 -14 83 29 121 57 166 123 73 109 76 244 7 359
-26 44 -61 75 -187 170 -85 64 -308 230 -495 370 -308 231 -851 640 -1575
1185 -332 250 -344 258 -410 278 -56 17 -156 20 -200 7z M4472 5204 c-42 -21
-86 -67 -109 -113 -15 -31 -18 -69 -21 -266 l-3 -230 38 -37 c21 -20 91 -75
157 -122 65 -48 130 -96 145 -107 261 -201 320 -242 327 -224 4 8 5 226 2 483
l-3 467 -25 50 c-16 32 -41 61 -68 80 l-44 30 -181 3 c-152 2 -187 0 -215 -14z
M2754 4258 c-33 -24 -174 -129 -314 -235 -140 -105 -374 -281 -520 -390 -146
-110 -297 -224 -336 -254 -40 -30 -84 -63 -99 -74 -32 -23 -274 -205 -320
-241 -39 -30 -72 -55 -272 -203 -93 -68 -178 -133 -191 -144 l-22 -20 1 -1236
c0 -1152 1 -1239 18 -1279 24 -59 72 -109 134 -137 l52 -25 643 0 642 0 0 718
c0 791 -1 780 62 856 17 21 54 49 82 62 l51 24 466 0 c509 0 519 -1 590 -59
19 -16 45 -50 59 -77 l25 -49 5 -735 5 -735 638 -3 c633 -2 638 -2 688 19 58
25 131 101 151 157 9 25 13 90 13 197 0 88 -1 644 -3 1235 l-2 1075 -116 85
c-139 101 -452 334 -808 601 -142 107 -268 201 -280 209 -42 30 -273 203 -361
270 -49 38 -173 133 -275 211 -214 165 -294 219 -325 219 -11 0 -48 -19 -81
-42z"/>
</g>
</svg>