<?xml version="1.0" standalone="no"?>
<!DOCTYPE svg PUBLIC "-//W3C//DTD SVG 20010904//EN"
 "http://www.w3.org/TR/2001/REC-SVG-20010904/DTD/svg10.dtd">
<svg version="1.0" xmlns="http://www.w3.org/2000/svg"
 width="557.000000pt" height="564.000000pt" viewBox="0 0 557.000000 564.000000"
 preserveAspectRatio="xMidYMid meet">
<metadata>
Created by potrace 1.16, written by Peter Selinger 2001-2019
</metadata>
<g transform="translate(0.000000,564.000000) scale(0.100000,-0.100000)"
fill="#000000" stroke="none">
<path d="M5145 5254 c-221 -187 -277 -234 -590 -495 -231 -193 -249 -208 -244
-212 2 -2 40 -28 84 -57 45 -30 126 -99 187 -161 l107 -109 34 58 c50 82 537
934 626 1096 12 21 21 45 19 52 -2 8 -92 -61 -223 -172z"/>
<path d="M3684 4510 c-208 -29 -364 -109 -508 -260 -248 -260 -404 -691 -461
-1270 -26 -268 -35 -337 -65 -491 -100 -503 -352 -933 -667 -1139 -80 -53
-213 -111 -317 -140 -78 -22 -222 -44 -241 -36 -10 3 -9 19 2 78 42 222 46
395 13 523 -43 165 -158 344 -298 460 -67 56 -169 121 -178 113 -2 -3 -13 -54
-24 -113 -11 -60 -43 -215 -71 -345 -46 -214 -51 -243 -46 -330 7 -153 55
-251 179 -369 38 -36 68 -69 68 -74 0 -4 -19 -5 -42 -2 -54 8 -207 -11 -261
-32 -23 -9 -60 -29 -82 -44 -93 -62 -120 -103 -269 -399 -80 -157 -161 -314
-180 -349 -26 -45 -33 -67 -25 -71 24 -16 171 -21 269 -10 236 26 401 100 545
244 89 89 214 280 257 389 7 19 16 27 27 24 9 -3 57 -17 106 -31 185 -55 548
-106 750 -106 214 0 523 40 731 95 356 93 685 250 964 458 124 93 375 345 471
472 179 236 309 499 404 811 65 214 79 324 80 616 0 141 -3 259 -6 262 -3 3
-39 -12 -81 -33 -141 -73 -277 -76 -416 -8 -76 37 -122 79 -122 111 0 27 45
76 69 76 9 0 50 -16 91 -36 138 -67 276 -56 365 30 55 52 57 73 15 199 -56
167 -145 320 -249 431 -117 124 -301 235 -454 275 -91 24 -254 34 -343 21z
m112 -569 c143 -65 126 -267 -25 -312 -51 -15 -99 -5 -149 31 -32 23 -44 41
-56 81 -26 87 7 163 88 200 52 23 90 23 142 0z m231 -1142 c90 -34 163 -186
163 -340 0 -211 -103 -414 -278 -548 -24 -19 -78 -53 -120 -77 -88 -51 -138
-58 -147 -21 -13 59 -35 625 -26 672 28 143 125 252 272 305 62 22 96 24 136
9z"/>
<path d="M3675 3845 c-52 -51 -17 -135 55 -135 31 0 80 43 80 71 0 75 -85 115
-135 64z"/>
</g>
</svg>
