<svg xmlns="http://www.w3.org/2000/svg" version="1.1" width="744.000000" height="572.000000" viewBox="0 0 744.000000 572.000000">
<g transform="translate(0.000000,572.000000) scale(0.100000,-0.100000)"
fill="#000000" stroke="none">
<path d="M3864 5505 c-104 -23 -172 -57 -354 -177 -204 -134 -351 -218 -505
-287 -148 -66 -244 -94 -471 -136 -106 -19 -216 -44 -245 -54 -200 -68 -322
-186 -385 -371 -15 -44 -19 -84 -19 -200 0 -127 3 -153 24 -210 13 -36 28 -70
33 -77 7 -9 32 2 96 45 202 135 374 234 593 343 66 32 121 59 123 59 2 0 38
16 80 35 207 97 528 195 791 240 304 53 562 69 933 61 280 -7 293 -6 289 11
-3 10 -11 44 -17 76 -59 295 -229 509 -481 604 -47 17 -114 37 -150 42 -87 15
-260 12 -335 -4z"/>
<path d="M4050 4500 c-627 -54 -1147 -213 -1615 -495 -501 -302 -762 -585
-852 -927 -24 -91 -27 -121 -28 -263 0 -140 3 -169 23 -234 48 -153 200 -412
309 -527 104 -109 349 -299 478 -370 11 -6 57 -32 102 -57 457 -260 940 -411
1503 -469 156 -16 591 -16 765 1 262 24 662 98 763 141 33 14 28 33 -27 103
-55 70 -189 266 -218 318 -191 342 -285 675 -299 1054 -13 341 64 676 238
1032 76 156 144 265 262 417 42 54 76 102 76 106 0 27 -422 119 -710 155 -149
19 -617 28 -770 15z"/>
<path d="M5909 4113 c-52 -56 -212 -266 -266 -351 -285 -441 -350 -1029 -168
-1517 47 -127 130 -292 207 -415 71 -111 183 -263 226 -303 l30 -29 124 60
c213 105 405 227 558 356 83 70 380 377 431 446 142 192 182 290 183 455 1
166 -34 257 -168 435 -22 30 -43 57 -46 60 -3 3 -49 55 -102 115 -266 304
-511 498 -812 645 -156 76 -165 78 -197 43z m474 -787 c76 -38 158 -127 187
-203 18 -47 21 -74 18 -148 -4 -104 -23 -154 -90 -230 -77 -87 -148 -118 -272
-117 -144 1 -238 53 -317 175 -126 194 -25 467 201 544 20 7 74 11 125 10 75
-2 99 -7 148 -31z"/>
<path d="M660 3984 c-113 -30 -197 -91 -264 -193 -53 -79 -77 -138 -111 -268
-78 -304 -100 -675 -64 -1073 48 -529 276 -820 624 -797 169 12 339 73 460
164 53 41 157 159 182 207 15 28 15 29 -49 95 -105 108 -139 165 -181 297 -66
208 -75 511 -23 708 46 172 110 290 218 400 l58 59 -43 46 c-105 114 -264 236
-388 298 -133 67 -298 89 -419 57z"/>
<path d="M1830 1653 c-17 -26 -45 -83 -62 -128 -32 -77 -33 -85 -33 -225 l0
-145 39 -80 c52 -107 168 -223 276 -278 130 -65 210 -81 405 -81 183 0 280 15
438 68 168 57 392 171 392 201 0 6 -49 27 -110 47 -60 21 -153 54 -205 74 -96
37 -453 209 -545 262 -27 16 -68 39 -90 52 -65 36 -323 199 -383 241 -30 22
-64 39 -74 39 -11 0 -30 -19 -48 -47z"/>
<path d="M3784 834 c-92 -152 -125 -311 -88 -434 21 -73 97 -148 179 -179 53
-20 74 -22 170 -19 90 4 127 11 204 37 240 81 437 242 534 437 41 81 73 183
61 194 -5 5 -61 4 -124 -2 -112 -10 -606 -5 -811 8 l-96 6 -29 -48z"/>
</g>
</svg>
