<svg xmlns="http://www.w3.org/2000/svg" version="1.1" width="911.000000" height="772.000000" viewBox="0 0 911.000000 772.000000">
<g transform="translate(0.000000,772.000000) scale(0.100000,-0.100000)"
fill="#000000" stroke="none">
<path d="M2470 7505 c-181 -33 -365 -95 -500 -168 -30 -17 -65 -35 -77 -41
-13 -6 -23 -14 -23 -18 0 -5 -5 -8 -11 -8 -7 0 -44 -25 -83 -56 -346 -274
-528 -657 -527 -1109 1 -409 158 -749 481 -1039 122 -109 445 -298 535 -313
41 -7 93 20 106 55 7 18 7 46 0 87 -12 64 -42 285 -63 455 -19 160 -16 682 6
840 21 155 41 262 68 365 19 74 70 227 84 254 8 14 14 29 14 33 0 17 102 227
247 508 12 25 23 55 23 68 0 31 -26 79 -49 92 -26 14 -140 11 -231 -5z"/>
<path d="M6435 7496 c-42 -42 -32 -83 75 -296 147 -295 206 -443 263 -660 70
-264 100 -640 78 -985 -13 -204 -20 -255 -62 -518 -17 -103 -28 -198 -25 -210
3 -13 17 -36 31 -52 23 -23 32 -27 66 -22 63 8 257 108 409 209 186 125 362
313 471 505 113 196 159 382 159 634 0 540 -271 994 -742 1244 -46 24 -103 51
-128 60 -25 9 -54 21 -65 25 -93 40 -277 79 -407 87 -95 6 -97 5 -123 -21z"/>
<path d="M3203 7315 c-11 -8 -33 -36 -48 -62 -15 -27 -58 -97 -95 -158 -69
-113 -351 -586 -381 -640 -9 -16 -49 -82 -88 -145 -40 -63 -86 -144 -104 -180
l-32 -65 1 -250 c1 -249 15 -401 60 -663 18 -106 52 -152 112 -152 52 0 299
101 423 172 88 51 210 147 299 237 244 245 364 520 377 864 10 252 -33 465
-135 662 -54 104 -72 132 -160 245 -110 141 -170 176 -229 135z"/>
<path d="M5854 7310 c-57 -29 -153 -136 -229 -255 -21 -33 -45 -71 -54 -85
-61 -92 -121 -273 -145 -437 -19 -131 -20 -189 -5 -321 26 -236 94 -424 225
-622 145 -219 367 -408 617 -525 152 -70 254 -91 301 -60 32 21 41 49 65 185
48 273 55 350 55 600 1 286 -1 294 -96 453 -33 56 -70 118 -81 137 -11 19 -28
49 -37 65 -10 17 -31 53 -47 80 -17 28 -57 95 -91 150 -33 55 -69 116 -79 135
-29 50 -48 83 -161 280 -56 96 -111 187 -124 202 -32 38 -65 43 -114 18z"/>
<path d="M4041 5919 c-88 -17 -183 -95 -221 -182 -20 -45 -22 -66 -22 -283 0
-129 -3 -236 -6 -238 -4 -2 -79 -21 -167 -41 -279 -64 -533 -143 -685 -212
-202 -91 -391 -206 -510 -309 -98 -84 -238 -235 -302 -325 -87 -122 -179 -307
-209 -424 -4 -16 -13 -48 -19 -70 -20 -76 -39 -200 -41 -275 -4 -102 -4 -102
-47 -78 -160 89 -295 204 -404 344 -40 52 -90 122 -110 157 -21 34 -41 67 -46
72 -10 12 -75 163 -97 224 -25 73 -72 280 -90 401 -18 117 -28 148 -62 186
-56 64 -172 73 -240 18 -64 -51 -75 -84 -69 -194 11 -210 100 -549 191 -731
85 -170 232 -375 365 -508 102 -103 253 -225 335 -271 22 -12 51 -30 65 -40
14 -9 75 -41 135 -70 61 -29 121 -58 133 -65 22 -11 66 -96 79 -152 6 -24 7
-24 -122 -52 -148 -32 -330 -45 -445 -31 -93 10 -220 39 -265 60 -11 5 -40 17
-65 28 -173 73 -370 254 -482 443 -38 63 -77 126 -88 141 -44 56 -152 78 -218
44 -86 -45 -125 -134 -98 -226 30 -100 157 -286 288 -421 88 -92 296 -259 322
-259 3 0 27 -13 54 -29 135 -79 336 -139 545 -161 167 -18 391 8 699 82 l127
30 60 -52 c33 -28 62 -58 65 -65 3 -9 -13 -19 -52 -30 -31 -9 -66 -21 -77 -25
-11 -4 -72 -24 -135 -45 -401 -127 -666 -259 -746 -370 -80 -111 -109 -209
-125 -421 -18 -249 13 -654 56 -729 61 -107 226 -118 307 -20 29 35 40 102 28
185 -18 129 -24 535 -10 618 23 136 85 187 355 292 11 4 34 13 50 20 84 34
342 112 565 171 41 11 97 26 123 34 53 16 77 10 117 -27 14 -13 37 -31 53 -41
15 -10 27 -21 27 -26 0 -5 -38 -30 -84 -54 -214 -114 -421 -292 -483 -418 -45
-89 -57 -154 -50 -279 9 -159 47 -279 162 -514 109 -219 225 -407 287 -462
102 -91 280 -34 307 99 13 60 -5 113 -73 210 -79 114 -110 168 -191 332 -71
144 -125 297 -125 353 1 86 73 170 238 279 81 53 358 193 383 193 7 0 49 -23
93 -52 45 -28 105 -66 134 -85 78 -50 337 -176 433 -211 199 -73 441 -122 604
-122 84 0 283 24 365 44 126 32 186 48 205 55 11 5 61 23 110 41 87 31 327
145 410 194 22 13 78 49 123 80 46 31 91 56 99 56 15 0 63 -21 223 -98 65 -31
175 -96 190 -112 3 -3 18 -14 34 -24 48 -30 117 -98 144 -140 22 -36 24 -47
19 -115 -3 -43 -17 -109 -32 -151 -42 -118 -139 -308 -227 -442 -97 -148 -117
-190 -118 -244 0 -135 131 -221 257 -169 53 23 67 37 153 165 62 93 180 293
180 305 0 2 15 36 34 77 54 115 65 146 96 256 87 309 24 508 -224 712 -74 60
-214 153 -305 202 -28 16 -51 32 -51 37 0 5 17 21 38 37 20 16 48 39 62 51 14
13 32 23 40 23 30 0 324 -83 567 -161 276 -87 509 -197 555 -260 27 -36 37
-86 44 -229 4 -87 1 -180 -11 -305 -31 -317 -31 -317 -2 -362 38 -61 89 -88
164 -88 52 0 68 4 104 30 23 17 50 46 60 65 33 65 53 282 53 560 1 234 -1 263
-23 350 -42 172 -96 248 -239 341 -63 42 -212 119 -229 119 -2 0 -30 12 -61
26 -71 33 -217 87 -342 126 -52 17 -104 34 -115 39 -11 4 -42 14 -69 22 -28 8
-51 18 -53 23 -2 5 25 37 59 71 l63 61 130 -33 c223 -57 319 -73 530 -90 201
-16 494 50 694 157 199 105 336 221 470 396 219 288 247 462 89 543 -51 26
-133 25 -178 -2 -43 -27 -54 -40 -88 -109 -32 -66 -100 -188 -116 -207 -82
-102 -209 -217 -286 -259 -19 -10 -37 -21 -40 -25 -9 -9 -81 -40 -153 -66 -97
-34 -214 -53 -322 -53 -101 0 -304 24 -380 44 -27 8 -62 17 -77 20 -35 8 -35
14 0 101 26 64 32 71 68 83 71 24 241 113 346 181 168 110 329 256 469 428
204 249 355 631 400 1010 15 131 5 176 -56 232 -71 65 -148 75 -222 30 -66
-41 -81 -73 -102 -220 -37 -250 -64 -352 -138 -529 -89 -211 -240 -405 -420
-543 -66 -50 -207 -137 -223 -137 -6 0 -10 24 -10 53 -1 149 -57 400 -122 542
-130 283 -301 487 -588 701 -256 192 -676 358 -1102 437 l-123 23 -6 230 c-3
126 -9 240 -13 254 -27 89 -92 166 -165 198 -131 56 -274 22 -371 -86 -70 -79
-80 -123 -80 -365 0 -232 18 -209 -165 -205 l-120 3 -5 225 c-5 201 -8 230
-27 271 -60 134 -207 208 -352 178z"/>
</g>
</svg>
