<?xml version="1.0" encoding="UTF-8"?>
<svg xmlns="http://www.w3.org/2000/svg" viewBox="0 0 1024 1024" width="24" height="24">
<g transform="translate(0.000000,1024.000000) scale(0.100000,-0.100000)" fill="#000000" stroke="none">
<path d="M4185 7378 c-268 -30 -532 -130 -770 -292 -132 -89 -333 -294 -424
-430 -217 -327 -314 -686 -283 -1045 20 -223 68 -402 162 -599 184 -387 515
-689 914 -838 50 -18 92 -31 95 -28 4 3 7 492 8 1087 l2 1082 1013 5 1013 5
-3 23 c-4 38 -88 199 -160 306 -112 168 -319 368 -494 480 -309 196 -703 286
-1073 244z M4335 5888 c-3 -7 -4 -418 -3 -913 l3 -900 125 2 c275 3 585 105
840 275 363 243 626 634 711 1055 15 79 23 161 26 301 l6 192 -852 0 c-672 0
-853 -3 -856 -12z M6400 5771 c0 -582 -205 -1075 -606 -1461 -369 -355 -819
-535 -1384 -553 l-75 -2 -3 -415 c-1 -228 0 -425 3 -437 l5 -23 1480 0 1480 0
0 1510 0 1510 -450 0 -450 0 0 -129z"/>
</g>
</svg>