<svg xmlns="http://www.w3.org/2000/svg" version="1.1" width="504.000000" height="694.000000" viewBox="0 0 504.000000 694.000000">
<g transform="translate(0.000000,694.000000) scale(0.100000,-0.100000)"
fill="#000000" stroke="none">
<path d="M2430 6715 c-46 -24 -94 -70 -165 -160 -44 -55 -85 -112 -85 -118 0
-2 -23 -42 -50 -88 -66 -109 -144 -270 -210 -434 -17 -44 -35 -89 -40 -100 -5
-11 -16 -42 -25 -70 -10 -27 -21 -59 -25 -70 -88 -223 -185 -652 -230 -1011
-37 -298 -45 -518 -32 -802 18 -370 36 -523 102 -877 21 -113 60 -229 88 -265
64 -81 247 -139 557 -175 267 -32 548 -5 810 77 144 45 179 90 229 288 56 218
90 477 116 880 17 259 9 591 -20 825 -5 44 -15 121 -21 170 -9 78 -20 137 -69
380 -29 140 -130 478 -196 653 -23 62 -29 77 -77 182 -14 30 -35 78 -47 105
-31 70 -103 213 -129 255 -11 19 -24 42 -28 50 -18 40 -107 162 -162 221 -99
108 -194 136 -291 84z"/>
<path d="M2929 6601 c120 -177 254 -434 349 -671 105 -263 241 -752 277 -1002
4 -27 11 -48 14 -48 46 0 294 111 389 175 30 19 56 35 58 35 7 0 31 20 99 86
70 67 82 99 71 179 -5 38 -68 183 -109 250 -47 76 -200 300 -240 350 -82 101
-336 346 -437 421 -191 142 -361 239 -482 274 l-28 9 39 -58z"/>
<path d="M2050 6621 c-224 -98 -452 -261 -670 -481 -138 -139 -205 -218 -303
-360 -65 -95 -78 -117 -146 -240 -119 -214 -110 -282 56 -423 18 -15 35 -27
37 -27 3 0 25 -14 50 -30 108 -73 370 -188 401 -176 7 2 15 22 18 43 15 121
85 430 134 588 39 128 87 275 105 320 11 28 24 59 28 70 92 231 204 456 309
621 89 138 88 142 -19 95z"/>
<path d="M1846 2398 c-181 -206 -190 -510 -21 -731 19 -25 35 -50 35 -55 0 -6
-20 -37 -45 -71 -25 -34 -45 -65 -45 -70 0 -5 -3 -11 -8 -13 -4 -1 -50 -61
-102 -133 -203 -279 -339 -427 -718 -786 l-112 -107 0 -49 c0 -93 77 -146 154
-106 62 33 500 451 618 590 32 38 73 86 93 108 66 75 223 287 309 418 64 98
56 94 149 62 26 -10 47 -22 47 -29 0 -23 -32 -143 -52 -201 -44 -122 -120
-258 -190 -341 -30 -35 -181 -182 -238 -231 -180 -154 -209 -184 -216 -218
-15 -81 25 -135 104 -143 48 -4 50 -3 133 64 188 152 361 319 444 429 72 96
152 271 204 445 13 41 29 93 36 115 l13 40 70 3 70 3 6 -33 c20 -106 37 -314
37 -456 0 -175 -9 -262 -47 -441 -28 -133 -29 -162 -9 -200 16 -32 69 -61 112
-61 63 0 93 52 127 220 30 151 35 188 47 324 12 147 3 344 -26 571 -8 60 -11
112 -7 116 4 4 34 16 67 28 l59 21 76 -78 c248 -254 366 -426 499 -727 23 -51
74 -207 101 -310 12 -44 26 -93 32 -108 29 -74 163 -75 196 -2 15 31 15 88 2
129 -5 17 -23 78 -40 136 -17 58 -35 114 -40 125 -5 11 -25 61 -44 112 -86
228 -238 475 -421 688 -33 38 -71 83 -85 99 -14 16 -31 35 -37 42 -19 19 -16
31 13 64 58 64 112 180 128 276 30 166 -16 333 -127 467 -44 53 -62 57 -156
33 -186 -48 -304 -59 -563 -53 -234 5 -340 18 -501 61 -32 9 -64 16 -71 16 -8
0 -35 -24 -60 -52z"/>
<path d="M995 1493 c-211 -19 -402 -108 -543 -252 -59 -60 -112 -126 -112
-139 0 -6 -3 -12 -7 -14 -24 -10 -87 -161 -110 -262 -28 -125 -13 -185 53
-206 81 -27 139 23 155 134 24 170 130 334 275 426 146 92 231 110 528 110
l211 0 73 99 c39 55 72 102 72 105 0 6 -526 5 -595 -1z"/>
<path d="M3470 1492 c0 -6 17 -32 38 -59 21 -26 53 -69 70 -95 l33 -48 198 0
c305 0 402 -22 546 -125 154 -111 240 -254 261 -434 5 -51 12 -66 36 -86 55
-46 109 -45 153 3 37 39 40 80 16 172 -46 176 -113 300 -223 411 -77 79 -113
109 -127 109 -5 0 -14 7 -21 15 -24 29 -184 98 -285 122 -73 19 -695 31 -695
15z"/>
</g>
</svg>
