<?xml version="1.0" encoding="UTF-8"?>
<svg xmlns="http://www.w3.org/2000/svg" viewBox="0 0 1024 1024" width="24" height="24">
  <g transform="translate(0,1024) scale(0.1,-0.1)" fill="#000000" stroke="none">
        <path d="M2816 8404 c-190 -41 -345 -178 -419 -371 l-22 -58 -3 -1527 -3
-1528 88 0 c123 0 273 24 387 60 104 33 165 63 289 142 255 161 518 223 783
184 169 -25 293 -72 459 -174 141 -87 184 -108 280 -141 147 -49 227 -62 413
-68 182 -6 257 1 412 39 143 35 218 68 421 189 203 122 357 164 594 163 117
-1 156 -5 236 -27 129 -34 249 -87 367 -161 163 -103 227 -131 402 -176 59
-16 199 -30 287 -30 l83 0 0 770 0 770 -659 0 c-702 0 -747 3 -876 51 -153 57
-306 206 -377 367 -53 120 -52 98 -58 842 l-5 695 -1505 2 c-1295 1 -1515 -1
-1574 -13z"/>
    <path d="M6262 7718 l3 -623 24 -59 c32 -79 89 -139 170 -179 l66 -32 629 -3
c350 -2 633 1 638 6 5 5 -4 21 -20 38 -351 356 -1486 1474 -1497 1474 -14 0
-16 -59 -13 -622z"/>
    <path d="M3695 4954 c-137 -18 -222 -48 -345 -124 -115 -71 -238 -132 -360
-178 -129 -49 -359 -92 -492 -92 -46 0 -93 -3 -105 -6 l-23 -6 0 -1097 c0
-669 4 -1119 10 -1156 34 -209 176 -378 375 -446 l70 -24 2290 0 2290 0 72 23
c143 46 266 149 328 276 67 134 64 86 65 1312 l0 1111 -52 7 c-29 3 -84 6
-123 6 -97 1 -300 40 -431 85 -106 36 -257 109 -339 165 -137 94 -291 142
-454 143 -170 1 -259 -29 -471 -158 -265 -161 -541 -234 -885 -235 -348 0
-633 80 -910 256 -86 54 -174 95 -249 113 -73 19 -208 31 -261 25z"/>
  </g>
</svg>