<?xml version="1.0" encoding="UTF-8"?>
<svg xmlns="http://www.w3.org/2000/svg" viewBox="0 0 1024 1024" width="24" height="24">
  <g transform="translate(0,1024) scale(0.1,-0.1)" fill="#000000" stroke="none">
        <path d="M2345 8848 c-123 -40 -199 -121 -231 -242 -12 -46 -14 -375 -12
-2152 l3 -2098 40 -23 c22 -13 83 -37 135 -55 91 -31 102 -32 260 -32 154 -1
171 1 253 27 135 43 225 101 338 219 36 37 68 68 71 68 4 0 42 -35 85 -78 113
-113 198 -167 335 -214 86 -30 357 -33 458 -5 144 39 277 122 387 241 33 36
64 66 67 66 4 0 34 -29 66 -64 170 -181 364 -266 609 -266 176 0 316 45 458
146 63 45 183 160 183 176 0 22 33 2 81 -50 110 -119 237 -201 384 -248 81
-26 341 -27 425 -1 30 9 66 19 80 23 32 9 122 58 179 97 45 31 181 165 181
179 0 22 32 2 89 -57 138 -140 255 -207 441 -250 65 -15 235 -20 278 -9 l22 6
0 1099 0 1098 -1037 3 -1038 3 -48 24 c-68 33 -133 103 -157 169 -20 54 -21
73 -23 1131 l-2 1076 -1665 2 c-1083 1 -1675 -2 -1695 -9z"/>
    <path d="M6192 7928 l3 -803 27 -55 c29 -57 75 -97 137 -118 25 -9 252 -12
822 -12 837 0 808 -2 775 45 -14 20 -1546 1551 -1666 1665 -113 107 -101 196
-98 -722z"/>
    <path d="M3158 4124 c-103 -135 -240 -230 -403 -280 -47 -15 -93 -19 -215 -19
-176 0 -246 16 -360 80 -34 19 -66 35 -71 35 -6 0 -8 -89 -7 -217 l3 -218 60
-32 c177 -96 434 -116 632 -50 123 40 191 84 301 194 96 96 122 116 122 94 0
-17 139 -150 197 -189 154 -103 297 -140 501 -129 150 8 247 35 364 102 55 31
170 135 213 194 27 37 55 53 55 32 0 -17 125 -143 184 -185 140 -100 249 -136
434 -143 263 -11 453 68 628 261 l68 76 79 -86 c150 -161 292 -232 517 -258
84 -10 242 10 337 43 119 41 184 83 298 193 90 89 125 113 125 90 0 -7 105
-114 153 -157 60 -53 196 -120 294 -145 83 -22 272 -28 317 -10 l26 10 0 204
0 204 -157 4 c-141 5 -166 8 -232 32 -160 60 -293 161 -403 308 l-18 23 -37
-45 c-190 -230 -403 -330 -673 -317 -237 11 -414 104 -574 300 -21 26 -43 47
-50 46 -6 0 -35 -29 -63 -64 -102 -123 -216 -203 -355 -250 -118 -39 -315 -47
-435 -16 -163 40 -296 125 -410 261 l-68 82 -35 -43 c-41 -51 -138 -147 -170
-169 -12 -8 -33 -23 -45 -32 -13 -10 -27 -18 -31 -18 -4 0 -15 -6 -23 -13 -26
-22 -120 -56 -205 -73 -124 -25 -318 -16 -416 21 -133 49 -269 154 -376 290
l-30 39 -46 -60z"/>
    <path d="M3157 3271 c-144 -188 -354 -298 -592 -309 -137 -6 -236 17 -366 82
-48 25 -90 42 -93 39 -9 -9 -7 -426 2 -439 25 -35 209 -93 333 -103 299 -24
527 60 697 258 31 36 57 68 59 70 1 2 37 -34 80 -79 228 -242 534 -316 863
-208 105 34 196 95 298 196 51 50 96 92 100 92 4 -1 23 -21 42 -46 43 -56 150
-148 223 -192 126 -76 281 -105 482 -91 178 13 319 79 465 216 25 23 59 60 75
82 17 22 35 41 41 41 7 0 20 -12 30 -27 9 -16 45 -55 78 -89 176 -174 389
-247 659 -223 195 18 390 122 509 273 23 30 47 55 51 55 5 1 45 -37 90 -83
118 -120 184 -164 318 -209 91 -30 157 -40 275 -39 147 0 135 -21 132 219 l-3
206 -95 -2 c-268 -5 -506 105 -660 304 -23 30 -46 55 -50 55 -5 0 -34 -30 -64
-67 -88 -107 -189 -182 -316 -236 -130 -55 -334 -68 -479 -29 -156 43 -253
102 -389 240 l-92 95 -22 -29 c-49 -64 -156 -168 -210 -204 -77 -51 -190 -97
-285 -115 -294 -56 -581 61 -780 318 -27 35 -35 34 -66 -6 -51 -67 -201 -207
-221 -207 -5 0 -20 -9 -35 -19 -15 -11 -47 -27 -72 -36 -24 -9 -53 -21 -64
-25 -41 -18 -180 -40 -249 -40 -130 0 -335 68 -431 142 -52 40 -172 160 -189
190 -10 15 -23 28 -30 28 -6 0 -29 -22 -49 -49z"/>
    <path d="M3190 2461 c0 -18 -142 -161 -203 -204 -135 -96 -250 -135 -427 -144
-149 -7 -243 11 -363 71 -63 31 -90 40 -93 31 -3 -7 -4 -140 -2 -296 l3 -284
28 -57 c42 -86 113 -150 195 -176 l67 -22 2685 2 2685 3 49 25 c65 33 130 100
164 169 27 56 27 58 30 298 l4 243 -94 -6 c-268 -18 -487 84 -681 316 l-38 45
-47 -55 c-105 -121 -162 -169 -257 -218 -222 -114 -459 -122 -671 -23 -120 56
-210 130 -328 266 l-26 30 -31 -35 c-155 -175 -249 -244 -401 -294 -152 -50
-350 -48 -496 5 -140 51 -244 130 -386 294 l-26 30 -32 -36 c-18 -19 -42 -46
-54 -60 -97 -115 -277 -222 -428 -255 -137 -29 -325 -6 -461 56 -109 49 -229
145 -316 250 -32 39 -49 49 -49 31z"/>
  </g>
</svg>