<svg xmlns="http://www.w3.org/2000/svg" version="1.1" width="535.000000" height="733.000000" viewBox="0 0 535.000000 733.000000">
<g transform="translate(0.000000,733.000000) scale(0.100000,-0.100000)"
fill="#000000" stroke="none">
<path d="M749 7120 c-48 -13 -67 -30 -84 -73 -16 -41 -16 -49 0 -113 10 -38
35 -118 57 -179 22 -60 51 -141 64 -180 76 -212 133 -321 244 -465 129 -167
189 -264 235 -379 66 -163 79 -220 78 -346 0 -123 -12 -203 -50 -320 -36 -113
-36 -210 -1 -288 44 -94 95 -133 237 -176 111 -35 117 -46 60 -108 -84 -90
-165 -226 -238 -396 -18 -43 -23 -48 -43 -41 -32 9 -263 150 -748 454 -91 57
-183 109 -205 115 -55 17 -102 1 -133 -45 -22 -32 -24 -42 -19 -120 4 -47 13
-146 21 -220 35 -319 57 -815 56 -1282 -1 -272 1 -300 17 -322 59 -80 154 -73
259 20 12 11 113 87 224 169 111 83 277 206 369 274 91 68 173 126 181 128 19
5 38 -16 71 -75 l23 -43 -42 -38 c-46 -43 -77 -104 -116 -232 -47 -156 -57
-250 -66 -649 -4 -206 -14 -449 -20 -540 -15 -207 -61 -486 -101 -604 -58
-173 -195 -400 -361 -595 -55 -65 -62 -78 -66 -124 -5 -64 20 -101 78 -117 58
-16 81 -4 322 169 367 265 808 684 1107 1054 50 62 68 77 90 77 32 0 44 12
135 134 90 119 119 150 197 202 86 57 158 83 354 129 88 20 214 51 280 68 66
17 140 31 165 31 45 1 45 1 48 -35 3 -37 -30 -87 -158 -239 -135 -160 -189
-246 -211 -336 -18 -78 -66 -167 -132 -246 -33 -40 -203 -216 -378 -390 -323
-321 -340 -343 -307 -376 21 -21 72 -13 138 21 262 136 308 174 810 677 315
314 381 388 468 517 104 155 143 242 177 394 37 167 47 182 243 380 163 165
263 284 299 354 21 42 77 109 148 180 33 33 104 115 158 181 138 173 205 224
293 224 105 0 174 47 174 118 0 54 -30 96 -84 118 -26 11 -46 26 -46 34 0 8
18 25 41 38 78 45 103 132 54 191 -36 42 -79 54 -155 42 -34 -6 -75 -7 -92 -4
-41 8 -190 183 -348 408 -255 363 -394 475 -924 741 -94 48 -177 91 -183 96
-7 6 -13 29 -13 52 0 85 -58 222 -122 289 -35 38 -39 39 -90 34 -29 -3 -65 -8
-79 -12 -25 -7 -27 -4 -48 63 -26 86 -62 122 -121 122 -61 0 -85 -14 -110 -64
-25 -54 -51 -60 -75 -18 -9 15 -100 111 -203 213 -371 368 -643 596 -1127 941
-320 228 -587 361 -676 338z m3545 -3101 c79 -42 120 -115 114 -205 -8 -131
-119 -215 -254 -190 -25 5 -51 22 -83 54 -70 71 -88 151 -52 234 48 109 177
160 275 107z"/>
</g>
</svg>
