<svg xmlns="http://www.w3.org/2000/svg" version="1.1" width="466.000000" height="569.000000" viewBox="0 0 466.000000 569.000000">
<g transform="translate(0.000000,569.000000) scale(0.100000,-0.100000)"
fill="#000000" stroke="none">
<path d="M997 5477 c-6 -15 30 -99 45 -105 4 -2 8 -11 8 -21 0 -9 4 -21 8 -26
5 -6 15 -30 22 -55 7 -25 19 -54 25 -65 16 -26 26 -75 32 -155 2 -36 9 -69 14
-74 14 -15 11 -85 -6 -149 -8 -32 -15 -71 -15 -87 0 -16 -4 -31 -9 -34 -5 -4
-12 -29 -16 -56 -4 -28 -10 -50 -15 -50 -4 0 -13 -19 -20 -42 -8 -30 -24 -52
-51 -73 -22 -16 -46 -36 -54 -42 -7 -7 -16 -13 -19 -13 -7 0 -45 -32 -115 -97
-25 -24 -49 -43 -53 -43 -5 0 -8 -7 -8 -15 0 -8 -7 -15 -15 -15 -8 0 -15 -5
-15 -10 0 -10 -36 -53 -92 -112 -10 -10 -18 -21 -18 -25 0 -5 -12 -19 -25 -32
-14 -13 -25 -29 -25 -37 0 -8 -4 -14 -8 -14 -10 0 -72 -87 -72 -100 0 -6 -4
-10 -9 -10 -5 0 -14 -12 -20 -27 -6 -16 -25 -50 -41 -78 -43 -73 -70 -132 -70
-150 0 -8 -7 -18 -15 -21 -8 -4 -15 -17 -15 -30 0 -13 -6 -38 -14 -56 -21 -50
-44 -128 -52 -173 -4 -22 -10 -44 -14 -50 -16 -23 -50 -287 -50 -389 0 -92 28
-316 41 -330 5 -6 9 -21 9 -34 0 -32 51 -195 63 -204 20 -12 -2 -358 -33 -517
-13 -71 -13 -91 3 -91 14 0 92 79 172 173 22 26 45 47 50 47 10 0 65 -54 65
-64 0 -11 46 -62 146 -161 117 -116 150 -145 164 -145 5 0 15 -9 22 -20 7 -11
21 -20 30 -20 10 0 18 -7 18 -15 0 -8 6 -15 13 -15 6 0 21 -7 32 -16 18 -13
21 -31 26 -167 10 -233 50 -484 88 -555 6 -11 11 -32 11 -46 0 -14 4 -26 8
-26 5 0 15 -23 22 -50 7 -28 16 -50 20 -50 3 0 14 -22 24 -50 10 -27 22 -50
27 -50 5 0 9 -7 9 -15 0 -8 5 -15 10 -15 6 0 10 -7 10 -15 0 -8 5 -15 10 -15
6 0 10 -5 10 -11 0 -36 191 -269 221 -269 12 0 11 17 -1 25 -5 3 -10 17 -10
30 0 13 -4 27 -10 30 -5 3 -10 17 -10 29 0 13 -6 29 -14 35 -7 6 -16 34 -20
61 -4 27 -11 52 -16 55 -6 3 -10 18 -10 31 0 14 -7 53 -15 87 -40 173 -55 416
-35 572 6 44 14 101 17 127 3 27 9 48 13 48 5 0 14 23 20 52 15 59 74 152 108
167 12 6 22 15 22 21 0 5 7 10 15 10 8 0 15 4 15 9 0 4 19 21 43 37 23 16 44
32 45 37 2 4 10 7 18 7 8 0 17 7 20 15 4 8 10 13 14 10 4 -3 10 2 14 10 3 8
11 15 19 15 7 0 24 11 37 25 13 14 29 25 36 25 7 0 19 6 26 13 7 7 24 18 38
25 81 39 149 79 145 84 -3 3 11 9 32 13 21 4 49 13 63 20 46 23 100 45 113 45
18 0 147 43 147 49 0 22 -175 54 -280 52 -81 -1 -303 -31 -310 -41 -3 -4 -18
-10 -35 -13 -35 -6 -103 -30 -162 -57 -24 -11 -50 -20 -58 -20 -8 0 -15 -4
-15 -9 0 -5 -13 -12 -30 -16 -16 -4 -30 -10 -30 -14 0 -4 -16 -13 -35 -21 -19
-8 -35 -17 -35 -21 0 -4 -16 -13 -35 -20 -19 -7 -35 -16 -35 -20 0 -4 -8 -9
-17 -13 -18 -5 -29 -12 -86 -49 -28 -19 -87 -16 -87 4 0 5 -6 9 -12 9 -7 0
-27 14 -45 30 -18 17 -37 30 -42 30 -6 0 -11 4 -11 9 0 5 -26 36 -57 69 -32
32 -65 69 -73 82 -8 12 -23 33 -32 45 -10 13 -18 28 -18 34 0 6 -4 11 -9 11
-5 0 -22 26 -37 58 -15 31 -30 59 -34 62 -4 3 -13 23 -20 45 -7 22 -16 49 -21
60 -4 11 -11 36 -15 55 -3 19 -10 40 -14 45 -23 31 -37 385 -20 495 18 109 34
185 41 190 4 3 10 23 14 45 3 22 14 58 24 80 48 108 97 205 103 205 4 0 14 13
23 29 14 28 38 56 138 164 26 28 47 55 47 59 0 4 4 8 10 8 5 0 31 20 57 45 26
24 53 45 59 45 7 0 14 6 17 13 2 7 23 22 46 32 22 11 41 23 41 27 0 7 6 10
154 87 55 28 106 51 113 51 7 0 13 5 13 10 0 6 6 10 14 10 7 0 27 7 42 15 16
8 37 15 46 15 9 0 19 4 22 9 8 12 70 23 89 15 15 -5 97 -117 97 -132 0 -4 8
-15 18 -24 9 -9 32 -32 50 -52 18 -20 37 -36 42 -36 6 0 10 -4 10 -9 0 -5 15
-13 33 -16 17 -4 34 -10 37 -14 8 -11 172 -41 220 -41 94 1 355 56 370 79 3 4
18 11 35 15 16 4 32 11 35 14 3 4 28 18 55 31 28 13 58 31 69 40 10 9 21 16
25 15 14 -2 41 9 41 16 0 5 21 20 46 35 46 27 104 76 104 89 0 11 -121 6 -220
-8 -52 -8 -143 -17 -203 -21 -94 -7 -107 -6 -101 8 3 8 17 18 32 22 15 4 34
12 42 20 21 17 201 73 280 86 91 14 285 37 410 48 58 5 116 12 130 15 14 4 79
11 145 17 66 6 154 14 195 19 41 5 143 16 225 24 83 9 160 20 171 25 12 5 59
13 105 16 99 9 205 39 175 51 -11 4 -117 2 -235 -4 -244 -14 -1052 -1 -1131
17 -25 6 -91 18 -147 28 -57 9 -103 20 -103 24 0 4 -19 10 -42 14 -24 4 -70
16 -103 27 -67 22 -328 148 -333 160 -2 4 -11 8 -20 8 -9 0 -28 9 -42 20 -14
11 -31 20 -38 20 -26 0 -51 36 -72 104 -13 38 -29 81 -36 95 -8 14 -14 32 -14
39 0 6 -5 12 -10 12 -6 0 -15 11 -20 25 -5 14 -14 25 -20 25 -5 0 -10 4 -10
10 0 5 -8 19 -17 31 -19 23 -133 137 -155 154 -37 30 -108 75 -117 75 -6 0
-11 4 -11 8 0 5 -16 14 -35 22 -19 8 -35 17 -35 20 0 4 -18 13 -40 20 -22 7
-40 16 -40 20 0 4 -20 11 -45 14 -25 4 -45 11 -45 15 0 7 -62 24 -160 42 -30
6 -62 13 -70 16 -25 10 -41 12 -140 23 -52 6 -109 13 -126 16 -22 4 -33 1 -37
-9z m1390 -1109 c42 -40 44 -81 7 -126 -22 -26 -34 -32 -65 -32 -51 0 -67 8
-84 40 -12 23 -14 95 -3 105 18 16 77 45 93 45 10 0 34 -14 52 -32z"/>
<path d="M1664 3890 c-29 -10 -86 -34 -128 -54 -41 -20 -80 -36 -86 -36 -5 0
-10 -3 -10 -7 0 -5 -19 -17 -43 -28 -23 -11 -53 -30 -67 -42 -14 -13 -28 -23
-33 -23 -4 0 -23 -16 -43 -35 -19 -19 -37 -35 -40 -35 -2 0 -18 -14 -34 -30
-17 -17 -30 -27 -30 -23 0 4 -9 -3 -20 -15 -11 -12 -20 -24 -20 -27 0 -3 -19
-25 -43 -48 -24 -23 -46 -50 -50 -59 -3 -10 -11 -18 -17 -18 -5 0 -10 -7 -10
-15 0 -9 -6 -18 -14 -21 -8 -3 -20 -20 -27 -37 -7 -18 -15 -34 -19 -37 -3 -3
-14 -23 -25 -45 -11 -22 -26 -46 -32 -53 -7 -7 -13 -21 -13 -31 0 -9 -4 -21
-9 -27 -4 -5 -11 -24 -14 -41 -8 -42 7 -43 50 -3 18 17 36 30 41 30 6 0 24 16
41 35 17 19 34 35 38 35 5 0 19 10 33 23 14 12 42 33 62 47 21 14 38 28 38 33
0 4 5 7 10 7 6 0 33 16 60 35 27 19 52 35 55 35 6 0 86 51 95 60 13 13 91 50
104 50 9 0 16 5 16 10 0 6 9 10 19 10 11 0 21 3 23 8 6 13 131 69 218 98 138
45 200 70 200 82 0 6 -4 12 -10 12 -11 0 -150 133 -150 145 0 10 -48 55 -58
54 -4 0 -30 -9 -58 -19z"/>
<path d="M1855 3543 c-11 -3 -33 -11 -50 -18 -16 -7 -56 -23 -88 -34 -95 -34
-117 -49 -117 -76 0 -13 -4 -26 -9 -29 -5 -3 -11 -18 -14 -33 -11 -60 -38
-157 -46 -167 -4 -6 -15 -31 -24 -56 -8 -25 -18 -53 -22 -62 -10 -24 26 -24
63 -1 60 38 172 137 172 152 0 5 11 17 25 27 14 10 25 24 25 31 0 7 5 13 10
13 6 0 14 8 17 17 4 9 21 39 40 67 18 28 33 56 33 62 0 7 3 14 8 16 10 4 42
67 42 84 0 14 -25 17 -65 7z"/>
<path d="M826 2798 c-31 -109 -38 -253 -16 -361 l14 -68 34 6 c19 3 43 11 53
16 11 5 28 14 39 19 11 6 34 10 52 10 41 0 78 10 78 20 0 4 -23 32 -51 61 -59
63 -99 127 -153 241 -29 61 -44 78 -50 56z"/>
</g>
</svg>
