<?xml version="1.0" encoding="UTF-8"?>
<svg xmlns="http://www.w3.org/2000/svg" viewBox="0 0 674 632" width="24" height="24">
  <g transform="translate(0,632) scale(0.1,-0.1)" fill="#000000" stroke="none">
        <path d="M6160 6108 c-112 -31 -411 -156 -417 -174 -2 -7 7 -14 19 -17 38 -10
184 -101 258 -162 37 -30 94 -87 126 -125 32 -39 61 -70 65 -70 4 0 17 28 28
63 64 197 88 376 57 435 -25 48 -75 67 -136 50z"/>
    <path d="M5270 5930 c-46 -11 -120 -44 -145 -63 -19 -15 -19 -16 15 -28 79
-28 299 -146 408 -219 218 -146 404 -320 550 -515 41 -55 78 -101 82 -103 5
-2 18 23 31 55 18 45 23 79 23 153 1 89 -1 100 -32 163 -61 124 -275 322 -473
437 -39 23 -115 60 -167 82 -80 34 -110 41 -177 44 -44 2 -96 -1 -115 -6z"/>
    <path d="M4435 5876 c-38 -8 -95 -23 -126 -35 -49 -19 -162 -81 -182 -100 -4
-4 28 -15 70 -25 131 -31 381 -115 521 -176 209 -91 418 -218 632 -384 132
-102 348 -318 463 -461 90 -112 252 -348 303 -442 16 -29 32 -53 36 -53 14 0
57 77 78 139 45 135 34 285 -32 416 -112 226 -447 553 -808 790 -412 271 -717
376 -955 331z"/>
    <path d="M3040 5740 c-393 -25 -697 -100 -1080 -267 -787 -342 -1397 -1031
-1636 -1848 -74 -252 -113 -502 -119 -760 -15 -643 177 -1251 543 -1725 145
-188 429 -444 638 -576 259 -163 582 -284 879 -330 166 -25 542 -26 705 -1
135 21 316 64 450 108 386 125 529 143 995 125 199 -7 243 -6 330 9 244 42
446 137 610 287 56 51 383 413 531 589 265 314 472 635 553 861 79 216 113
485 93 724 -14 164 -49 342 -94 474 -60 179 -277 575 -453 830 -456 658 -1147
1156 -1935 1393 -292 88 -674 129 -1010 107z m-215 -1215 c417 -31 871 -246
1204 -569 305 -298 531 -692 637 -1113 16 -62 31 -113 34 -113 4 0 27 28 52
63 26 34 91 106 145 160 296 294 660 442 983 398 79 -10 187 -40 218 -60 19
-11 67 -160 88 -267 25 -129 22 -372 -5 -528 -53 -299 -199 -607 -418 -879
-38 -48 -147 -171 -240 -275 -94 -103 -195 -217 -226 -253 -145 -172 -298
-262 -527 -312 -79 -17 -123 -20 -265 -18 -347 6 -442 6 -510 -3 l-70 -8 51
53 c160 171 327 452 418 704 139 387 164 849 69 1250 -175 739 -690 1303
-1368 1500 -271 78 -566 83 -853 15 -286 -69 -496 -186 -708 -395 -169 -166
-259 -308 -329 -518 -146 -440 -39 -956 259 -1251 204 -200 434 -298 706 -297
229 0 413 66 595 212 148 119 270 313 312 494 26 113 23 302 -6 409 -112 416
-518 660 -882 530 -89 -32 -195 -100 -245 -157 -142 -163 -155 -436 -28 -602
43 -57 133 -111 209 -125 143 -27 266 29 321 145 58 121 10 276 -100 326 -49
22 -135 24 -191 4 -21 -8 -41 -12 -43 -10 -10 10 33 58 75 85 150 95 342 37
434 -132 33 -61 34 -67 34 -173 0 -103 -2 -114 -32 -178 -86 -182 -300 -278
-524 -237 -30 5 -92 28 -138 51 -299 147 -402 552 -218 864 48 82 160 196 240
244 212 126 474 146 716 55 198 -74 376 -241 484 -452 236 -461 104 -1009
-320 -1328 -463 -349 -1099 -300 -1524 116 -218 214 -353 497 -390 820 -14
122 -6 349 15 456 112 558 539 1028 1101 1213 258 85 461 108 760 86z"/>
  </g>
</svg>