<?xml version="1.0" encoding="UTF-8"?>
<svg xmlns="http://www.w3.org/2000/svg" viewBox="0 0 1024 1024" width="24" height="24">
<g transform="translate(0.000000,1024.000000) scale(0.100000,-0.100000)" fill="#000000" stroke="none">
<path d="M3730 7470 c-189 -34 -347 -179 -396 -365 -11 -41 -14 -389 -14
-1910 0 -1638 2 -1868 15 -1920 45 -176 156 -295 331 -355 55 -19 90 -20 1016
-20 l958 0 -54 78 c-29 42 -66 102 -81 132 -15 30 -33 58 -39 62 -6 4 -387 8
-846 8 -557 0 -848 4 -873 11 -21 6 -56 26 -77 45 -75 68 -70 -84 -70 1944 0
2004 -4 1884 62 1947 77 72 25 68 798 71 382 2 818 1 968 -3 l272 -7 0 -317
c0 -330 7 -405 42 -476 28 -56 94 -122 150 -151 71 -36 154 -44 496 -44 l312
0 0 -789 0 -789 38 -13 c20 -6 81 -31 136 -55 54 -24 100 -44 102 -44 2 0 4
424 4 943 l0 942 -540 540 -540 540 -1063 1 c-584 1 -1082 -2 -1107 -6z M4160
6045 l0 -125 505 0 505 0 0 125 0 125 -505 0 -505 0 0 -125z M4160 5460 l0
-80 990 0 990 0 0 80 0 80 -990 0 -990 0 0 -80z M4160 4900 l0 -80 990 0 990
0 0 80 0 80 -990 0 -990 0 0 -80z M6358 4419 c-10 -5 -29 -46 -43 -90 -35
-111 -51 -138 -90 -155 -55 -23 -88 -17 -178 31 -47 25 -92 45 -99 45 -17 0
-148 -131 -148 -148 0 -7 20 -51 45 -98 48 -90 55 -135 31 -182 -23 -44 -47
-59 -140 -86 -48 -14 -95 -31 -102 -37 -10 -8 -14 -38 -14 -110 0 -98 0 -99
28 -113 15 -8 56 -22 90 -31 109 -28 132 -47 146 -127 6 -31 -1 -50 -45 -133
l-51 -98 68 -68 c38 -38 76 -72 86 -75 9 -2 54 14 100 37 99 50 141 53 197 16
40 -27 48 -43 88 -172 l18 -60 107 -3 c123 -3 127 0 148 93 38 169 113 204
270 125 44 -22 85 -40 92 -40 19 1 148 128 148 145 0 9 -21 57 -46 107 -37 73
-45 98 -40 126 11 72 47 103 157 134 106 29 109 33 109 143 0 67 -4 96 -14
104 -7 6 -50 22 -95 35 -99 29 -123 44 -146 92 -23 48 -16 86 36 195 l42 88
-73 68 c-40 37 -76 69 -81 71 -5 2 -46 -17 -92 -42 -98 -54 -145 -59 -198 -23
-29 19 -39 37 -69 126 -25 75 -41 107 -55 112 -29 11 -167 10 -187 -2z m205
-545 c63 -21 130 -83 164 -152 24 -48 28 -69 28 -137 0 -67 -5 -88 -27 -131
-77 -148 -258 -207 -406 -133 -70 34 -105 71 -139 146 -47 103 -38 212 26 300
32 44 97 93 146 111 45 16 156 14 208 -4z M4160 4340 l0 -80 728 0 727 0 80
80 80 80 -808 0 -807 0 0 -80z M4160 3780 l0 -80 615 0 615 0 4 23 c10 47 26
128 26 132 0 3 -283 5 -630 5 l-630 0 0 -80z"/>
</g>
</svg>