<?xml version="1.0" encoding="UTF-8"?>
<svg xmlns="http://www.w3.org/2000/svg" viewBox="0 0 1024 1024" width="24" height="24">
  <g transform="translate(0,1024) scale(0.1,-0.1)" fill="#000000" stroke="none">
        <path d="M4890 8400 c-685 -54 -1308 -299 -1830 -719 -133 -106 -345 -315
-459 -451 -607 -723 -869 -1656 -731 -2600 73 -496 274 -998 564 -1405 200
-280 466 -552 741 -755 309 -230 725 -430 1088 -525 323 -84 528 -110 867
-109 325 0 532 27 826 104 437 115 859 328 1219 614 219 174 513 495 675 736
295 440 479 947 535 1476 20 184 19 535 -1 717 -129 1180 -889 2199 -1989
2667 -198 84 -482 169 -689 205 -255 44 -595 63 -816 45z m570 -236 c654 -75
1261 -354 1741 -800 635 -591 979 -1381 979 -2247 0 -498 -106 -945 -329
-1384 -297 -585 -788 -1069 -1376 -1358 -443 -217 -873 -317 -1360 -317 -496
0 -951 111 -1400 340 -634 324 -1148 882 -1429 1555 -248 592 -296 1299 -131
1941 50 197 116 370 220 581 232 471 561 853 1000 1162 380 268 835 447 1300
512 198 27 197 27 440 29 135 1 258 -4 345 -14z"/>
    <path d="M5056 7713 c-32 -120 -130 -481 -218 -803 -87 -322 -193 -711 -234
-865 -41 -154 -78 -289 -83 -301 -6 -14 -27 -26 -68 -37 -32 -8 -251 -68 -488
-132 -236 -64 -610 -165 -830 -225 -220 -60 -494 -134 -610 -165 -115 -31
-213 -60 -218 -64 -4 -4 115 -40 265 -80 241 -65 486 -131 1053 -286 282 -77
859 -236 876 -240 9 -3 21 -27 28 -58 23 -87 172 -635 310 -1133 72 -259 162
-592 201 -740 68 -257 76 -283 83 -273 4 6 45 152 147 534 48 182 149 553 223
825 74 272 154 568 178 658 23 89 47 169 53 177 10 13 343 105 1683 466 293
79 529 147 525 151 -4 3 -169 50 -367 103 -198 53 -623 169 -945 257 -322 88
-654 179 -739 202 -118 33 -157 47 -163 62 -4 10 -37 129 -72 264 -36 135
-141 524 -234 865 -93 341 -195 718 -228 838 -32 119 -61 217 -65 217 -3 0
-32 -98 -63 -217z m60 -2529 c-2 -6 -125 109 -272 256 l-267 268 86 319 c47
175 143 525 212 778 70 253 146 532 170 620 24 88 50 180 57 205 11 38 13
-151 16 -1195 1 -682 0 -1245 -2 -1251z m-311 206 l270 -270 -1254 0 c-690 0
-1251 3 -1247 7 7 8 104 35 651 183 204 55 575 156 825 224 250 68 462 124
470 125 8 0 137 -120 285 -269z m2859 -279 c-9 -9 -31 -15 -784 -218 -256 -69
-604 -163 -775 -209 -170 -47 -331 -89 -356 -95 l-45 -12 -260 262 c-142 145
-260 267 -262 272 -2 5 483 9 1244 9 709 0 1244 -4 1238 -9z m-2024 -561 c21
-29 41 53 -261 -1065 -209 -770 -246 -906 -253 -913 -3 -3 -6 559 -6 1249 l0
1254 251 -250 c138 -138 259 -261 269 -275z"/>
  </g>
</svg>