<?xml version="1.0" encoding="UTF-8"?>
<svg xmlns="http://www.w3.org/2000/svg" viewBox="0 0 1024 1024" width="24" height="24">
  <g transform="translate(0,1024) scale(0.1,-0.1)" fill="#000000" stroke="none">
        <path d="M5030 7794 c-221 -44 -365 -137 -484 -309 -62 -91 -85 -144 -105
-243 -8 -37 -11 -725 -11 -2270 0 -1836 3 -2226 14 -2268 28 -104 98 -191 193
-236 48 -23 50 -23 483 -23 l435 0 55 28 c93 48 152 115 185 212 15 45 16 225
15 2270 0 1627 -3 2236 -12 2280 -60 316 -332 547 -658 560 -47 2 -96 1 -110
-1z"/>
    <path d="M7335 6414 c-277 -45 -482 -222 -565 -489 -14 -45 -24 -113 -29 -190
-4 -66 -6 -768 -4 -1561 l2 -1441 22 -59 c35 -96 94 -164 179 -206 45 -23 48
-23 480 -23 l435 0 57 28 c125 61 184 154 199 315 5 56 7 706 5 1562 -4 1293
-7 1473 -21 1533 -70 301 -335 520 -643 532 -48 2 -100 1 -117 -1z"/>
    <path d="M2680 6085 c-82 -18 -144 -42 -192 -72 -21 -12 -42 -23 -48 -23 -5 0
-52 -42 -104 -92 -80 -79 -101 -106 -135 -178 -82 -172 -76 -46 -76 -1590 0
-1523 -4 -1433 65 -1539 34 -54 111 -112 179 -136 64 -22 823 -22 897 0 100
31 182 114 220 225 18 53 19 106 19 1430 l0 1375 -23 89 c-62 244 -238 426
-480 497 -89 27 -238 33 -322 14z"/>
  </g>
</svg>