<svg xmlns="http://www.w3.org/2000/svg" version="1.1" width="460.000000" height="616.000000" viewBox="0 0 460.000000 616.000000">
<g transform="translate(0.000000,616.000000) scale(0.100000,-0.100000)"
fill="#000000" stroke="none">
<path d="M2064 5945 c-126 -15 -304 -48 -379 -72 -127 -39 -262 -86 -304 -105
-417 -187 -718 -447 -925 -798 -68 -115 -78 -135 -129 -260 -125 -304 -161
-666 -84 -840 47 -107 179 -209 309 -239 99 -23 293 -7 403 32 22 8 81 32 130
54 50 22 110 45 135 52 25 7 58 17 74 22 72 22 400 5 431 -22 5 -5 17 -9 28
-9 16 0 49 -13 132 -50 145 -66 261 -90 426 -90 154 0 250 20 379 77 104 47
115 51 175 73 48 18 90 23 207 27 172 6 246 -6 403 -69 215 -86 305 -108 435
-108 110 0 177 13 256 51 151 72 234 212 234 396 0 385 -137 777 -383 1093
-57 74 -246 265 -324 329 -239 194 -634 369 -963 426 -253 44 -462 53 -666 30z"/>
<path d="M1573 3458 c3 -51 2 -255 -3 -453 -8 -335 -11 -372 -39 -535 -31
-175 -44 -239 -76 -380 -27 -119 -34 -151 -46 -210 -42 -211 -41 -196 -46
-884 -2 -368 -2 -680 2 -693 15 -62 103 -103 175 -82 48 14 63 27 83 71 16 35
18 88 16 675 -1 691 0 712 57 951 14 57 29 122 33 145 5 23 21 98 35 166 65
310 86 538 86 938 0 166 -1 303 -3 303 -2 0 -55 18 -117 40 -62 22 -125 40
-138 40 l-24 0 5 -92z"/>
<path d="M2935 3540 c-11 -5 -56 -22 -100 -39 l-80 -29 0 -369 c1 -382 5 -442
50 -708 22 -126 69 -356 95 -460 5 -22 21 -104 35 -183 25 -143 25 -146 25
-785 1 -584 3 -645 18 -676 27 -55 64 -76 133 -76 52 1 63 4 89 31 17 16 35
45 41 64 7 24 8 234 5 645 -4 540 -7 626 -25 750 -22 157 -54 315 -91 455 -22
81 -73 364 -87 480 -9 80 -16 266 -20 518 l-5 392 -32 -1 c-17 0 -40 -4 -51
-9z"/>
<path d="M1155 3499 c-44 -17 -87 -34 -95 -38 -9 -5 -30 -12 -48 -16 l-32 -7
0 -356 c0 -363 -10 -516 -45 -700 -17 -89 -56 -249 -76 -310 -7 -20 -18 -55
-25 -77 -7 -22 -33 -103 -57 -180 -88 -272 -117 -457 -117 -745 0 -248 59
-681 105 -769 23 -46 70 -71 132 -71 45 0 56 4 87 33 52 49 53 70 17 241 -53
252 -63 343 -63 566 -1 298 30 474 136 786 105 308 154 542 176 844 14 186 10
822 -5 826 -5 1 -46 -11 -90 -27z"/>
<path d="M3349 3527 c-8 -9 -6 -699 2 -817 19 -281 71 -544 163 -824 62 -188
79 -248 100 -336 31 -136 37 -178 46 -323 16 -226 -6 -474 -65 -762 -27 -126
-17 -171 44 -212 83 -56 200 -4 216 96 4 20 13 70 21 111 102 531 80 989 -67
1399 -25 70 -55 165 -81 256 -84 295 -100 433 -107 920 l-6 399 -50 16 c-27 9
-59 20 -70 24 -62 24 -145 54 -146 53z"/>
<path d="M2167 3384 c-4 -4 -7 -327 -7 -718 0 -807 -5 -898 -65 -1176 -43
-201 -56 -309 -62 -535 -8 -316 21 -615 69 -693 61 -100 226 -73 244 39 3 19
-5 102 -18 184 -20 129 -23 186 -22 405 0 233 3 268 28 405 15 83 29 157 31
165 3 9 16 83 29 165 43 265 48 394 44 1100 l-3 660 -131 3 c-71 1 -133 -1
-137 -4z"/>
</g>
</svg>
