<?xml version="1.0" standalone="no"?>
<!DOCTYPE svg PUBLIC "-//W3C//DTD SVG 20010904//EN"
 "http://www.w3.org/TR/2001/REC-SVG-20010904/DTD/svg10.dtd">
<svg version="1.0" xmlns="http://www.w3.org/2000/svg"
 width="787.000000pt" height="836.000000pt" viewBox="0 0 787.000000 836.000000"
 preserveAspectRatio="xMidYMid meet">
<metadata>
Created by potrace 1.16, written by Peter Selinger 2001-2019
</metadata>
<g transform="translate(0.000000,836.000000) scale(0.100000,-0.100000)"
fill="#000000" stroke="none">
<path d="M5230 8151 c-8 -5 -76 -12 -150 -16 -74 -4 -139 -10 -145 -15 -5 -4
-26 -10 -45 -13 -76 -11 -261 -64 -276 -80 -4 -4 -15 -7 -25 -7 -9 0 -30 -6
-46 -14 -15 -8 -39 -19 -53 -24 -90 -37 -290 -141 -361 -188 l-84 -57 -100 17
c-55 10 -125 19 -155 21 -30 2 -86 9 -125 15 -38 6 -122 15 -185 20 -63 5
-178 14 -255 20 -91 8 -217 9 -360 5 -121 -4 -227 -7 -235 -7 -8 0 -32 -4 -53
-9 -21 -6 -75 -14 -120 -19 -172 -19 -377 -69 -512 -125 -16 -7 -50 -20 -75
-28 -46 -16 -209 -101 -219 -115 -4 -4 -24 -20 -46 -37 -87 -64 -220 -196
-281 -280 -24 -33 -55 -71 -69 -85 -14 -14 -25 -31 -25 -39 0 -7 -8 -25 -18
-39 -37 -53 -105 -207 -122 -274 -19 -73 -32 -123 -37 -143 -3 -11 -10 -48
-16 -82 -9 -55 -14 -63 -41 -76 -123 -57 -168 -77 -176 -77 -6 0 -29 -8 -53
-19 -51 -22 -204 -83 -270 -107 -26 -9 -47 -20 -47 -24 0 -4 -20 -17 -44 -29
-71 -33 -186 -154 -186 -196 0 -8 -4 -17 -10 -20 -13 -8 -13 -80 1 -129 16
-57 107 -139 179 -160 72 -21 99 -28 140 -38 68 -15 608 -22 634 -8 15 7 66 9
161 6 77 -3 201 -8 275 -11 74 -3 144 -9 155 -14 11 -5 74 -14 140 -21 66 -6
139 -18 163 -26 23 -9 51 -12 62 -9 10 3 21 1 25 -5 3 -5 17 -10 30 -10 13 0
26 -4 29 -9 3 -4 25 -11 48 -15 24 -3 66 -10 93 -16 57 -13 132 -27 190 -36
50 -8 71 -26 86 -73 34 -108 189 -437 232 -495 4 -6 29 -43 55 -83 26 -39 65
-93 87 -120 80 -96 248 -253 319 -298 17 -10 33 -22 36 -25 10 -10 69 -50 75
-50 4 0 21 -11 38 -24 65 -48 318 -166 359 -166 9 0 18 -5 20 -11 3 -10 33
-16 135 -26 43 -4 58 -1 83 17 18 13 35 32 39 44 10 27 -5 85 -30 112 -10 11
-19 24 -19 29 0 5 -6 16 -14 24 -27 29 -113 215 -139 296 -14 44 -33 105 -42
135 -16 52 -28 135 -41 276 -6 80 6 91 67 62 91 -43 102 -48 111 -48 8 0 151
-69 188 -90 8 -5 98 -55 200 -110 102 -56 192 -107 200 -114 8 -7 34 -24 58
-36 23 -13 42 -27 42 -32 0 -4 5 -8 12 -8 6 0 20 -7 30 -17 10 -9 26 -21 37
-27 15 -9 83 -57 116 -83 6 -5 24 -17 40 -27 17 -10 38 -27 47 -37 10 -10 48
-43 85 -73 56 -45 153 -143 268 -271 56 -62 92 -112 138 -189 10 -17 31 -47
46 -66 15 -19 35 -55 45 -79 9 -25 25 -56 35 -70 14 -22 72 -129 101 -191 4
-8 19 -37 32 -65 14 -27 31 -74 38 -103 6 -28 16 -54 20 -57 5 -3 12 -24 15
-48 8 -56 11 -69 17 -87 23 -62 30 -142 26 -288 -3 -134 -7 -164 -21 -180 -9
-10 -17 -26 -17 -34 0 -19 -26 -53 -90 -117 -50 -51 -67 -65 -143 -119 -29
-20 -74 -54 -102 -74 -27 -21 -56 -38 -62 -38 -7 0 -13 -4 -13 -10 0 -5 -7
-10 -15 -10 -8 0 -15 -4 -15 -9 0 -5 -17 -20 -37 -32 -35 -21 -178 -123 -214
-153 -9 -7 -33 -25 -53 -39 -103 -70 -299 -263 -378 -373 -86 -121 -109 -158
-145 -234 -76 -162 -99 -226 -112 -308 -5 -34 -13 -67 -16 -73 -4 -5 -8 -65
-10 -132 -6 -223 32 -241 195 -87 35 34 158 121 173 124 7 1 22 7 33 14 87 47
201 63 529 72 154 4 287 10 295 12 8 3 29 8 45 12 122 30 261 109 326 184 19
22 40 37 47 34 7 -2 38 -43 68 -89 56 -87 197 -236 234 -248 11 -4 20 -10 20
-14 0 -16 220 -116 278 -127 20 -4 42 -10 47 -14 6 -5 28 -11 50 -15 22 -4 45
-11 50 -15 6 -4 60 -24 120 -45 61 -20 117 -43 126 -51 8 -8 23 -14 32 -14 8
0 22 -6 29 -14 8 -7 24 -17 36 -20 22 -8 134 -96 182 -146 46 -47 96 -114 144
-194 81 -135 127 -159 156 -82 7 17 18 45 25 61 33 76 39 119 38 318 0 111 -5
233 -12 272 -6 39 -14 90 -17 115 -4 25 -10 50 -14 55 -5 6 -10 24 -13 40 -4
27 -24 80 -48 127 -5 10 -9 25 -9 33 0 8 -4 23 -9 33 -5 9 -33 67 -62 127 -30
61 -56 112 -59 115 -14 14 -50 70 -50 78 0 10 -80 123 -111 156 -11 11 -19 25
-19 32 0 7 -4 14 -8 16 -5 2 -32 35 -61 73 -30 39 -59 75 -65 80 -6 6 -23 26
-38 45 -14 19 -39 49 -55 66 -15 17 -41 48 -58 69 -16 21 -46 57 -66 79 -19
23 -44 53 -55 67 -10 15 -44 60 -75 100 -30 41 -72 100 -93 131 -35 53 -37 59
-27 95 6 21 11 59 11 85 0 26 5 50 10 53 6 3 10 30 10 59 0 29 4 66 10 82 11
33 17 87 29 267 5 70 14 134 20 141 8 10 12 146 14 467 2 445 -6 627 -34 754
-12 56 -15 74 -28 160 -5 33 -13 74 -19 90 -6 17 -16 59 -22 95 -7 36 -15 70
-20 75 -4 6 -11 30 -15 55 -4 25 -12 54 -17 64 -6 10 -23 62 -38 115 -27 95
-81 239 -126 337 -12 27 -32 72 -43 100 -22 55 -51 111 -105 199 -20 33 -36
64 -36 69 0 5 -6 17 -14 25 -8 9 -29 43 -48 76 -57 102 -71 124 -128 203 -30
42 -64 91 -74 107 -11 17 -24 35 -30 42 -6 6 -22 28 -36 48 -14 19 -43 59 -65
89 -22 29 -51 68 -65 86 -14 18 -51 65 -82 103 -32 38 -58 72 -58 75 0 4 -15
23 -33 43 -77 86 -97 115 -97 139 0 44 21 153 34 185 8 16 22 59 31 95 35 131
131 292 233 394 33 32 69 63 79 70 11 6 44 27 74 47 30 19 70 42 89 49 63 25
125 66 140 93 13 24 13 30 -4 62 -11 19 -25 35 -33 35 -7 0 -13 4 -13 8 0 11
-121 72 -141 72 -8 0 -19 4 -25 8 -22 19 -121 43 -234 57 -25 4 -54 10 -65 15
-39 18 -420 36 -445 21z"/>
</g>
</svg>
