<?xml version="1.0" standalone="no"?>
<!DOCTYPE svg PUBLIC "-//W3C//DTD SVG 20010904//EN"
 "http://www.w3.org/TR/2001/REC-SVG-20010904/DTD/svg10.dtd">
<svg version="1.0" xmlns="http://www.w3.org/2000/svg"
 width="694.000000pt" height="744.000000pt" viewBox="0 0 694.000000 744.000000"
 preserveAspectRatio="xMidYMid meet">
<metadata>
Created by potrace 1.16, written by Peter Selinger 2001-2019
</metadata>
<g transform="translate(0.000000,744.000000) scale(0.100000,-0.100000)"
fill="#000000" stroke="none">
<path d="M3410 7233 c-83 -27 -156 -89 -189 -158 -25 -54 -28 -150 -5 -210 8
-22 20 -56 26 -75 5 -19 16 -48 23 -65 19 -43 69 -194 105 -315 17 -58 35
-116 40 -130 13 -35 47 -206 65 -325 22 -141 30 -357 16 -430 -23 -123 -109
-235 -181 -235 -63 0 -118 116 -175 367 -20 87 -40 176 -45 198 -5 22 -23 114
-40 205 -57 301 -66 332 -111 378 -75 79 -173 107 -280 82 -108 -25 -188 -109
-203 -213 -6 -38 1 -76 39 -214 58 -209 132 -459 171 -578 7 -22 31 -101 54
-175 58 -186 86 -270 94 -277 3 -4 6 -15 6 -25 0 -10 4 -26 9 -36 6 -9 17 -42
26 -72 9 -30 20 -64 25 -75 5 -11 25 -69 45 -130 37 -113 90 -265 105 -300 4
-11 15 -36 23 -55 8 -19 35 -93 61 -165 26 -71 54 -146 61 -165 8 -19 30 -80
50 -135 19 -55 40 -109 44 -120 5 -11 26 -67 46 -125 20 -58 40 -114 45 -125
5 -11 43 -121 84 -245 136 -411 150 -484 151 -747 0 -179 -1 -193 -21 -220
-35 -47 -90 -44 -148 8 -46 39 -107 126 -207 291 -211 348 -454 606 -725 767
-59 36 -129 86 -155 112 -133 132 -217 453 -162 615 9 27 54 99 100 161 46 62
83 117 83 122 0 5 6 14 14 20 20 16 80 144 105 221 33 106 51 234 51 374 0
219 -30 357 -139 641 -42 110 -46 119 -74 185 -8 19 -27 67 -43 105 -39 97
-68 140 -115 175 -58 41 -102 53 -178 47 -115 -8 -210 -82 -244 -188 -33 -99
-21 -141 86 -310 155 -244 167 -264 183 -312 42 -125 -44 -270 -147 -251 -19
4 -51 15 -71 26 -41 20 -200 172 -269 258 -83 104 -94 115 -164 186 -108 109
-193 128 -316 72 -103 -48 -159 -137 -159 -251 0 -78 22 -125 90 -197 29 -30
73 -77 99 -105 93 -98 260 -314 353 -456 224 -338 280 -552 180 -687 -33 -46
-66 -57 -121 -43 -63 17 -131 70 -201 159 -34 42 -68 85 -76 95 -8 9 -14 19
-14 21 0 2 -36 57 -80 121 -44 64 -80 118 -80 121 0 2 -13 23 -29 46 -16 24
-52 78 -80 121 -61 93 -102 131 -160 152 -208 72 -419 -138 -346 -345 17 -48
130 -230 249 -400 72 -105 282 -388 296 -400 3 -3 39 -45 80 -95 41 -49 77
-92 80 -95 5 -5 195 -213 215 -236 6 -6 69 -72 140 -145 181 -186 233 -246
262 -303 36 -71 56 -144 49 -181 -14 -72 -102 -115 -235 -115 -236 0 -434 136
-627 432 -49 76 -114 178 -144 229 -66 110 -110 162 -164 197 -37 24 -50 27
-131 27 -114 0 -164 -23 -230 -107 -40 -50 -61 -161 -46 -244 14 -75 132 -315
220 -444 322 -475 589 -640 1061 -657 139 -5 175 -3 545 38 189 21 269 22 341
6 151 -35 241 -97 332 -231 83 -122 135 -267 167 -463 20 -124 20 -451 -1
-690 -19 -217 -14 -246 43 -290 l36 -28 513 0 c501 0 513 0 541 21 15 11 38
41 51 66 l23 45 -21 139 c-46 316 -62 490 -67 759 -6 298 6 446 52 622 95 366
265 520 720 652 72 21 298 81 396 106 108 27 359 114 421 145 203 103 311 205
643 605 55 66 102 122 105 125 3 3 29 34 59 70 29 36 95 110 146 165 119 129
136 150 170 210 25 43 29 61 29 125 0 86 -22 137 -85 200 -51 50 -102 73 -177
78 -52 4 -71 0 -115 -22 -51 -24 -117 -84 -117 -105 0 -5 -3 -11 -8 -13 -4 -1
-32 -37 -61 -78 -30 -41 -57 -77 -60 -80 -4 -3 -37 -44 -73 -91 -93 -119 -261
-293 -328 -339 -76 -52 -124 -64 -162 -42 -34 20 -42 42 -33 90 20 113 79 213
250 418 72 87 135 162 141 168 6 7 67 81 134 166 68 85 126 157 129 160 7 6
77 97 165 215 37 50 70 95 74 100 68 88 169 262 193 332 56 163 -15 325 -169
386 -55 22 -148 19 -198 -7 -76 -39 -99 -70 -214 -291 -77 -146 -120 -227
-130 -240 -5 -5 -23 -37 -41 -70 -18 -33 -79 -134 -136 -225 -133 -211 -120
-191 -181 -279 -79 -113 -86 -122 -97 -135 -5 -6 -37 -47 -70 -91 -127 -168
-332 -384 -485 -509 -41 -33 -84 -69 -95 -79 -11 -10 -36 -28 -55 -40 -19 -11
-37 -24 -40 -27 -11 -13 -139 -87 -193 -113 -140 -66 -305 -94 -388 -66 -51
18 -123 73 -155 121 -22 34 -29 57 -32 112 -4 63 -2 74 33 142 36 71 116 163
215 249 19 17 71 61 114 98 278 240 442 418 593 642 40 59 113 182 113 190 0
2 13 32 29 67 57 125 71 158 71 171 0 7 4 17 9 23 14 13 67 177 85 264 51 235
71 509 56 782 -26 501 -43 578 -144 655 -134 102 -318 74 -413 -64 -46 -67
-51 -113 -29 -286 35 -284 46 -666 26 -869 -11 -108 -35 -256 -49 -298 -5 -14
-17 -54 -26 -90 -10 -36 -23 -78 -30 -95 -6 -16 -18 -46 -25 -65 -42 -108
-137 -250 -207 -307 -60 -49 -119 -73 -182 -73 -40 0 -58 6 -93 33 -94 70
-125 199 -108 452 24 376 7 754 -51 1085 -63 365 -68 391 -103 529 -53 209
-99 279 -209 320 -54 20 -149 27 -187 14z"/>
</g>
</svg>
