<svg xmlns="http://www.w3.org/2000/svg" version="1.1" width="783.000000" height="638.000000" viewBox="0 0 783.000000 638.000000">
<g transform="translate(0.000000,638.000000) scale(0.100000,-0.100000)"
fill="#000000" stroke="none">
<path d="M5954 6153 c-123 -130 -202 -379 -211 -668 -5 -137 -2 -176 16 -272
26 -137 57 -233 121 -377 85 -193 105 -319 76 -496 -22 -137 -90 -312 -179
-460 -56 -94 -171 -244 -252 -328 -257 -270 -558 -438 -1020 -571 -70 -20
-349 -79 -500 -106 -334 -59 -472 -80 -725 -109 -74 -9 -171 -20 -215 -26 -44
-5 -141 -14 -215 -20 -134 -11 -258 -25 -479 -55 -148 -19 -173 -19 -273 5
-116 28 -221 35 -293 20 -33 -6 -112 -32 -175 -57 -153 -60 -238 -87 -357
-112 -54 -12 -114 -26 -133 -31 -19 -5 -107 -24 -195 -43 -284 -62 -429 -106
-543 -165 -98 -50 -113 -79 -65 -127 35 -34 83 -59 153 -79 128 -35 284 -30
570 21 178 31 441 41 617 24 328 -34 592 -137 726 -286 10 -11 49 -53 85 -94
121 -135 196 -193 332 -258 52 -24 102 -48 111 -53 50 -26 282 -69 371 -70 47
0 88 -24 88 -50 0 -13 -95 -13 -257 1 -226 18 -469 63 -701 130 -162 46 -158
31 8 -29 227 -81 581 -142 925 -157 28 -2 53 -3 57 -4 12 -2 61 -81 55 -88 -4
-3 -68 -8 -144 -11 -420 -15 -850 84 -1373 314 -106 46 -519 257 -600 305
-134 81 -221 142 -213 149 17 15 285 35 458 33 287 -2 511 -49 700 -148 90
-48 108 -59 122 -75 9 -11 12 -12 13 -2 0 19 -95 117 -159 165 -96 71 -233
126 -436 174 -37 9 -141 16 -275 20 -212 5 -219 4 -495 -36 -307 -45 -458 -52
-577 -27 -71 16 -161 54 -193 83 -49 44 -54 46 -68 31 -26 -26 -40 -78 -33
-124 21 -153 203 -327 526 -502 77 -42 260 -133 310 -155 19 -8 60 -26 90 -39
30 -14 71 -30 90 -37 19 -7 44 -17 55 -21 98 -41 330 -119 485 -164 204 -59
543 -118 845 -147 220 -21 767 -18 987 5 l47 5 68 -82 c67 -82 247 -267 313
-322 64 -54 221 -154 304 -194 233 -112 357 -147 551 -157 139 -8 165 0 165
45 0 23 -17 44 -91 112 -51 46 -127 129 -170 184 -44 55 -83 105 -89 112 -5 7
-10 15 -10 17 0 3 -19 36 -43 73 -76 120 -188 367 -171 381 5 5 50 21 99 37
104 32 299 108 400 155 382 181 744 540 1003 997 45 78 73 136 142 288 64 142
146 399 188 590 15 68 37 211 68 450 48 364 72 476 134 600 72 147 131 200
345 311 260 134 379 215 522 355 126 123 212 259 245 385 15 62 17 256 2 261
-6 2 -23 -16 -39 -39 -39 -61 -111 -126 -170 -153 -106 -50 -210 -65 -505 -74
-223 -7 -238 -8 -290 -33 -30 -14 -74 -45 -97 -69 l-43 -43 0 50 c0 133 -47
269 -121 349 -22 23 -82 73 -134 109 -185 132 -233 223 -223 423 3 51 1 96 -3
99 -5 3 -21 -8 -35 -23z m-3117 -4107 c55 -26 76 -58 52 -81 -48 -43 -172 -57
-256 -29 -90 30 -100 63 -30 101 74 41 158 44 234 9z m-2500 -121 c37 -14 82
-25 99 -25 23 0 46 -13 89 -51 132 -115 311 -228 555 -349 158 -79 187 -93
320 -150 41 -18 94 -41 117 -51 23 -11 45 -19 48 -19 4 0 21 -6 38 -14 215
-94 630 -183 942 -201 61 -3 173 -13 250 -22 97 -12 241 -17 470 -18 275 -2
330 -4 330 -16 0 -24 -122 -32 -530 -33 -415 -1 -477 4 -842 59 -225 34 -447
86 -625 146 -77 26 -325 117 -353 129 -11 5 -69 30 -130 56 -310 130 -632 318
-752 441 -71 72 -140 171 -103 148 5 -3 40 -17 77 -30z m867 -75 c81 -58 273
-180 282 -180 2 0 23 -12 47 -27 40 -25 371 -193 380 -193 3 0 38 -15 79 -34
182 -85 427 -171 643 -225 236 -60 277 -65 593 -67 295 -2 322 -5 322 -39 0
-24 -98 -32 -340 -27 -262 4 -533 43 -799 113 -162 43 -575 182 -696 234 -16
7 -86 37 -155 66 -278 116 -542 254 -663 347 -69 52 -87 50 -25 -3 108 -92
423 -273 618 -354 30 -13 75 -32 100 -43 168 -76 559 -213 753 -264 101 -27
141 -44 101 -44 -117 0 -455 68 -654 132 -249 81 -631 249 -919 406 -140 76
-146 80 -275 171 l-79 56 134 5 c74 3 139 1 146 -3 7 -5 18 -5 25 0 16 10 164
30 240 32 55 1 61 -2 142 -59z m4056 -254 c0 -9 -146 -74 -255 -115 -178 -67
-455 -138 -607 -156 -51 -6 -58 -5 -75 15 -10 12 -24 29 -32 37 -7 7 -12 16
-10 18 2 2 49 6 104 9 297 18 517 65 795 170 68 26 80 29 80 22z m-355 -204
c-36 -32 -488 -151 -522 -138 -26 10 -3 22 67 35 91 17 337 78 385 95 44 17
84 21 70 8z m55 -27 c0 -18 -277 -131 -426 -175 -84 -24 -118 -22 -112 6 2 13
34 24 123 45 115 26 350 99 384 119 18 10 31 13 31 5z"/>
<path d="M2746 875 c3 -11 9 -29 14 -40 5 -11 23 -56 40 -100 91 -233 277
-515 340 -515 34 0 67 105 95 295 19 133 35 357 26 367 -3 3 -122 8 -263 10
-254 3 -258 3 -252 -17z"/>
</g>
</svg>
