<svg xmlns="http://www.w3.org/2000/svg" version="1.1" width="519.000000" height="550.000000" viewBox="0 0 519.000000 550.000000">
<g transform="translate(0.000000,550.000000) scale(0.100000,-0.100000)"
fill="#000000" stroke="none">
<path d="M2835 5293 c-327 -38 -567 -108 -842 -244 -672 -332 -1200 -944
-1453 -1684 -53 -158 -109 -389 -137 -565 -26 -173 -24 -544 5 -700 30 -161
65 -280 117 -388 25 -52 45 -99 45 -105 0 -6 -45 -89 -101 -184 -190 -326
-254 -479 -266 -633 -22 -291 256 -525 687 -579 109 -14 331 -14 445 0 231 28
441 116 554 230 75 77 130 209 131 312 0 99 -64 266 -164 426 -29 47 -93 154
-141 236 -49 83 -95 160 -103 173 -14 21 -11 26 69 108 97 99 219 204 404 345
72 54 141 108 154 119 23 20 25 29 37 233 7 117 21 293 29 392 9 99 20 224 25
279 10 118 28 146 92 146 85 0 104 -36 95 -185 -4 -57 -16 -204 -27 -327 -28
-308 -40 -604 -29 -718 15 -169 78 -308 159 -352 86 -47 232 8 370 142 217
209 320 518 290 865 -27 310 -40 499 -40 593 0 101 1 104 29 133 45 44 115 38
143 -14 7 -12 14 -83 18 -164 3 -78 8 -144 11 -147 2 -3 49 12 104 33 l100 37
17 62 c52 193 166 338 378 477 69 45 130 84 135 86 6 2 52 28 102 57 71 41 97
51 117 46 39 -10 66 -50 66 -99 0 -58 -26 -82 -199 -179 -78 -44 -170 -102
-205 -130 -118 -95 -207 -222 -221 -317 -6 -40 -3 -49 19 -76 32 -38 149 -96
237 -117 40 -10 109 -16 181 -16 97 0 136 5 233 30 286 74 420 172 471 345 13
47 15 84 11 174 -7 169 -33 236 -187 476 -96 150 -98 154 -176 347 -79 196
-110 257 -189 378 -125 190 -309 352 -523 459 -181 90 -386 150 -608 176 -114
13 -387 18 -469 8z m-691 -484 c33 -15 57 -75 44 -109 -15 -40 -36 -57 -137
-112 -210 -113 -359 -225 -555 -420 -133 -131 -142 -138 -180 -138 -56 0 -86
30 -86 86 0 53 34 98 184 241 180 174 382 321 572 418 92 47 117 52 158 34z
m1959 -579 c75 -51 101 -156 60 -236 -28 -55 -93 -97 -160 -102 -68 -6 -104
10 -153 65 -67 76 -65 168 4 242 45 48 81 62 152 58 45 -2 71 -9 97 -27z"/>
<path d="M3595 2876 c-148 -54 -133 -22 -127 -268 5 -240 -5 -327 -59 -494
-17 -53 -29 -97 -27 -99 8 -8 94 17 125 36 178 110 276 296 276 524 0 158 -43
336 -81 335 -9 -1 -57 -16 -107 -34z"/>
</g>
</svg>
