<?xml version="1.0" encoding="UTF-8"?>
<svg xmlns="http://www.w3.org/2000/svg" viewBox="0 0 423 488" width="24" height="24">
  <g transform="translate(0,488) scale(0.1,-0.1)" fill="#000000" stroke="none">
        <path d="M900 4673 c-1 -5 0 -164 0 -354 l1 -346 -68 -41 c-337 -201 -548
-626 -618 -1244 l-6 -58 779 0 780 0 93 70 c52 39 97 70 102 70 21 0 -39 296
-93 462 -46 140 -109 274 -180 383 -69 106 -225 260 -317 315 l-73 42 0 354 0
354 -200 0 c-110 0 -200 -3 -200 -7z"/>
    <path d="M2476 2834 c-382 -69 -742 -336 -927 -688 -99 -188 -149 -391 -149
-606 0 -361 132 -683 385 -935 243 -244 546 -379 880 -392 215 -9 416 36 620
137 364 180 623 512 710 910 26 118 31 356 11 481 -91 552 -500 978 -1046
1089 -119 24 -361 26 -484 4z m363 -90 l31 -7 -2 -251 -3 -251 -30 5 c-16 3
-75 5 -130 5 -55 0 -113 -2 -130 -5 l-30 -5 -3 252 -2 252 22 4 c37 7 243 8
277 1z m46 -624 c205 -63 367 -237 421 -450 24 -96 15 -252 -20 -345 -139
-365 -545 -515 -886 -327 -196 107 -323 347 -305 576 12 158 88 313 203 416
68 61 192 125 282 145 85 19 214 13 305 -15z m-890 -590 l0 -160 -241 0 -242
0 -6 23 c-8 29 -8 226 0 266 l7 31 241 0 241 0 0 -160z m1919 89 c4 -39 4
-111 0 -160 l-7 -89 -248 0 -248 0 7 33 c9 42 9 213 0 255 l-7 32 248 0 248 0
7 -71z m-1179 -806 c55 2 107 6 115 8 13 3 15 -30 18 -248 l2 -251 -92 -7
c-51 -3 -124 -3 -163 2 l-70 8 -3 240 c-1 132 0 245 2 251 3 9 16 10 48 2 24
-5 88 -8 143 -5z"/>
    <path d="M210 1313 c0 -901 1 -950 19 -989 23 -51 81 -99 137 -113 60 -15
1393 -15 1464 0 51 11 120 59 120 83 0 6 -30 31 -67 56 -133 90 -279 239 -375
384 -103 156 -167 313 -210 514 -33 153 -33 428 0 587 26 124 78 270 128 363
l34 62 -625 0 -625 0 0 -947z"/>
  </g>
</svg>