<?xml version="1.0" standalone="no"?>
<!DOCTYPE svg PUBLIC "-//W3C//DTD SVG 20010904//EN"
 "http://www.w3.org/TR/2001/REC-SVG-20010904/DTD/svg10.dtd">
<svg version="1.0" xmlns="http://www.w3.org/2000/svg"
 width="528.000000pt" height="744.000000pt" viewBox="0 0 528.000000 744.000000"
 preserveAspectRatio="xMidYMid meet">
<metadata>
Created by potrace 1.16, written by Peter Selinger 2001-2019
</metadata>
<g transform="translate(0.000000,744.000000) scale(0.100000,-0.100000)"
fill="#000000" stroke="none">
<path d="M1095 7220 c-272 -62 -499 -219 -656 -453 -54 -81 -139 -245 -139
-268 0 -5 -4 -17 -10 -27 -5 -9 -21 -55 -34 -102 -72 -247 -68 -567 11 -798
50 -151 217 -436 298 -512 24 -23 36 -25 127 -28 115 -4 199 9 259 41 59 31
147 131 182 205 25 55 29 72 25 131 -3 65 -11 83 -136 333 -119 238 -132 270
-132 316 0 53 30 182 55 237 8 17 29 68 49 115 19 47 73 159 120 250 249 481
266 522 231 560 -15 17 -30 20 -94 19 -42 0 -112 -9 -156 -19z"/>
<path d="M3945 7220 c-31 -35 -14 -88 121 -359 164 -329 274 -562 274 -578 0
-7 4 -21 9 -31 21 -42 32 -93 37 -167 l6 -80 -114 -225 c-144 -284 -158 -320
-158 -386 0 -115 107 -267 230 -327 64 -31 68 -31 206 -32 168 0 149 -12 267
167 189 286 267 537 254 817 -8 159 -47 366 -86 456 -5 11 -19 46 -31 77 -29
75 -96 191 -159 277 -146 197 -385 344 -643 395 -111 23 -190 21 -213 -4z"/>
<path d="M1423 6512 c-48 -99 -110 -202 -158 -261 -45 -57 -129 -141 -161
-163 -19 -13 -34 -30 -34 -39 0 -8 14 -37 31 -65 18 -27 70 -124 115 -216 46
-93 87 -168 91 -168 11 0 103 149 147 235 40 79 81 200 97 290 15 84 15 269 0
335 -16 71 -53 160 -66 160 -5 0 -33 -49 -62 -108z"/>
<path d="M3782 6608 c-31 -38 -55 -147 -60 -267 -7 -188 22 -323 109 -511 45
-96 130 -231 143 -227 4 1 40 66 80 142 39 77 91 177 115 222 l44 82 -95 93
c-102 99 -192 224 -259 358 -21 43 -39 83 -39 88 0 5 -6 15 -14 21 -10 8 -16
8 -24 -1z"/>
<path d="M2280 6232 c-28 -9 -50 -35 -50 -61 0 -17 15 -42 44 -72 83 -85 144
-215 165 -350 l10 -63 -35 -40 c-58 -68 -157 -225 -208 -331 -61 -128 -63
-132 -77 -185 -7 -25 -16 -49 -19 -55 -11 -15 -87 -337 -105 -440 -41 -238
-65 -589 -65 -940 0 -472 49 -1037 96 -1112 8 -13 37 -34 64 -48 205 -104 652
-128 945 -50 114 30 194 70 206 104 58 152 105 759 96 1221 -9 390 -35 643
-98 950 -55 266 -103 412 -199 603 -65 129 -100 185 -169 265 -39 47 -45 59
-42 95 7 131 86 303 175 385 25 23 36 41 36 61 0 55 -63 79 -116 44 -36 -23
-106 -118 -142 -193 -30 -62 -72 -202 -72 -242 0 -16 -9 -18 -80 -18 -44 0
-80 1 -80 3 0 1 -9 44 -20 95 -41 201 -179 399 -260 374z m224 -945 c68 -90
-11 -198 -119 -164 -11 4 -31 23 -44 42 -22 32 -23 38 -12 78 15 52 49 76 108
77 36 0 46 -5 67 -33z m418 8 c32 -32 41 -85 22 -125 -20 -38 -48 -53 -99 -52
-32 1 -46 8 -67 34 -39 45 -38 95 1 137 39 41 105 44 143 6z"/>
<path d="M1195 5059 c-38 -54 -121 -128 -176 -157 -45 -25 -165 -52 -225 -52
-19 0 -34 -4 -34 -9 0 -12 246 -242 371 -346 52 -43 177 -135 244 -178 134
-86 373 -193 391 -175 3 4 10 60 15 125 12 156 26 273 50 411 11 63 18 116 15
119 -2 3 -19 9 -38 13 -163 41 -259 88 -471 226 -54 35 -101 64 -106 64 -5 0
-21 -18 -36 -41z"/>
<path d="M3995 5070 c-165 -118 -334 -205 -469 -245 -50 -14 -91 -27 -92 -28
-1 -1 4 -38 11 -82 17 -93 51 -373 61 -492 7 -94 10 -96 86 -67 147 56 312
146 428 235 89 68 204 162 234 189 17 16 45 41 61 56 125 112 205 190 205 200
0 7 -30 14 -74 17 -95 8 -158 30 -221 76 -47 33 -123 110 -153 152 -17 25 -29
23 -77 -11z"/>
<path d="M605 4608 c-15 -14 -28 -38 -31 -59 -6 -36 12 -74 121 -257 6 -9 28
-48 49 -87 22 -38 60 -106 85 -150 26 -44 55 -97 66 -118 29 -55 74 -107 93
-107 9 0 64 -14 122 -30 58 -17 137 -39 175 -50 39 -11 135 -38 215 -60 80
-23 167 -48 194 -55 27 -8 53 -12 58 -9 4 3 8 43 8 90 0 96 4 91 -100 118 -30
8 -127 35 -215 60 -236 68 -255 73 -315 90 -65 18 -57 8 -200 261 -124 220
-201 344 -226 364 -34 27 -66 27 -99 -1z"/>
<path d="M4574 4612 c-12 -10 -36 -45 -54 -77 -18 -33 -52 -91 -75 -130 -39
-63 -57 -95 -118 -205 -10 -19 -25 -42 -32 -50 -7 -8 -14 -20 -16 -25 -2 -6
-20 -36 -39 -68 -28 -46 -42 -60 -70 -67 -80 -22 -404 -115 -520 -149 l-125
-38 0 -87 c0 -48 3 -90 8 -93 7 -4 115 23 267 69 68 20 138 41 205 60 22 6 59
17 82 24 23 7 84 25 135 39 85 24 128 46 128 65 0 4 30 56 66 116 63 103 77
128 141 242 14 26 34 61 44 77 9 17 38 66 63 110 55 95 58 130 17 174 -33 36
-74 40 -107 13z"/>
<path d="M607 4032 c-37 -5 -70 -55 -63 -99 3 -20 35 -72 88 -139 46 -59 101
-130 122 -158 21 -28 42 -53 45 -56 4 -3 58 -72 120 -155 62 -82 122 -153 134
-157 12 -4 121 -19 242 -33 121 -15 252 -31 290 -36 39 -5 96 -12 128 -15 l57
-7 -1 69 c-2 127 16 115 -224 145 -116 15 -255 32 -311 39 l-101 12 -95 126
c-347 460 -359 473 -431 464z"/>
<path d="M4618 4028 c-28 -10 -245 -279 -453 -560 -19 -26 -27 -28 -195 -48
-247 -30 -441 -58 -448 -64 -3 -4 -8 -44 -10 -91 l-5 -85 33 0 c19 0 61 4 94
10 34 5 133 18 221 30 88 11 190 25 227 30 37 6 79 10 93 10 42 0 88 27 115
68 14 20 50 69 81 107 31 39 126 163 212 277 170 225 178 242 132 292 -13 14
-28 26 -34 26 -5 0 -15 2 -23 4 -7 3 -25 0 -40 -6z"/>
<path d="M681 3324 c-31 -26 -41 -68 -25 -109 11 -27 512 -452 571 -483 26
-14 579 -17 587 -3 5 8 -10 161 -17 167 -1 1 -115 4 -252 5 l-250 2 -40 31
c-22 17 -42 33 -45 36 -3 3 -32 28 -65 55 -33 28 -65 55 -71 60 -52 49 -254
216 -286 238 -51 34 -68 34 -107 1z"/>
<path d="M4507 3335 c-15 -8 -58 -41 -95 -73 -37 -32 -114 -98 -173 -148 -58
-49 -131 -111 -163 -139 -32 -27 -66 -54 -75 -60 -9 -5 -127 -12 -266 -15
l-250 -5 -7 -40 c-4 -22 -7 -61 -7 -87 l-1 -48 289 0 288 0 49 37 c27 21 60
47 74 59 14 12 70 59 125 105 55 46 114 95 130 110 17 14 67 59 113 99 46 40
87 83 92 96 15 38 -9 96 -47 113 -31 14 -42 14 -76 -4z"/>
<path d="M2027 2363 c-15 -26 -29 -131 -26 -196 5 -83 20 -115 77 -153 81 -56
373 -114 567 -114 168 0 434 51 541 103 56 27 83 77 91 167 7 78 -12 189 -34
197 -7 3 -19 1 -26 -5 -16 -13 -119 -47 -182 -61 -249 -54 -535 -55 -780 0
-70 15 -178 50 -189 60 -12 11 -33 12 -39 2z"/>
<path d="M2021 1786 c-21 -83 -7 -203 30 -264 30 -50 155 -100 313 -128 108
-18 412 -21 526 -4 92 14 253 62 298 90 58 36 95 169 78 281 -11 74 -12 75
-117 41 -185 -59 -242 -66 -504 -66 -262 0 -355 11 -495 60 -122 42 -116 42
-129 -10z"/>
<path d="M2100 1237 c0 -91 50 -224 106 -281 113 -114 475 -153 724 -79 98 30
156 74 195 148 36 68 74 230 58 246 -5 5 -38 0 -73 -11 -270 -83 -710 -81
-949 4 -60 22 -61 21 -61 -27z"/>
<path d="M3148 872 c-2 -4 -5 -34 -7 -67 -4 -99 -20 -224 -32 -263 -31 -96
-45 -129 -82 -190 l-39 -65 23 -19 c64 -50 101 -63 189 -62 100 0 159 22 215
80 44 45 59 73 75 141 28 120 -49 258 -210 378 -47 36 -128 77 -132 67z"/>
<path d="M2050 838 c-84 -50 -195 -160 -230 -231 -78 -157 -4 -342 158 -391
82 -25 172 -18 239 18 75 41 80 55 38 120 -65 102 -109 274 -117 456 -4 68
-14 71 -88 28z"/>
<path d="M2890 683 c-75 -24 -328 -29 -450 -9 -56 10 -104 16 -106 13 -8 -7
16 -112 38 -167 42 -107 107 -192 174 -226 38 -20 141 -17 189 5 78 36 145
127 184 248 24 73 35 140 24 146 -4 2 -28 -2 -53 -10z"/>
</g>
</svg>
