<?xml version="1.0" encoding="UTF-8"?>
<svg xmlns="http://www.w3.org/2000/svg" viewBox="0 0 473 453" width="24" height="24">
<g transform="translate(0.000000,453.000000) scale(0.100000,-0.100000)" fill="#000000" stroke="none">
<path d="M2590 4513 c-64 -8 -131 -27 -141 -40 -6 -7 -17 -13 -24 -13 -7 0
-443 -430 -969 -955 -889 -888 -956 -957 -956 -988 0 -54 55 -90 155 -101 155
-17 434 -51 797 -96 219 -28 429 -50 467 -50 138 0 77 -53 1081 947 497 494
920 920 941 946 59 74 51 145 -21 182 -26 13 -573 88 -915 125 -96 10 -328 38
-370 44 -11 1 -31 1 -45 -1z M4194 3860 c-22 -7 -291 -270 -894 -874 -475
-475 -870 -877 -878 -892 -18 -35 -12 -106 16 -165 11 -24 64 -136 117 -249
53 -113 100 -214 105 -225 5 -11 39 -83 75 -160 116 -247 135 -275 179 -275
27 0 124 93 859 828 456 455 849 853 873 884 64 83 77 118 77 223 0 87 -2 94
-50 205 -205 466 -272 606 -321 660 -31 35 -44 42 -82 46 -25 2 -59 -1 -76 -6z
M413 2042 c-33 -5 -81 -58 -89 -97 -3 -18 0 -51 6 -72 12 -37 151 -349 243
-543 24 -52 66 -140 91 -195 87 -185 99 -205 148 -251 55 -52 97 -72 177 -85
81 -13 498 -64 766 -94 127 -14 244 -28 260 -31 17 -2 107 -13 200 -23 202
-23 246 -18 288 30 28 30 29 36 24 93 -4 46 -18 86 -57 166 -29 58 -65 134
-81 170 -16 36 -34 73 -40 83 -5 10 -29 64 -53 120 -163 380 -215 470 -295
512 -88 45 -38 37 -1001 155 -555 67 -556 67 -587 62z M210 473 c-14 -2 -60
-13 -104 -25 -88 -25 -100 -39 -86 -104 4 -22 13 -78 20 -126 14 -100 36 -132
94 -132 61 0 268 139 337 225 25 32 30 45 25 72 -8 40 -37 66 -95 84 -41 12
-133 15 -191 6z M1725 460 c-16 -4 -86 -29 -155 -55 -269 -101 -299 -116 -385
-193 -90 -81 -92 -98 -13 -121 24 -7 69 -26 102 -42 84 -42 115 -39 242 26
l109 55 128 8 c84 6 131 13 137 21 4 7 10 54 14 104 8 104 1 121 -70 168 -49
33 -71 39 -109 29z"/>
</g>
</svg>