<?xml version="1.0" encoding="UTF-8"?>
<svg xmlns="http://www.w3.org/2000/svg" viewBox="0 0 560 560" width="24" height="24">
  <g transform="translate(0,560) scale(0.1,-0.1)" fill="#000000" stroke="none">
        <path d="M2733 5370 c-18 -10 -40 -34 -49 -52 -22 -42 -30 -175 -15 -261 6
-36 16 -100 21 -143 9 -72 9 -79 -11 -100 -15 -16 -21 -36 -22 -85 l-2 -63
-101 -13 c-316 -40 -663 -187 -908 -387 l-58 -48 -42 41 c-31 30 -50 41 -73
41 -36 0 -74 38 -151 151 -57 86 -146 174 -197 194 -19 8 -53 15 -76 15 -33 0
-47 -6 -75 -34 -28 -28 -34 -42 -34 -75 0 -91 64 -171 248 -308 99 -74 112
-88 112 -114 0 -21 12 -43 41 -74 l40 -44 -49 -63 c-215 -274 -359 -624 -388
-939 l-7 -69 -68 0 c-56 0 -72 -4 -88 -21 -22 -23 -32 -23 -226 8 -115 18
-218 13 -273 -14 -104 -51 -107 -179 -5 -229 53 -26 186 -30 295 -10 109 21
191 21 208 1 9 -11 33 -15 85 -15 l72 0 7 -69 c29 -318 192 -707 398 -954 l41
-48 -42 -43 c-30 -31 -41 -50 -41 -73 0 -18 -7 -36 -19 -44 -190 -140 -301
-242 -327 -304 -43 -103 19 -194 123 -182 77 8 131 57 285 257 65 84 78 95
111 101 25 4 51 19 76 44 l39 37 54 -44 c247 -202 600 -352 918 -392 l95 -12
3 -69 c2 -53 8 -75 23 -91 17 -18 18 -27 9 -98 -5 -43 -15 -107 -21 -143 -24
-136 5 -269 66 -309 31 -21 99 -20 131 1 13 8 34 34 46 58 19 35 23 58 23 142
0 55 -9 154 -19 219 -19 117 -19 119 0 133 15 11 20 30 24 85 l5 72 115 17
c63 9 138 22 165 28 228 52 530 198 705 340 87 70 75 68 125 22 31 -29 53 -41
74 -41 32 0 62 -31 160 -167 58 -80 133 -152 185 -177 66 -31 134 -17 166 36
26 44 25 84 -5 144 -31 62 -76 106 -218 214 -101 77 -112 89 -118 123 -4 25
-19 51 -44 77 l-38 39 50 63 c204 256 343 583 386 908 l13 95 71 3 c47 2 75 8
83 17 16 19 79 19 195 0 204 -33 331 -10 368 68 22 46 21 75 -3 114 -27 45
-59 63 -135 76 -56 9 -89 8 -236 -13 -170 -24 -171 -24 -185 -5 -12 16 -30 21
-87 25 l-71 5 -13 95 c-26 198 -92 408 -184 592 -60 120 -103 188 -186 297
l-65 84 40 41 c29 29 42 51 44 76 3 31 14 42 108 113 134 100 194 159 225 221
29 57 31 83 11 131 -26 63 -111 83 -185 45 -53 -27 -128 -102 -180 -180 -62
-92 -130 -160 -160 -160 -16 0 -41 -15 -67 -41 l-42 -41 -63 50 c-264 206
-595 347 -909 386 l-95 12 -3 64 c-2 48 -8 70 -23 86 -23 24 -22 27 8 218 35
226 -12 356 -129 356 -18 0 -47 -9 -65 -20z m-63 -1549 l0 -459 -52 -17 c-29
-10 -70 -27 -91 -38 l-38 -21 -322 323 -322 322 35 30 c99 85 312 203 450 250
72 24 270 67 313 68 l27 1 0 -459z m410 439 c196 -41 361 -110 518 -214 53
-35 111 -76 127 -90 l30 -25 -322 -323 -322 -322 -38 21 c-21 11 -64 29 -95
39 l-58 18 0 458 0 458 33 0 c17 0 75 -9 127 -20z m-1086 -829 l320 -320 -32
-69 c-18 -38 -32 -78 -32 -90 0 -21 -5 -22 -77 -23 -201 -2 -848 3 -852 6 -2
2 4 49 13 104 31 181 104 380 191 517 50 79 135 194 144 194 3 0 150 -144 325
-319z m2018 218 c140 -194 233 -432 262 -667 l7 -52 -462 2 -462 3 -9 30 c-5
17 -21 56 -36 88 l-26 58 319 319 c176 176 324 319 329 317 6 -2 40 -46 78
-98z m-1757 -1016 c4 -21 18 -62 32 -92 l26 -53 -322 -322 -321 -321 -25 30
c-47 56 -146 208 -180 275 -49 98 -101 255 -125 375 -11 58 -20 115 -20 126 0
19 11 19 464 19 l464 0 7 -37z m2025 25 c0 -48 -36 -217 -65 -307 -54 -165
-144 -330 -264 -481 l-20 -25 -322 321 -322 322 26 54 c14 29 29 67 33 83 4
17 9 33 11 38 2 4 211 7 464 7 360 0 459 -3 459 -12z m-555 -1014 c-51 -44
-207 -144 -279 -181 -129 -65 -402 -143 -503 -143 l-23 0 0 459 0 459 63 21
c34 12 76 30 92 40 l30 19 325 -325 325 -324 -30 -25z m-1164 637 c35 -15 75
-31 89 -34 l25 -6 1 -461 1 -460 -30 0 c-44 0 -214 37 -303 65 -154 51 -352
159 -464 254 l-35 30 320 321 c176 176 323 320 326 320 3 0 35 -13 70 -29z"/>
  </g>
</svg>